<svg width="45" height="45" viewBox="0 0 45 45" fill="none" xmlns="http://www.w3.org/2000/svg">
<path d="M21.9642 7.49951C20.413 7.50084 18.8826 7.85639 17.4897 8.53904C16.0969 9.22169 14.8782 10.2134 13.9269 11.4386C12.9755 12.6637 12.3164 14.09 12 15.6086C11.6836 17.1271 11.7181 18.6979 12.101 20.2011L14.7677 24.8762L22.5 38.434L29.7823 24.1968L31.6926 20.4865L31.8362 20.2081C32.2191 18.7049 32.2536 17.1341 31.9372 15.6156C31.6207 14.097 30.9617 12.6707 30.0103 11.4456C29.0589 10.2204 27.8403 9.2287 26.4474 8.54605C25.0545 7.8634 23.5241 7.50785 21.973 7.50652L21.9642 7.49951ZM21.9747 12.3322C23.0346 12.3322 24.0708 12.6466 24.952 13.2355C25.8332 13.8245 26.52 14.6616 26.9253 15.641C27.3307 16.6203 27.4365 17.6979 27.2293 18.7374C27.0222 19.7769 26.5114 20.7316 25.7615 21.4807C25.0117 22.2298 24.0565 22.7397 23.0168 22.9458C21.9771 23.152 20.8996 23.0451 19.9207 22.6388C18.9417 22.2325 18.1053 21.5449 17.5172 20.6631C16.9291 19.7813 16.6157 18.7449 16.6167 17.6849C16.6181 16.2648 17.1832 14.9033 18.1879 13.8997C19.1926 12.896 20.5546 12.3322 21.9747 12.3322V12.3322Z" fill="white"/>
</svg>
