<svg width="483" height="135" viewBox="0 0 483 135" fill="none" xmlns="http://www.w3.org/2000/svg">
<g clip-path="url(#clip0)">
<path d="M129.471 1.26509H152.647V2.34039C151.364 2.34039 150.505 2.47244 150.072 2.73655C149.657 2.9818 149.326 3.29307 149.081 3.67037C148.836 4.04767 148.713 5.27389 148.713 7.34904V21.1016C148.713 23.1013 148.817 24.2992 149.025 24.6954C149.232 25.0727 149.553 25.4122 149.987 25.7141C150.439 25.9971 151.326 26.1385 152.647 26.1385V27.1855H139.234V26.1385C140.686 26.1385 141.686 26.0631 142.233 25.9122C142.799 25.7612 143.242 25.4028 143.563 24.8369C143.884 24.252 144.044 23.007 144.044 21.1016V3.10442H135.413V14.0272C135.413 18.1587 135.225 21.0639 134.848 22.7428C134.489 24.403 133.763 25.6386 132.669 26.4498C131.593 27.2421 130.358 27.6383 128.962 27.6383C126.547 27.6383 125.34 26.6385 125.34 24.6388C125.34 23.9596 125.528 23.4031 125.906 22.9692C126.302 22.5353 126.811 22.3184 127.434 22.3184C128.094 22.3184 128.707 22.5919 129.273 23.139C130.009 23.8559 130.565 24.2143 130.942 24.2143C131.791 24.2143 132.404 23.5069 132.782 22.092C133.178 20.6583 133.376 18.1587 133.376 14.5932V8.8771C133.376 5.93416 133.159 4.14199 132.725 3.50058C132.31 2.85918 131.225 2.47244 129.471 2.34039V1.26509ZM164.983 19.2057L176.189 6.24544C176.151 4.79283 175.878 3.78356 175.368 3.21761C174.859 2.65166 173.982 2.35925 172.737 2.34039V1.26509H184.791V2.34039C183.527 2.34039 182.678 2.47244 182.245 2.73655C181.811 2.9818 181.471 3.29307 181.226 3.67037C180.981 4.04767 180.858 5.27389 180.858 7.34904V21.1016C180.858 23.1013 180.962 24.2992 181.169 24.6954C181.377 25.0727 181.698 25.4122 182.131 25.7141C182.584 25.9971 183.471 26.1385 184.791 26.1385V27.1855H172.256V26.1385C173.821 26.1385 174.868 25.8556 175.397 25.2896C175.925 24.7048 176.189 23.3088 176.189 21.1016V8.9054L164.983 21.8939C165.021 23.4974 165.247 24.601 165.662 25.2047C166.077 25.8084 166.973 26.1197 168.351 26.1385V27.1855H156.381V26.1385C158.06 26.1385 159.135 25.8367 159.607 25.233C160.078 24.6105 160.314 23.2333 160.314 21.1016V7.34904C160.314 5.33049 160.21 4.14199 160.003 3.78356C159.795 3.40626 159.475 3.07612 159.041 2.79315C158.607 2.49131 157.72 2.34039 156.381 2.34039V1.26509H168.917V2.34039C167.653 2.34039 166.804 2.47244 166.37 2.73655C165.936 2.9818 165.596 3.29307 165.351 3.67037C165.106 4.04767 164.983 5.27389 164.983 7.34904V19.2057ZM197.156 12.8387H208.362V7.34904C208.362 5.70778 208.296 4.64191 208.164 4.15143C208.032 3.64207 207.702 3.21761 207.174 2.87804C206.664 2.51961 205.749 2.34039 204.429 2.34039V1.26509H216.964V2.34039C215.795 2.34039 214.936 2.47244 214.389 2.73655C213.861 3.00066 213.503 3.38739 213.314 3.89675C213.125 4.38724 213.031 5.538 213.031 7.34904V21.1016C213.031 22.7428 213.097 23.8276 213.229 24.3558C213.38 24.884 213.729 25.3179 214.276 25.6575C214.823 25.9782 215.719 26.1385 216.964 26.1385V27.1855H204.429V26.1385C205.994 26.1385 207.041 25.8556 207.57 25.2896C208.098 24.7048 208.362 23.3088 208.362 21.1016V14.6781H197.156V21.1016C197.156 22.7428 197.222 23.8276 197.354 24.3558C197.505 24.884 197.854 25.3179 198.401 25.6575C198.948 25.9782 199.844 26.1385 201.09 26.1385V27.1855H188.554V26.1385C190.233 26.1385 191.308 25.8367 191.78 25.233C192.251 24.6105 192.487 23.2333 192.487 21.1016V7.34904C192.487 5.70778 192.412 4.62305 192.261 4.09483C192.129 3.56661 191.789 3.14215 191.242 2.82145C190.695 2.50074 189.799 2.34039 188.554 2.34039V1.26509H201.09V2.34039C199.92 2.34039 199.062 2.47244 198.515 2.73655C197.986 3.00066 197.628 3.38739 197.439 3.89675C197.251 4.38724 197.156 5.538 197.156 7.34904V12.8387ZM229.329 19.2057L240.535 6.24544C240.497 4.79283 240.224 3.78356 239.714 3.21761C239.205 2.65166 238.328 2.35925 237.083 2.34039V1.26509H249.138V2.34039C247.874 2.34039 247.025 2.47244 246.591 2.73655C246.157 2.9818 245.817 3.29307 245.572 3.67037C245.327 4.04767 245.204 5.27389 245.204 7.34904V21.1016C245.204 23.1013 245.308 24.2992 245.515 24.6954C245.723 25.0727 246.044 25.4122 246.478 25.7141C246.93 25.9971 247.817 26.1385 249.138 26.1385V27.1855H236.602V26.1385C238.168 26.1385 239.215 25.8556 239.743 25.2896C240.271 24.7048 240.535 23.3088 240.535 21.1016V8.9054L229.329 21.8939C229.367 23.4974 229.593 24.601 230.008 25.2047C230.423 25.8084 231.32 26.1197 232.697 26.1385V27.1855H220.727V26.1385C222.406 26.1385 223.481 25.8367 223.953 25.233C224.424 24.6105 224.66 23.2333 224.66 21.1016V7.34904C224.66 5.33049 224.556 4.14199 224.349 3.78356C224.141 3.40626 223.821 3.07612 223.387 2.79315C222.953 2.49131 222.066 2.34039 220.727 2.34039V1.26509H233.263V2.34039C231.999 2.34039 231.15 2.47244 230.716 2.73655C230.282 2.9818 229.942 3.29307 229.697 3.67037C229.452 4.04767 229.329 5.27389 229.329 7.34904V19.2057ZM279.415 27.1855H271.774C269.397 23.7333 267.247 20.1961 265.323 16.574C264.87 15.7439 264.455 15.1308 264.077 14.7347C263.719 14.3196 263.219 14.1121 262.578 14.1121C262.351 14.1121 261.993 14.131 261.502 14.1687V21.1016C261.502 22.9692 261.606 24.1672 261.814 24.6954C262.04 25.2047 262.436 25.5726 263.002 25.799C263.568 26.0254 264.521 26.1385 265.86 26.1385V27.1855H252.9V26.1385C254.579 26.1385 255.654 25.8367 256.126 25.233C256.597 24.6105 256.833 23.2333 256.833 21.1016V7.34904C256.833 5.33049 256.73 4.14199 256.522 3.78356C256.314 3.40626 255.994 3.07612 255.56 2.79315C255.126 2.49131 254.239 2.34039 252.9 2.34039V1.26509H265.86V2.34039C264.294 2.34039 263.323 2.45358 262.946 2.67996C262.587 2.90634 262.257 3.18931 261.955 3.52888C261.653 3.84959 261.502 5.12297 261.502 7.34904V12.4426C261.936 12.4803 262.229 12.4992 262.38 12.4992C263.53 12.4992 264.606 12.1785 265.605 11.5371C266.624 10.8768 267.53 9.49021 268.322 7.37733C269.058 5.37765 269.661 4.0288 270.133 3.3308C270.624 2.6328 271.293 2.06685 272.142 1.63295C273.01 1.18019 273.916 0.953814 274.859 0.953814C275.877 0.953814 276.689 1.19906 277.292 1.68955C277.896 2.18004 278.198 2.82145 278.198 3.61377C278.198 4.27405 277.981 4.84 277.547 5.31162C277.113 5.76438 276.509 5.99076 275.736 5.99076C275.321 5.99076 274.802 5.87757 274.18 5.65119C273.387 5.36822 272.784 5.22673 272.369 5.22673C271.501 5.22673 270.784 5.97189 270.218 7.46223C269.577 9.17894 269.105 10.292 268.803 10.8013C268.501 11.2918 267.926 11.9521 267.077 12.7821C267.662 12.9519 268.294 13.3858 268.973 14.0838C269.671 14.7818 270.954 16.7721 272.821 20.0546C274.312 22.6768 275.425 24.3369 276.16 25.0349C276.915 25.7329 278 26.1008 279.415 26.1385V27.1855ZM296.533 23.4503C293.874 25.5066 292.204 26.6951 291.525 27.0158C290.506 27.4874 289.421 27.7232 288.271 27.7232C286.478 27.7232 284.998 27.1101 283.828 25.8839C282.677 24.6576 282.102 23.0447 282.102 21.045C282.102 19.781 282.385 18.6869 282.951 17.7625C283.724 16.4797 285.064 15.2723 286.969 14.1404C288.893 13.0085 292.081 11.6314 296.533 10.009V8.99029C296.533 6.40579 296.118 4.63248 295.288 3.67037C294.477 2.70826 293.289 2.2272 291.723 2.2272C290.534 2.2272 289.591 2.5479 288.893 3.18931C288.176 3.83072 287.818 4.56645 287.818 5.39651L287.874 7.03776C287.874 7.90555 287.648 8.57526 287.195 9.04688C286.761 9.51851 286.186 9.75432 285.469 9.75432C284.771 9.75432 284.196 9.50908 283.743 9.01859C283.309 8.5281 283.092 7.85839 283.092 7.00947C283.092 5.38708 283.922 3.89675 285.582 2.53847C287.242 1.18019 289.572 0.501055 292.572 0.501055C294.873 0.501055 296.76 0.887786 298.231 1.66125C299.344 2.24606 300.165 3.16101 300.693 4.4061C301.033 5.2173 301.203 6.87741 301.203 9.38645V18.187C301.203 20.6583 301.25 22.1769 301.344 22.7428C301.438 23.2899 301.589 23.6578 301.797 23.8464C302.023 24.0351 302.278 24.1294 302.561 24.1294C302.863 24.1294 303.127 24.0634 303.353 23.9313C303.749 23.6861 304.513 22.9975 305.645 21.8656V23.4503C303.532 26.28 301.514 27.6949 299.59 27.6949C298.665 27.6949 297.929 27.3742 297.382 26.7328C296.835 26.0914 296.552 24.9972 296.533 23.4503ZM296.533 21.6109V11.7351C293.685 12.867 291.846 13.6688 291.015 14.1404C289.525 14.9705 288.459 15.8383 287.818 16.7438C287.176 17.6493 286.856 18.6397 286.856 19.715C286.856 21.0733 287.261 22.2052 288.073 23.1107C288.884 23.9974 289.818 24.4407 290.874 24.4407C292.308 24.4407 294.194 23.4974 296.533 21.6109ZM332.497 19.2057L343.703 6.24544C343.665 4.79283 343.392 3.78356 342.882 3.21761C342.373 2.65166 341.496 2.35925 340.251 2.34039V1.26509H352.305V2.34039C351.042 2.34039 350.193 2.47244 349.759 2.73655C349.325 2.9818 348.985 3.29307 348.74 3.67037C348.495 4.04767 348.372 5.27389 348.372 7.34904V21.1016C348.372 23.1013 348.476 24.2992 348.683 24.6954C348.891 25.0727 349.212 25.4122 349.646 25.7141C350.098 25.9971 350.985 26.1385 352.305 26.1385V27.1855H339.77V26.1385C341.335 26.1385 342.383 25.8556 342.911 25.2896C343.439 24.7048 343.703 23.3088 343.703 21.1016V8.9054L332.497 21.8939C332.535 23.4974 332.761 24.601 333.176 25.2047C333.591 25.8084 334.488 26.1197 335.865 26.1385V27.1855H323.895V26.1385C325.574 26.1385 326.649 25.8367 327.121 25.233C327.592 24.6105 327.828 23.2333 327.828 21.1016V7.34904C327.828 5.33049 327.724 4.14199 327.517 3.78356C327.309 3.40626 326.989 3.07612 326.555 2.79315C326.121 2.49131 325.234 2.34039 323.895 2.34039V1.26509H336.431V2.34039C335.167 2.34039 334.318 2.47244 333.884 2.73655C333.45 2.9818 333.11 3.29307 332.865 3.67037C332.62 4.04767 332.497 5.27389 332.497 7.34904V19.2057ZM373.329 20.4225L381.422 1.26509H390.166V2.34039C388.884 2.34039 388.025 2.47244 387.591 2.73655C387.176 2.9818 386.846 3.29307 386.601 3.67037C386.356 4.04767 386.233 5.27389 386.233 7.34904V21.1016C386.233 22.8938 386.318 24.054 386.488 24.5822C386.676 25.0915 387.044 25.4783 387.591 25.7424C388.157 26.0065 389.016 26.1385 390.166 26.1385V27.1855H377.631V26.1385C379.177 26.1385 380.215 25.8556 380.743 25.2896C381.271 24.7048 381.536 23.3088 381.536 21.1016V5.5097L372.367 27.1855H371.377L362.039 5.5097V21.1016C362.039 22.8938 362.133 24.054 362.322 24.5822C362.51 25.0915 362.878 25.4783 363.425 25.7424C363.972 26.0065 364.821 26.1385 365.972 26.1385V27.1855H356.068V26.1385C357.747 26.1385 358.822 25.8367 359.294 25.233C359.765 24.6105 360.001 23.2333 360.001 21.1016V7.34904C360.001 5.33049 359.897 4.14199 359.69 3.78356C359.482 3.40626 359.162 3.07612 358.728 2.79315C358.294 2.49131 357.407 2.34039 356.068 2.34039V1.26509H365.18L373.329 20.4225ZM398.768 11.0277C398.749 14.8762 399.683 17.8946 401.569 20.0829C403.456 22.2712 405.672 23.3654 408.219 23.3654C409.917 23.3654 411.388 22.9032 412.633 21.9788C413.897 21.0356 414.954 19.432 415.803 17.1683L416.68 17.7342C416.284 20.3187 415.133 22.6768 413.228 24.8086C411.322 26.9214 408.936 27.9779 406.068 27.9779C402.956 27.9779 400.286 26.7705 398.06 24.3558C395.853 21.9222 394.749 18.6586 394.749 14.5649C394.749 10.1316 395.881 6.67933 398.145 4.20802C400.428 1.71784 403.286 0.472757 406.719 0.472757C409.624 0.472757 412.011 1.43487 413.878 3.3591C415.746 5.26446 416.68 7.82066 416.68 11.0277H398.768ZM398.768 9.38645H410.766C410.671 7.72634 410.473 6.55671 410.171 5.87757C409.7 4.82113 408.992 3.99107 408.049 3.38739C407.125 2.78372 406.153 2.48188 405.135 2.48188C403.569 2.48188 402.163 3.09499 400.918 4.32121C399.692 5.52857 398.975 7.21698 398.768 9.38645ZM429.413 12.8387H440.618V7.34904C440.618 5.70778 440.552 4.64191 440.42 4.15143C440.288 3.64207 439.958 3.21761 439.43 2.87804C438.921 2.51961 438.006 2.34039 436.685 2.34039V1.26509H449.221V2.34039C448.051 2.34039 447.193 2.47244 446.646 2.73655C446.118 3.00066 445.759 3.38739 445.57 3.89675C445.382 4.38724 445.287 5.538 445.287 7.34904V21.1016C445.287 22.7428 445.354 23.8276 445.486 24.3558C445.636 24.884 445.985 25.3179 446.533 25.6575C447.08 25.9782 447.976 26.1385 449.221 26.1385V27.1855H436.685V26.1385C438.251 26.1385 439.298 25.8556 439.826 25.2896C440.354 24.7048 440.618 23.3088 440.618 21.1016V14.6781H429.413V21.1016C429.413 22.7428 429.479 23.8276 429.611 24.3558C429.762 24.884 430.111 25.3179 430.658 25.6575C431.205 25.9782 432.101 26.1385 433.346 26.1385V27.1855H420.81V26.1385C422.489 26.1385 423.564 25.8367 424.036 25.233C424.508 24.6105 424.744 23.2333 424.744 21.1016V7.34904C424.744 5.70778 424.668 4.62305 424.517 4.09483C424.385 3.56661 424.046 3.14215 423.498 2.82145C422.951 2.50074 422.055 2.34039 420.81 2.34039V1.26509H433.346V2.34039C432.176 2.34039 431.318 2.47244 430.771 2.73655C430.243 3.00066 429.884 3.38739 429.696 3.89675C429.507 4.38724 429.413 5.538 429.413 7.34904V12.8387ZM461.586 19.2057L472.791 6.24544C472.754 4.79283 472.48 3.78356 471.971 3.21761C471.461 2.65166 470.584 2.35925 469.339 2.34039V1.26509H481.394V2.34039C480.13 2.34039 479.281 2.47244 478.847 2.73655C478.413 2.9818 478.074 3.29307 477.828 3.67037C477.583 4.04767 477.461 5.27389 477.461 7.34904V21.1016C477.461 23.1013 477.564 24.2992 477.772 24.6954C477.979 25.0727 478.3 25.4122 478.734 25.7141C479.187 25.9971 480.073 26.1385 481.394 26.1385V27.1855H468.858V26.1385C470.424 26.1385 471.471 25.8556 471.999 25.2896C472.527 24.7048 472.791 23.3088 472.791 21.1016V8.9054L461.586 21.8939C461.623 23.4974 461.85 24.601 462.265 25.2047C462.68 25.8084 463.576 26.1197 464.953 26.1385V27.1855H452.983V26.1385C454.662 26.1385 455.738 25.8367 456.209 25.233C456.681 24.6105 456.917 23.2333 456.917 21.1016V7.34904C456.917 5.33049 456.813 4.14199 456.605 3.78356C456.398 3.40626 456.077 3.07612 455.643 2.79315C455.209 2.49131 454.323 2.34039 452.983 2.34039V1.26509H465.519V2.34039C464.255 2.34039 463.406 2.47244 462.972 2.73655C462.538 2.9818 462.199 3.29307 461.954 3.67037C461.708 4.04767 461.586 5.27389 461.586 7.34904V19.2057Z" fill="white"/>
<path d="M126.408 127.45V131H92.8223C89.1758 125.179 81.4992 114.207 69.7922 98.0862C58.0852 81.9012 50.9523 72.945 48.3934 71.2178C45.8345 69.4265 41.9642 68.4989 36.7824 68.435V107.298C36.7824 115.871 37.87 121.308 40.045 123.611C42.2841 125.914 47.4658 127.194 55.5903 127.45V131H-0.44953V127.45C7.54702 127.194 12.6648 125.946 14.9039 123.707C17.2069 121.404 18.3584 115.934 18.3584 107.298V24.5819C18.3584 16.0096 17.2388 10.5719 14.9998 8.26889C12.7608 5.96588 7.611 4.68643 -0.44953 4.43054V0.88007H55.5903V4.43054C47.4658 4.68643 42.2841 5.96588 40.045 8.26889C37.87 10.5719 36.7824 16.0096 36.7824 24.5819V60.8542C43.7554 60.7903 48.5853 60.3424 51.2722 59.5108C53.959 58.6152 56.9657 56.632 60.2923 53.5614C63.6828 50.4907 66.3377 47.1961 68.2569 43.6776C70.24 40.0952 72.7669 34.2417 75.8376 26.1172C78.7164 18.5045 81.0514 13.2268 82.8426 10.284C84.6978 7.27731 87.6405 4.71842 91.6708 2.60733C95.701 0.432263 100.499 -0.655268 106.065 -0.655268C115.916 -0.655268 120.842 2.79924 120.842 9.70827C120.842 12.1392 119.851 14.2503 117.867 16.0415C115.948 17.8328 113.741 18.7284 111.246 18.7284C109.455 18.7284 106.448 17.7048 102.226 15.6577C98.5158 13.8025 95.9249 12.8749 94.4536 12.8749C92.4065 12.8749 90.6472 13.9624 89.1758 16.1375C87.7045 18.2486 85.3695 23.6862 82.1709 32.4505C76.0295 48.8274 68.1929 59.2229 58.661 63.637C64.4825 64.6606 72.543 72.6252 82.8426 87.5307C93.7819 103.332 101.81 113.887 106.928 119.197C112.046 124.507 118.539 127.258 126.408 127.45Z" fill="white"/>
<path d="M143.711 72.3196H136.421V83.0849C136.421 85.1927 136.691 86.6037 137.231 87.3179C137.771 88.0321 138.93 88.3892 140.706 88.3892H141.516V89.356H126.335V88.3892H127.407C128.382 88.3892 129.192 88.215 129.837 87.8666C130.481 87.5182 130.899 87.0653 131.091 86.5079C131.3 85.9504 131.404 84.8094 131.404 83.0849V60.1955C131.404 58.5058 131.291 57.3561 131.065 56.7464C130.856 56.1368 130.429 55.6751 129.784 55.3616C129.157 55.048 128.277 54.8913 127.145 54.8913H126.335V53.9245H141.516V54.8913H140.706C139.435 54.8913 138.529 55.0655 137.989 55.4138C137.449 55.7448 137.048 56.1542 136.787 56.6419C136.543 57.1123 136.421 58.2968 136.421 60.1955V70.4121H143.711C143.955 65.2908 145.802 61.1275 149.251 57.9223C152.717 54.7171 156.767 53.1145 161.401 53.1145C165.86 53.1145 169.806 54.8303 173.238 58.262C176.669 61.6936 178.385 66.0921 178.385 71.4573C178.385 76.5961 176.739 81.0033 173.447 84.6788C170.172 88.3369 166.008 90.166 160.957 90.166C157.682 90.166 154.781 89.3995 152.256 87.8666C149.73 86.3337 147.692 84.2085 146.141 81.491C144.591 78.7561 143.781 75.699 143.711 72.3196ZM160.904 55.0219C157.525 55.0219 154.808 56.4242 152.752 59.2287C150.697 62.0159 149.669 66.0746 149.669 71.405C149.669 76.3871 150.627 80.4545 152.543 83.6075C154.477 86.743 157.272 88.3108 160.931 88.3108C164.484 88.3108 167.28 86.9346 169.318 84.1823C171.374 81.4126 172.401 77.3974 172.401 72.1367C172.401 66.8063 171.435 62.6256 169.501 59.5946C167.585 56.5461 164.719 55.0219 160.904 55.0219ZM187.06 84.2869C187.879 84.2869 188.567 84.5743 189.124 85.1491C189.682 85.7065 189.96 86.3859 189.96 87.1872C189.96 87.9885 189.673 88.6766 189.098 89.2514C188.541 89.8089 187.861 90.0876 187.06 90.0876C186.259 90.0876 185.571 89.8089 184.996 89.2514C184.438 88.6766 184.16 87.9885 184.16 87.1872C184.16 86.3685 184.438 85.6804 184.996 85.123C185.571 84.5656 186.259 84.2869 187.06 84.2869ZM204.75 70.3599H221.211V60.2217C221.211 58.41 221.098 57.2168 220.871 56.6419C220.697 56.2064 220.331 55.8319 219.774 55.5184C219.025 55.1003 218.232 54.8913 217.396 54.8913H216.142V53.9245H231.297V54.8913H230.043C229.207 54.8913 228.414 55.0916 227.665 55.4922C227.108 55.7709 226.724 56.1977 226.515 56.7726C226.324 57.33 226.228 58.4797 226.228 60.2217V83.0849C226.228 84.8791 226.341 86.0637 226.568 86.6385C226.742 87.074 227.099 87.4485 227.639 87.7621C228.405 88.1801 229.207 88.3892 230.043 88.3892H231.297V89.356H216.142V88.3892H217.396C218.842 88.3892 219.896 87.9624 220.558 87.1088C220.993 86.5514 221.211 85.2101 221.211 83.0849V72.2934H204.75V83.0849C204.75 84.8791 204.863 86.0637 205.089 86.6385C205.263 87.074 205.629 87.4485 206.187 87.7621C206.936 88.1801 207.728 88.3892 208.564 88.3892H209.845V89.356H194.664V88.3892H195.918C197.381 88.3892 198.444 87.9624 199.106 87.1088C199.524 86.5514 199.733 85.2101 199.733 83.0849V60.2217C199.733 58.41 199.62 57.2168 199.393 56.6419C199.219 56.2064 198.862 55.8319 198.322 55.5184C197.555 55.1003 196.754 54.8913 195.918 54.8913H194.664V53.9245H209.845V54.8913H208.564C207.728 54.8913 206.936 55.0916 206.187 55.4922C205.647 55.7709 205.272 56.1977 205.063 56.7726C204.854 57.33 204.75 58.4797 204.75 60.2217V70.3599ZM239.11 84.2869C239.928 84.2869 240.617 84.5743 241.174 85.1491C241.731 85.7065 242.01 86.3859 242.01 87.1872C242.01 87.9885 241.723 88.6766 241.148 89.2514C240.59 89.8089 239.911 90.0876 239.11 90.0876C238.308 90.0876 237.62 89.8089 237.046 89.2514C236.488 88.6766 236.209 87.9885 236.209 87.1872C236.209 86.3685 236.488 85.6804 237.046 85.123C237.62 84.5656 238.308 84.2869 239.11 84.2869ZM281.309 88.3892V89.356H272.163C271.171 87.7708 269.08 84.7833 265.892 80.3936C262.705 75.9864 260.762 73.5477 260.066 73.0773C259.369 72.5896 258.315 72.337 256.904 72.3196V82.902C256.904 85.2362 257.2 86.7169 257.792 87.344C258.402 87.9711 259.813 88.3195 262.025 88.3892V89.356H246.766V88.3892C248.943 88.3195 250.337 87.9798 250.946 87.3701C251.573 86.743 251.887 85.2536 251.887 82.902V60.3784C251.887 58.0442 251.582 56.5635 250.973 55.9364C250.363 55.3093 248.961 54.9609 246.766 54.8913V53.9245H262.025V54.8913C259.813 54.9609 258.402 55.3093 257.792 55.9364C257.2 56.5635 256.904 58.0442 256.904 60.3784V70.2554C258.803 70.2379 260.118 70.116 260.849 69.8895C261.581 69.6457 262.4 69.1057 263.306 68.2695C264.229 67.4334 264.952 66.5363 265.474 65.5782C266.014 64.6027 266.702 63.0088 267.539 60.7965C268.322 58.7236 268.958 57.2865 269.446 56.4852C269.951 55.6664 270.752 54.9696 271.85 54.3948C272.947 53.8025 274.254 53.5064 275.769 53.5064C278.452 53.5064 279.793 54.4471 279.793 56.3284C279.793 56.9903 279.523 57.5652 278.983 58.0529C278.461 58.5407 277.86 58.7845 277.18 58.7845C276.693 58.7845 275.874 58.5058 274.724 57.9484C273.714 57.4432 273.008 57.1906 272.608 57.1906C272.05 57.1906 271.571 57.4868 271.171 58.079C270.77 58.6539 270.134 60.1346 269.263 62.521C267.591 66.9805 265.457 69.8112 262.861 71.0131C264.447 71.2918 266.641 73.4606 269.446 77.5193C272.425 81.822 274.611 84.6962 276.004 86.142C277.398 87.5879 279.166 88.3369 281.309 88.3892ZM295.994 85.9069C293.537 87.8056 291.996 88.903 291.369 89.1992C290.428 89.6347 289.426 89.8524 288.364 89.8524C286.709 89.8524 285.341 89.2863 284.261 88.154C283.199 87.0217 282.668 85.5324 282.668 83.6859C282.668 82.5188 282.929 81.5084 283.451 80.6549C284.166 79.4703 285.402 78.3555 287.162 77.3103C288.939 76.2651 291.882 74.9935 295.994 73.4954V72.5547C295.994 70.1683 295.61 68.5308 294.844 67.6424C294.095 66.754 292.997 66.3098 291.552 66.3098C290.454 66.3098 289.583 66.6059 288.939 67.1982C288.277 67.7905 287.946 68.4698 287.946 69.2363L287.998 70.7518C287.998 71.5531 287.789 72.1715 287.371 72.607C286.97 73.0425 286.439 73.2602 285.777 73.2602C285.132 73.2602 284.601 73.0338 284.183 72.5809C283.782 72.128 283.582 71.5096 283.582 70.7257C283.582 69.2276 284.348 67.8514 285.881 66.5972C287.414 65.343 289.566 64.7159 292.335 64.7159C294.461 64.7159 296.203 65.073 297.561 65.7872C298.589 66.3272 299.347 67.1721 299.835 68.3218C300.148 69.0708 300.305 70.6037 300.305 72.9206V81.0468C300.305 83.3288 300.348 84.7311 300.436 85.2536C300.523 85.7588 300.662 86.0985 300.854 86.2727C301.063 86.4469 301.298 86.534 301.559 86.534C301.838 86.534 302.082 86.473 302.291 86.3511C302.657 86.1246 303.362 85.4888 304.407 84.4436V85.9069C302.456 88.5198 300.592 89.8263 298.815 89.8263C297.962 89.8263 297.283 89.5302 296.777 88.9379C296.272 88.3456 296.011 87.3353 295.994 85.9069ZM295.994 84.2085V75.0893C293.363 76.1345 291.665 76.8748 290.898 77.3103C289.522 78.0768 288.538 78.8781 287.946 79.7142C287.353 80.5503 287.057 81.4649 287.057 82.4578C287.057 83.712 287.432 84.7572 288.181 85.5933C288.93 86.412 289.792 86.8214 290.768 86.8214C292.092 86.8214 293.833 85.9504 295.994 84.2085ZM326.539 80.2629C325.894 83.4159 324.631 85.8459 322.75 87.553C320.869 89.2427 318.787 90.0876 316.505 90.0876C313.788 90.0876 311.419 88.9466 309.398 86.6646C307.377 84.3827 306.367 81.2994 306.367 77.4148C306.367 73.6522 307.482 70.595 309.711 68.2434C311.959 65.8917 314.65 64.7159 317.785 64.7159C320.137 64.7159 322.071 65.343 323.586 66.5972C325.102 67.834 325.859 69.1231 325.859 70.4644C325.859 71.1263 325.642 71.6663 325.206 72.0844C324.788 72.4851 324.196 72.6854 323.429 72.6854C322.402 72.6854 321.626 72.3544 321.104 71.6925C320.808 71.3267 320.607 70.6299 320.503 69.6021C320.416 68.5744 320.067 67.7905 319.458 67.2505C318.848 66.7279 318.003 66.4666 316.923 66.4666C315.181 66.4666 313.779 67.1111 312.716 68.4002C311.305 70.1073 310.6 72.3631 310.6 75.1677C310.6 78.0245 311.297 80.5503 312.69 82.7452C314.101 84.9227 316 86.0114 318.386 86.0114C320.094 86.0114 321.626 85.4278 322.985 84.2607C323.943 83.4594 324.875 82.0049 325.781 79.8971L326.539 80.2629ZM344.228 85.9069C341.772 87.8056 340.231 88.903 339.603 89.1992C338.663 89.6347 337.661 89.8524 336.599 89.8524C334.944 89.8524 333.576 89.2863 332.496 88.154C331.434 87.0217 330.902 85.5324 330.902 83.6859C330.902 82.5188 331.164 81.5084 331.686 80.6549C332.4 79.4703 333.637 78.3555 335.397 77.3103C337.173 76.2651 340.117 74.9935 344.228 73.4954V72.5547C344.228 70.1683 343.845 68.5308 343.079 67.6424C342.33 66.754 341.232 66.3098 339.786 66.3098C338.689 66.3098 337.818 66.6059 337.173 67.1982C336.512 67.7905 336.181 68.4698 336.181 69.2363L336.233 70.7518C336.233 71.5531 336.024 72.1715 335.606 72.607C335.205 73.0425 334.674 73.2602 334.012 73.2602C333.367 73.2602 332.836 73.0338 332.418 72.5809C332.017 72.128 331.817 71.5096 331.817 70.7257C331.817 69.2276 332.583 67.8514 334.116 66.5972C335.649 65.343 337.801 64.7159 340.57 64.7159C342.695 64.7159 344.437 65.073 345.796 65.7872C346.824 66.3272 347.582 67.1721 348.069 68.3218C348.383 69.0708 348.54 70.6037 348.54 72.9206V81.0468C348.54 83.3288 348.583 84.7311 348.67 85.2536C348.757 85.7588 348.897 86.0985 349.088 86.2727C349.298 86.4469 349.533 86.534 349.794 86.534C350.073 86.534 350.317 86.473 350.526 86.3511C350.891 86.1246 351.597 85.4888 352.642 84.4436V85.9069C350.691 88.5198 348.827 89.8263 347.05 89.8263C346.197 89.8263 345.517 89.5302 345.012 88.9379C344.507 88.3456 344.246 87.3353 344.228 85.9069ZM344.228 84.2085V75.0893C341.598 76.1345 339.9 76.8748 339.133 77.3103C337.757 78.0768 336.773 78.8781 336.181 79.7142C335.588 80.5503 335.292 81.4649 335.292 82.4578C335.292 83.712 335.667 84.7572 336.416 85.5933C337.165 86.412 338.027 86.8214 339.003 86.8214C340.326 86.8214 342.068 85.9504 344.228 84.2085ZM352.668 65.4214H373.363L374.408 71.9015H373.232C373.023 70.595 372.675 69.5847 372.187 68.8705C371.699 68.1563 371.142 67.686 370.515 67.4595C369.887 67.2331 368.816 67.1198 367.301 67.1198H365.21V83.7381C365.21 85.5149 365.315 86.6472 365.524 87.135C365.75 87.6053 366.107 87.9188 366.595 88.0756C367.083 88.2324 368.198 88.3369 369.94 88.3892V89.356H356.927V88.3892C358.6 88.3543 359.671 88.0843 360.141 87.5792C360.629 87.074 360.873 85.7936 360.873 83.7381V67.1198H358.73C357.232 67.1198 356.213 67.2156 355.673 67.4072C355.133 67.5814 354.61 68.0169 354.105 68.7137C353.618 69.3931 353.199 70.4557 352.851 71.9015H351.675L352.668 65.4214ZM400.459 89.356H393.404C391.209 86.1682 389.223 82.902 387.446 79.5574C387.028 78.791 386.645 78.2248 386.297 77.859C385.966 77.4758 385.504 77.2842 384.912 77.2842C384.703 77.2842 384.372 77.3016 383.919 77.3364V83.7381C383.919 85.4627 384.015 86.5688 384.206 87.0566C384.415 87.5269 384.781 87.8666 385.304 88.0756C385.826 88.2847 386.706 88.3892 387.943 88.3892V89.356H375.976V88.3892C377.526 88.3892 378.519 88.1105 378.954 87.553C379.39 86.9782 379.608 85.7065 379.608 83.7381V71.0392C379.608 69.1753 379.512 68.0779 379.32 67.7469C379.129 67.3985 378.832 67.0937 378.432 66.8324C378.031 66.5537 377.212 66.4143 375.976 66.4143V65.4214H387.943V66.4143C386.497 66.4143 385.6 66.5188 385.252 66.7279C384.921 66.9369 384.616 67.1982 384.337 67.5118C384.058 67.8079 383.919 68.9837 383.919 71.0392V75.7425C384.32 75.7774 384.59 75.7948 384.729 75.7948C385.792 75.7948 386.785 75.4987 387.708 74.9064C388.648 74.2967 389.485 73.0164 390.216 71.0654C390.896 69.2189 391.453 67.9734 391.888 67.3289C392.341 66.6843 392.96 66.1617 393.744 65.7611C394.545 65.343 395.381 65.134 396.252 65.134C397.193 65.134 397.942 65.3604 398.499 65.8134C399.057 66.2663 399.335 66.8585 399.335 67.5902C399.335 68.1998 399.135 68.7224 398.734 69.1579C398.334 69.576 397.776 69.785 397.062 69.785C396.679 69.785 396.2 69.6805 395.625 69.4715C394.893 69.2102 394.336 69.0795 393.953 69.0795C393.151 69.0795 392.489 69.7676 391.967 71.1438C391.375 72.7289 390.939 73.7567 390.66 74.227C390.382 74.6799 389.85 75.2896 389.066 76.0561C389.606 76.2129 390.19 76.6135 390.817 77.258C391.462 77.9026 392.646 79.7403 394.371 82.7713C395.747 85.1927 396.775 86.7256 397.454 87.3701C398.151 88.0146 399.152 88.3543 400.459 88.3892V89.356ZM409.944 81.9875L420.291 70.0202C420.256 68.6789 420.004 67.7469 419.533 67.2243C419.063 66.7018 418.253 66.4318 417.103 66.4143V65.4214H428.234V66.4143C427.067 66.4143 426.283 66.5363 425.883 66.7801C425.482 67.0066 425.169 67.294 424.942 67.6424C424.716 67.9908 424.602 69.1231 424.602 71.0392V83.7381C424.602 85.5846 424.698 86.6908 424.89 87.0566C425.082 87.405 425.378 87.7185 425.778 87.9972C426.196 88.2585 427.015 88.3892 428.234 88.3892V89.356H416.659V88.3892C418.105 88.3892 419.072 88.1279 419.56 87.6053C420.047 87.0653 420.291 85.7762 420.291 83.7381V72.4764L409.944 84.4698C409.979 85.9504 410.188 86.9695 410.571 87.5269C410.954 88.0843 411.782 88.3717 413.053 88.3892V89.356H402.001V88.3892C403.551 88.3892 404.544 88.1105 404.979 87.553C405.415 86.9782 405.633 85.7065 405.633 83.7381V71.0392C405.633 69.1753 405.537 68.0779 405.345 67.7469C405.153 67.3985 404.857 67.0937 404.457 66.8324C404.056 66.5537 403.237 66.4143 402.001 66.4143V65.4214H413.576V66.4143C412.409 66.4143 411.625 66.5363 411.224 66.7801C410.824 67.0066 410.51 67.294 410.284 67.6424C410.057 67.9908 409.944 69.1231 409.944 71.0392V81.9875ZM438.582 76.1083H448.929V71.0392C448.929 69.5237 448.868 68.5395 448.746 68.0866C448.624 67.6163 448.319 67.2243 447.832 66.9108C447.361 66.5798 446.516 66.4143 445.297 66.4143V65.4214H456.872V66.4143C455.792 66.4143 455 66.5363 454.495 66.7801C454.007 67.024 453.676 67.3811 453.502 67.8514C453.327 68.3044 453.24 69.367 453.24 71.0392V83.7381C453.24 85.2536 453.301 86.2553 453.423 86.743C453.563 87.2308 453.885 87.6314 454.39 87.945C454.895 88.2411 455.723 88.3892 456.872 88.3892V89.356H445.297V88.3892C446.743 88.3892 447.71 88.1279 448.197 87.6053C448.685 87.0653 448.929 85.7762 448.929 83.7381V77.8068H438.582V83.7381C438.582 85.2536 438.643 86.2553 438.765 86.743C438.904 87.2308 439.226 87.6314 439.731 87.945C440.237 88.2411 441.064 88.3892 442.214 88.3892V89.356H430.638V88.3892C432.189 88.3892 433.182 88.1105 433.617 87.553C434.053 86.9782 434.27 85.7065 434.27 83.7381V71.0392C434.27 69.5237 434.201 68.5221 434.061 68.0344C433.939 67.5466 433.626 67.1547 433.121 66.8585C432.616 66.5624 431.788 66.4143 430.638 66.4143V65.4214H442.214V66.4143C441.134 66.4143 440.341 66.5363 439.836 66.7801C439.348 67.024 439.017 67.3811 438.843 67.8514C438.669 68.3044 438.582 69.367 438.582 71.0392V76.1083ZM473.308 85.9069C470.852 87.8056 469.31 88.903 468.683 89.1992C467.742 89.6347 466.741 89.8524 465.678 89.8524C464.023 89.8524 462.656 89.2863 461.576 88.154C460.513 87.0217 459.982 85.5324 459.982 83.6859C459.982 82.5188 460.243 81.5084 460.766 80.6549C461.48 79.4703 462.717 78.3555 464.476 77.3103C466.253 76.2651 469.197 74.9935 473.308 73.4954V72.5547C473.308 70.1683 472.924 68.5308 472.158 67.6424C471.409 66.754 470.312 66.3098 468.866 66.3098C467.768 66.3098 466.897 66.6059 466.253 67.1982C465.591 67.7905 465.26 68.4698 465.26 69.2363L465.312 70.7518C465.312 71.5531 465.103 72.1715 464.685 72.607C464.284 73.0425 463.753 73.2602 463.091 73.2602C462.447 73.2602 461.915 73.0338 461.497 72.5809C461.097 72.128 460.896 71.5096 460.896 70.7257C460.896 69.2276 461.663 67.8514 463.196 66.5972C464.729 65.343 466.88 64.7159 469.65 64.7159C471.775 64.7159 473.517 65.073 474.875 65.7872C475.903 66.3272 476.661 67.1721 477.149 68.3218C477.462 69.0708 477.619 70.6037 477.619 72.9206V81.0468C477.619 83.3288 477.663 84.7311 477.75 85.2536C477.837 85.7588 477.976 86.0985 478.168 86.2727C478.377 86.4469 478.612 86.534 478.873 86.534C479.152 86.534 479.396 86.473 479.605 86.3511C479.971 86.1246 480.676 85.4888 481.721 84.4436V85.9069C479.77 88.5198 477.906 89.8263 476.13 89.8263C475.276 89.8263 474.597 89.5302 474.092 88.9379C473.586 88.3456 473.325 87.3353 473.308 85.9069ZM473.308 84.2085V75.0893C470.677 76.1345 468.979 76.8748 468.212 77.3103C466.836 78.0768 465.852 78.8781 465.26 79.7142C464.668 80.5503 464.371 81.4649 464.371 82.4578C464.371 83.712 464.746 84.7572 465.495 85.5933C466.244 86.412 467.106 86.8214 468.082 86.8214C469.406 86.8214 471.148 85.9504 473.308 84.2085Z" fill="white"/>
<path d="M145.395 130.685H140.603V130.382C141.231 130.371 141.652 130.286 141.865 130.128C142.083 129.97 142.198 129.642 142.209 129.145C140.363 129.145 139.031 128.758 138.212 127.982C137.398 127.207 136.991 126.238 136.991 125.075C136.991 124.201 137.231 123.455 137.712 122.838C138.198 122.221 138.796 121.796 139.506 121.561C140.215 121.32 141.116 121.2 142.209 121.2C142.198 120.742 142.127 120.439 141.996 120.291C141.865 120.144 141.717 120.043 141.553 119.988C141.395 119.928 141.078 119.893 140.603 119.882V119.579H145.395V119.882C144.75 119.904 144.327 120.002 144.125 120.177C143.923 120.346 143.808 120.687 143.781 121.2C144.961 121.2 145.889 121.329 146.566 121.585C147.243 121.842 147.819 122.268 148.294 122.863C148.769 123.458 149.007 124.195 149.007 125.075C149.007 126.205 148.611 127.166 147.819 127.958C147.027 128.749 145.681 129.145 143.781 129.145C143.798 129.637 143.909 129.964 144.117 130.128C144.33 130.286 144.756 130.371 145.395 130.382V130.685ZM143.781 128.539C144.584 128.539 145.223 128.435 145.698 128.228C146.178 128.015 146.574 127.635 146.885 127.089C147.202 126.543 147.36 125.869 147.36 125.066C147.36 124.313 147.202 123.677 146.885 123.158C146.569 122.634 146.17 122.279 145.69 122.093C145.214 121.902 144.578 121.806 143.781 121.806V128.539ZM142.209 128.539V121.806C141.362 121.806 140.71 121.91 140.251 122.118C139.792 122.32 139.407 122.666 139.096 123.158C138.79 123.649 138.637 124.285 138.637 125.066C138.637 125.924 138.818 126.636 139.178 127.204C139.544 127.772 139.973 128.138 140.464 128.302C140.955 128.46 141.537 128.539 142.209 128.539ZM158.668 119.579L158.709 122.175H158.389C158.367 121.651 158.255 121.23 158.053 120.914C157.851 120.597 157.603 120.398 157.308 120.316C157.019 120.228 156.598 120.185 156.047 120.185H152.934V128.662C152.934 129.394 153.027 129.858 153.213 130.054C153.404 130.251 153.841 130.36 154.523 130.382V130.685H149.756V130.382C150.444 130.36 150.884 130.251 151.075 130.054C151.266 129.858 151.362 129.394 151.362 128.662V121.602C151.362 120.87 151.266 120.406 151.075 120.209C150.884 120.013 150.444 119.904 149.756 119.882V119.579H158.668ZM167.248 119.579L167.362 122.003H167.067C166.893 121.217 166.622 120.717 166.256 120.504C165.896 120.291 165.252 120.185 164.323 120.185H162.456V124.583H162.898C164.258 124.583 165.257 124.67 165.896 124.845C166.535 125.014 167.054 125.342 167.452 125.828C167.856 126.314 168.058 126.898 168.058 127.581C168.058 128.405 167.753 129.129 167.141 129.751C166.529 130.374 165.476 130.685 163.979 130.685H159.278V130.382C159.966 130.36 160.406 130.251 160.597 130.054C160.788 129.858 160.883 129.394 160.883 128.662V121.602C160.883 121.039 160.842 120.66 160.761 120.463C160.684 120.267 160.556 120.127 160.376 120.045C160.195 119.964 159.862 119.909 159.376 119.882V119.579H167.248ZM162.456 130.022C162.937 130.098 163.311 130.136 163.578 130.136C164.25 130.136 164.856 129.912 165.396 129.465C165.942 129.017 166.215 128.397 166.215 127.605C166.215 126.786 165.932 126.18 165.364 125.787C164.796 125.388 164.075 125.189 163.201 125.189C162.956 125.189 162.707 125.211 162.456 125.255V130.022ZM174.468 119.325C175.909 119.325 177.157 119.873 178.211 120.971C179.27 122.063 179.8 123.428 179.8 125.066C179.8 126.754 179.267 128.154 178.203 129.268C177.138 130.382 175.849 130.939 174.337 130.939C172.808 130.939 171.522 130.396 170.479 129.309C169.441 128.222 168.923 126.816 168.923 125.091C168.923 123.327 169.523 121.888 170.725 120.774C171.768 119.808 173.015 119.325 174.468 119.325ZM174.312 119.923C173.318 119.923 172.521 120.291 171.92 121.028C171.172 121.946 170.798 123.289 170.798 125.058C170.798 126.871 171.186 128.266 171.961 129.244C172.557 129.986 173.343 130.357 174.32 130.357C175.363 130.357 176.223 129.951 176.9 129.137C177.583 128.323 177.924 127.04 177.924 125.287C177.924 123.387 177.55 121.97 176.802 121.037C176.201 120.294 175.371 119.923 174.312 119.923ZM179.55 119.579H184.055V119.882C183.263 119.914 182.867 120.127 182.867 120.521C182.867 120.799 183.159 121.449 183.744 122.47L186.168 126.729L187.937 122.47C188.309 121.574 188.494 120.974 188.494 120.668C188.494 120.242 188.15 119.98 187.462 119.882V119.579H190.943V119.882C190.124 119.98 189.502 120.537 189.076 121.553L186.954 126.598C186.403 127.892 185.955 128.812 185.611 129.358C185.267 129.904 184.89 130.306 184.481 130.562C184.077 130.813 183.656 130.939 183.219 130.939C182.843 130.939 182.523 130.857 182.261 130.693C182.005 130.535 181.876 130.316 181.876 130.038C181.876 129.836 181.944 129.669 182.081 129.538C182.217 129.402 182.403 129.334 182.638 129.334C182.867 129.334 183.14 129.426 183.457 129.612C183.67 129.727 183.831 129.784 183.94 129.784C184.372 129.784 184.855 129.336 185.39 128.441L181.36 121.356C181.076 120.859 180.806 120.507 180.549 120.299C180.298 120.092 179.965 119.953 179.55 119.882V119.579ZM197.046 119.579H206.211V119.882C205.523 119.904 205.083 120.013 204.892 120.209C204.701 120.406 204.605 120.87 204.605 121.602V127.753C204.605 128.943 204.674 129.68 204.81 129.964C204.947 130.243 205.389 130.382 206.137 130.382V133.879H205.859C205.695 133.071 205.43 132.419 205.064 131.922C204.704 131.43 204.291 131.1 203.827 130.931C203.369 130.767 202.817 130.685 202.173 130.685H199.339C198.099 130.685 197.187 131.021 196.603 131.693C196.024 132.364 195.678 133.093 195.563 133.879H195.285V130.382C196.164 130.306 196.879 129.779 197.43 128.801C197.982 127.824 198.364 126.625 198.577 125.206C198.79 123.78 198.897 122.612 198.897 121.7C198.897 121.154 198.828 120.753 198.692 120.496C198.555 120.239 198.392 120.078 198.2 120.013C198.015 119.947 197.63 119.904 197.046 119.882V119.579ZM199.716 120.185C199.579 123.423 199.32 125.694 198.938 126.999C198.555 128.304 198.042 129.331 197.398 130.079H201.509C202.241 130.079 202.678 130.016 202.82 129.891C202.967 129.76 203.041 129.342 203.041 128.637V120.185H199.716ZM214.987 120.185H209.835V128.662C209.835 129.394 209.928 129.858 210.114 130.054C210.305 130.251 210.747 130.36 211.441 130.382V130.685H206.657V130.382C207.345 130.36 207.785 130.251 207.976 130.054C208.167 129.858 208.263 129.394 208.263 128.662V121.602C208.263 120.87 208.167 120.406 207.976 120.209C207.785 120.013 207.345 119.904 206.657 119.882V119.579H218.165V119.882C217.477 119.904 217.038 120.013 216.846 120.209C216.655 120.406 216.56 120.87 216.56 121.602V128.662C216.56 129.394 216.655 129.858 216.846 130.054C217.038 130.251 217.477 130.36 218.165 130.382V130.685H213.39V130.382C214.073 130.36 214.509 130.254 214.7 130.063C214.892 129.866 214.987 129.399 214.987 128.662V120.185ZM224.443 119.325C225.885 119.325 227.133 119.873 228.186 120.971C229.246 122.063 229.775 123.428 229.775 125.066C229.775 126.754 229.243 128.154 228.178 129.268C227.113 130.382 225.825 130.939 224.312 130.939C222.783 130.939 221.497 130.396 220.455 129.309C219.417 128.222 218.898 126.816 218.898 125.091C218.898 123.327 219.499 121.888 220.7 120.774C221.743 119.808 222.991 119.325 224.443 119.325ZM224.288 119.923C223.294 119.923 222.497 120.291 221.896 121.028C221.148 121.946 220.774 123.289 220.774 125.058C220.774 126.871 221.162 128.266 221.937 129.244C222.532 129.986 223.319 130.357 224.296 130.357C225.339 130.357 226.199 129.951 226.876 129.137C227.559 128.323 227.9 127.04 227.9 125.287C227.9 123.387 227.526 121.97 226.778 121.037C226.177 120.294 225.347 119.923 224.288 119.923ZM237.729 125.484V128.719C237.729 129.418 237.805 129.852 237.958 130.022C238.166 130.262 238.48 130.382 238.9 130.382H239.326V130.685H234.567V130.382H234.985C235.455 130.382 235.79 130.229 235.992 129.923C236.102 129.754 236.156 129.353 236.156 128.719V121.544C236.156 120.845 236.083 120.411 235.935 120.242C235.722 120.002 235.405 119.882 234.985 119.882H234.567V119.579H238.638C239.632 119.579 240.415 119.682 240.989 119.89C241.562 120.092 242.045 120.436 242.438 120.922C242.832 121.408 243.028 121.984 243.028 122.65C243.028 123.557 242.728 124.294 242.127 124.862C241.532 125.429 240.688 125.713 239.596 125.713C239.329 125.713 239.039 125.694 238.728 125.656C238.417 125.618 238.084 125.56 237.729 125.484ZM237.729 125.017C238.018 125.072 238.275 125.113 238.499 125.14C238.723 125.167 238.914 125.181 239.072 125.181C239.64 125.181 240.129 124.963 240.538 124.526C240.953 124.083 241.161 123.513 241.161 122.814C241.161 122.333 241.062 121.888 240.866 121.479C240.669 121.064 240.391 120.755 240.03 120.553C239.67 120.346 239.26 120.242 238.802 120.242C238.523 120.242 238.166 120.294 237.729 120.398V125.017ZM250.322 130.685L246.03 121.34V128.76C246.03 129.443 246.104 129.869 246.251 130.038C246.453 130.267 246.773 130.382 247.21 130.382H247.603V130.685H243.737V130.382H244.13C244.6 130.382 244.933 130.24 245.129 129.956C245.249 129.781 245.309 129.383 245.309 128.76V121.503C245.309 121.012 245.255 120.657 245.146 120.439C245.069 120.28 244.927 120.149 244.72 120.045C244.518 119.936 244.19 119.882 243.737 119.882V119.579H246.882L250.912 128.269L254.876 119.579H258.021V119.882H257.636C257.161 119.882 256.825 120.024 256.629 120.308C256.509 120.482 256.449 120.881 256.449 121.503V128.76C256.449 129.443 256.525 129.869 256.678 130.038C256.88 130.267 257.199 130.382 257.636 130.382H258.021V130.685H253.303V130.382H253.697C254.172 130.382 254.505 130.24 254.696 129.956C254.816 129.781 254.876 129.383 254.876 128.76V121.34L250.592 130.685H250.322ZM265.888 126.967H261.588L260.835 128.719C260.649 129.151 260.556 129.473 260.556 129.686C260.556 129.855 260.636 130.005 260.794 130.136C260.958 130.262 261.307 130.344 261.842 130.382V130.685H258.345V130.382C258.809 130.3 259.109 130.194 259.246 130.063C259.524 129.8 259.833 129.268 260.171 128.465L264.078 119.325H264.365L268.231 128.564C268.542 129.306 268.823 129.79 269.075 130.013C269.331 130.232 269.686 130.355 270.139 130.382V130.685H265.757V130.382C266.2 130.36 266.497 130.286 266.65 130.161C266.808 130.035 266.888 129.882 266.888 129.702C266.888 129.462 266.778 129.082 266.56 128.564L265.888 126.967ZM265.659 126.36L263.775 121.872L261.842 126.36H265.659ZM273.616 124.731H278.776V121.553C278.776 120.985 278.741 120.611 278.67 120.43C278.615 120.294 278.501 120.177 278.326 120.078C278.091 119.947 277.843 119.882 277.581 119.882H277.187V119.579H281.938V119.882H281.545C281.283 119.882 281.034 119.944 280.8 120.07C280.625 120.157 280.505 120.291 280.439 120.471C280.379 120.646 280.349 121.007 280.349 121.553V128.719C280.349 129.282 280.385 129.653 280.456 129.833C280.51 129.97 280.622 130.087 280.791 130.185C281.032 130.316 281.283 130.382 281.545 130.382H281.938V130.685H277.187V130.382H277.581C278.034 130.382 278.364 130.248 278.572 129.981C278.708 129.806 278.776 129.385 278.776 128.719V125.337H273.616V128.719C273.616 129.282 273.652 129.653 273.723 129.833C273.777 129.97 273.892 130.087 274.067 130.185C274.302 130.316 274.55 130.382 274.812 130.382H275.214V130.685H270.455V130.382H270.848C271.307 130.382 271.64 130.248 271.847 129.981C271.978 129.806 272.044 129.385 272.044 128.719V121.553C272.044 120.985 272.008 120.611 271.937 120.43C271.883 120.294 271.771 120.177 271.602 120.078C271.361 119.947 271.11 119.882 270.848 119.882H270.455V119.579H275.214V119.882H274.812C274.55 119.882 274.302 119.944 274.067 120.07C273.898 120.157 273.78 120.291 273.715 120.471C273.649 120.646 273.616 121.007 273.616 121.553V124.731ZM290.755 120.185H285.603V128.662C285.603 129.394 285.696 129.858 285.882 130.054C286.073 130.251 286.515 130.36 287.209 130.382V130.685H282.426V130.382C283.114 130.36 283.553 130.251 283.744 130.054C283.935 129.858 284.031 129.394 284.031 128.662V121.602C284.031 120.87 283.935 120.406 283.744 120.209C283.553 120.013 283.114 119.904 282.426 119.882V119.579H293.933V119.882C293.245 119.904 292.806 120.013 292.615 120.209C292.424 120.406 292.328 120.87 292.328 121.602V128.662C292.328 129.394 292.424 129.858 292.615 130.054C292.806 130.251 293.245 130.36 293.933 130.382V130.685H289.158V130.382C289.841 130.36 290.278 130.254 290.469 130.063C290.66 129.866 290.755 129.399 290.755 128.662V120.185ZM300.212 119.325C301.653 119.325 302.901 119.873 303.955 120.971C305.014 122.063 305.544 123.428 305.544 125.066C305.544 126.754 305.011 128.154 303.946 129.268C302.882 130.382 301.593 130.939 300.081 130.939C298.552 130.939 297.266 130.396 296.223 129.309C295.185 128.222 294.667 126.816 294.667 125.091C294.667 123.327 295.267 121.888 296.468 120.774C297.511 119.808 298.759 119.325 300.212 119.325ZM300.056 119.923C299.062 119.923 298.265 120.291 297.664 121.028C296.916 121.946 296.542 123.289 296.542 125.058C296.542 126.871 296.93 128.266 297.705 129.244C298.3 129.986 299.087 130.357 300.064 130.357C301.107 130.357 301.967 129.951 302.644 129.137C303.327 128.323 303.668 127.04 303.668 125.287C303.668 123.387 303.294 121.97 302.546 121.037C301.945 120.294 301.115 119.923 300.056 119.923ZM316.921 130.685L312.629 121.34V128.76C312.629 129.443 312.703 129.869 312.85 130.038C313.052 130.267 313.371 130.382 313.808 130.382H314.201V130.685H310.335V130.382H310.729C311.198 130.382 311.531 130.24 311.728 129.956C311.848 129.781 311.908 129.383 311.908 128.76V121.503C311.908 121.012 311.853 120.657 311.744 120.439C311.668 120.28 311.526 120.149 311.318 120.045C311.116 119.936 310.789 119.882 310.335 119.882V119.579H313.481L317.51 128.269L321.475 119.579H324.62V119.882H324.235C323.76 119.882 323.424 120.024 323.227 120.308C323.107 120.482 323.047 120.881 323.047 121.503V128.76C323.047 129.443 323.124 129.869 323.277 130.038C323.479 130.267 323.798 130.382 324.235 130.382H324.62V130.685H319.902V130.382H320.295C320.77 130.382 321.103 130.24 321.294 129.956C321.415 129.781 321.475 129.383 321.475 128.76V121.34L317.191 130.685H316.921ZM333.445 121.413C333.445 120.747 333.336 120.327 333.118 120.152C332.905 119.972 332.471 119.882 331.815 119.882V119.579H336.623V119.882C335.935 119.904 335.496 120.013 335.305 120.209C335.114 120.406 335.018 120.87 335.018 121.602V128.662C335.018 129.394 335.114 129.858 335.305 130.054C335.496 130.251 335.935 130.36 336.623 130.382V130.685H331.815V130.382C332.52 130.36 332.968 130.251 333.159 130.054C333.35 129.852 333.445 129.388 333.445 128.662V122.29L328.293 128.891C328.299 129.366 328.329 129.686 328.384 129.85C328.444 130.008 328.577 130.134 328.785 130.226C328.998 130.319 329.372 130.371 329.907 130.382V130.685H325.116V130.382C325.804 130.36 326.243 130.251 326.434 130.054C326.625 129.858 326.721 129.394 326.721 128.662V121.602C326.721 120.87 326.625 120.406 326.434 120.209C326.243 120.013 325.804 119.904 325.116 119.882V119.579H329.907V119.882C329.214 119.904 328.771 120.013 328.58 120.209C328.389 120.406 328.293 120.87 328.293 121.602V127.999L333.445 121.413ZM340.215 124.731H345.375V121.553C345.375 120.985 345.34 120.611 345.269 120.43C345.214 120.294 345.099 120.177 344.925 120.078C344.69 119.947 344.441 119.882 344.179 119.882H343.786V119.579H348.537V119.882H348.144C347.881 119.882 347.633 119.944 347.398 120.07C347.223 120.157 347.103 120.291 347.038 120.471C346.978 120.646 346.948 121.007 346.948 121.553V128.719C346.948 129.282 346.983 129.653 347.054 129.833C347.109 129.97 347.221 130.087 347.39 130.185C347.63 130.316 347.881 130.382 348.144 130.382H348.537V130.685H343.786V130.382H344.179C344.633 130.382 344.963 130.248 345.17 129.981C345.307 129.806 345.375 129.385 345.375 128.719V125.337H340.215V128.719C340.215 129.282 340.251 129.653 340.322 129.833C340.376 129.97 340.491 130.087 340.666 130.185C340.9 130.316 341.149 130.382 341.411 130.382H341.812V130.685H337.053V130.382H337.447C337.905 130.382 338.238 130.248 338.446 129.981C338.577 129.806 338.642 129.385 338.642 128.719V121.553C338.642 120.985 338.607 120.611 338.536 120.43C338.481 120.294 338.369 120.177 338.2 120.078C337.96 119.947 337.709 119.882 337.447 119.882H337.053V119.579H341.812V119.882H341.411C341.149 119.882 340.9 119.944 340.666 120.07C340.496 120.157 340.379 120.291 340.313 120.471C340.248 120.646 340.215 121.007 340.215 121.553V124.731ZM349.557 122.568V119.341H349.843C349.931 119.701 350.133 119.882 350.449 119.882C350.569 119.882 350.826 119.808 351.219 119.661C351.836 119.437 352.483 119.325 353.16 119.325C354.078 119.325 354.815 119.6 355.372 120.152C355.929 120.703 356.207 121.348 356.207 122.085C356.207 122.757 355.997 123.333 355.577 123.813C355.156 124.288 354.599 124.638 353.906 124.862C354.659 124.998 355.268 125.342 355.732 125.894C356.196 126.44 356.428 127.084 356.428 127.827C356.428 128.744 356.074 129.492 355.364 130.071C354.654 130.65 353.772 130.939 352.718 130.939C351.151 130.939 349.936 130.196 349.073 128.711L349.352 128.531C349.63 128.984 350.034 129.375 350.564 129.702C351.094 130.03 351.664 130.194 352.276 130.194C353.002 130.194 353.565 129.953 353.963 129.473C354.367 128.987 354.569 128.394 354.569 127.695C354.569 126.975 354.315 126.366 353.808 125.869C353.3 125.372 352.459 125.124 351.285 125.124V124.583C352.115 124.583 352.74 124.496 353.16 124.321C353.581 124.146 353.922 123.862 354.184 123.469C354.446 123.076 354.577 122.62 354.577 122.101C354.577 121.501 354.394 121.009 354.029 120.627C353.663 120.245 353.166 120.054 352.538 120.054C351.757 120.054 351.146 120.286 350.703 120.75C350.266 121.209 349.98 121.815 349.843 122.568H349.557ZM357.899 119.579H367.064V119.882C366.376 119.904 365.937 120.013 365.745 120.209C365.554 120.406 365.459 120.87 365.459 121.602V127.753C365.459 128.943 365.527 129.68 365.664 129.964C365.8 130.243 366.242 130.382 366.99 130.382V133.879H366.712C366.548 133.071 366.283 132.419 365.917 131.922C365.557 131.43 365.145 131.1 364.681 130.931C364.222 130.767 363.67 130.685 363.026 130.685H360.192C358.953 130.685 358.041 131.021 357.457 131.693C356.878 132.364 356.531 133.093 356.416 133.879H356.138V130.382C357.017 130.306 357.732 129.779 358.284 128.801C358.835 127.824 359.218 126.625 359.43 125.206C359.643 123.78 359.75 122.612 359.75 121.7C359.75 121.154 359.682 120.753 359.545 120.496C359.409 120.239 359.245 120.078 359.054 120.013C358.868 119.947 358.483 119.904 357.899 119.882V119.579ZM360.569 120.185C360.432 123.423 360.173 125.694 359.791 126.999C359.409 128.304 358.895 129.331 358.251 130.079H362.363C363.094 130.079 363.531 130.016 363.673 129.891C363.821 129.76 363.894 129.342 363.894 128.637V120.185H360.569ZM370.648 125.484V128.719C370.648 129.418 370.724 129.852 370.877 130.022C371.085 130.262 371.398 130.382 371.819 130.382H372.245V130.685H367.486V130.382H367.904C368.373 130.382 368.709 130.229 368.911 129.923C369.02 129.754 369.075 129.353 369.075 128.719V121.544C369.075 120.845 369.001 120.411 368.854 120.242C368.641 120.002 368.324 119.882 367.904 119.882H367.486V119.579H371.557C372.551 119.579 373.334 119.682 373.908 119.89C374.481 120.092 374.964 120.436 375.357 120.922C375.75 121.408 375.947 121.984 375.947 122.65C375.947 123.557 375.647 124.294 375.046 124.862C374.451 125.429 373.607 125.713 372.515 125.713C372.248 125.713 371.958 125.694 371.647 125.656C371.336 125.618 371.003 125.56 370.648 125.484ZM370.648 125.017C370.937 125.072 371.194 125.113 371.418 125.14C371.641 125.167 371.833 125.181 371.991 125.181C372.559 125.181 373.048 124.963 373.457 124.526C373.872 124.083 374.08 123.513 374.08 122.814C374.08 122.333 373.981 121.888 373.785 121.479C373.588 121.064 373.31 120.755 372.949 120.553C372.589 120.346 372.179 120.242 371.721 120.242C371.442 120.242 371.085 120.294 370.648 120.398V125.017ZM381.906 126.967H377.606L376.852 128.719C376.667 129.151 376.574 129.473 376.574 129.686C376.574 129.855 376.653 130.005 376.811 130.136C376.975 130.262 377.325 130.344 377.86 130.382V130.685H374.362V130.382C374.826 130.3 375.127 130.194 375.263 130.063C375.542 129.8 375.85 129.268 376.189 128.465L380.096 119.325H380.382L384.248 128.564C384.56 129.306 384.841 129.79 385.092 130.013C385.349 130.232 385.704 130.355 386.157 130.382V130.685H381.775V130.382C382.217 130.36 382.515 130.286 382.668 130.161C382.826 130.035 382.905 129.882 382.905 129.702C382.905 129.462 382.796 129.082 382.577 128.564L381.906 126.967ZM381.676 126.36L379.793 121.872L377.86 126.36H381.676ZM393.934 125.017C394.704 125.181 395.28 125.443 395.662 125.803C396.192 126.306 396.457 126.92 396.457 127.646C396.457 128.198 396.282 128.728 395.932 129.235C395.583 129.738 395.102 130.106 394.491 130.341C393.885 130.57 392.956 130.685 391.706 130.685H386.464V130.382H386.882C387.346 130.382 387.679 130.235 387.881 129.94C388.007 129.749 388.069 129.342 388.069 128.719V121.544C388.069 120.856 387.99 120.422 387.832 120.242C387.619 120.002 387.302 119.882 386.882 119.882H386.464V119.579H391.264C392.159 119.579 392.877 119.644 393.418 119.775C394.237 119.972 394.862 120.321 395.293 120.824C395.725 121.32 395.941 121.894 395.941 122.544C395.941 123.101 395.771 123.6 395.433 124.042C395.094 124.479 394.595 124.804 393.934 125.017ZM389.642 124.575C389.844 124.613 390.073 124.643 390.33 124.665C390.592 124.681 390.879 124.69 391.19 124.69C391.987 124.69 392.585 124.605 392.984 124.436C393.388 124.261 393.696 123.996 393.909 123.641C394.122 123.286 394.229 122.899 394.229 122.478C394.229 121.828 393.964 121.274 393.434 120.815C392.905 120.357 392.132 120.127 391.116 120.127C390.57 120.127 390.079 120.187 389.642 120.308V124.575ZM389.642 129.882C390.275 130.03 390.901 130.104 391.518 130.104C392.506 130.104 393.259 129.882 393.778 129.44C394.297 128.992 394.556 128.441 394.556 127.786C394.556 127.354 394.439 126.939 394.204 126.541C393.969 126.142 393.587 125.828 393.057 125.599C392.528 125.369 391.873 125.255 391.092 125.255C390.753 125.255 390.464 125.26 390.224 125.271C389.983 125.282 389.789 125.301 389.642 125.328V129.882ZM403.816 126.967H399.516L398.762 128.719C398.577 129.151 398.484 129.473 398.484 129.686C398.484 129.855 398.563 130.005 398.721 130.136C398.885 130.262 399.235 130.344 399.77 130.382V130.685H396.272V130.382C396.737 130.3 397.037 130.194 397.173 130.063C397.452 129.8 397.76 129.268 398.099 128.465L402.006 119.325H402.293L406.158 128.564C406.47 129.306 406.751 129.79 407.002 130.013C407.259 130.232 407.614 130.355 408.067 130.382V130.685H403.685V130.382C404.127 130.36 404.425 130.286 404.578 130.161C404.736 130.035 404.815 129.882 404.815 129.702C404.815 129.462 404.706 129.082 404.488 128.564L403.816 126.967ZM403.587 126.36L401.703 121.872L399.77 126.36H403.587ZM415.562 125.484V128.719C415.562 129.418 415.638 129.852 415.791 130.022C415.998 130.262 416.312 130.382 416.733 130.382H417.159V130.685H412.4V130.382H412.818C413.287 130.382 413.623 130.229 413.825 129.923C413.934 129.754 413.989 129.353 413.989 128.719V121.544C413.989 120.845 413.915 120.411 413.768 120.242C413.555 120.002 413.238 119.882 412.818 119.882H412.4V119.579H416.471C417.465 119.579 418.248 119.682 418.821 119.89C419.395 120.092 419.878 120.436 420.271 120.922C420.664 121.408 420.861 121.984 420.861 122.65C420.861 123.557 420.561 124.294 419.96 124.862C419.365 125.429 418.521 125.713 417.429 125.713C417.161 125.713 416.872 125.694 416.561 125.656C416.25 125.618 415.917 125.56 415.562 125.484ZM415.562 125.017C415.851 125.072 416.108 125.113 416.332 125.14C416.555 125.167 416.747 125.181 416.905 125.181C417.473 125.181 417.961 124.963 418.371 124.526C418.786 124.083 418.993 123.513 418.993 122.814C418.993 122.333 418.895 121.888 418.699 121.479C418.502 121.064 418.224 120.755 417.863 120.553C417.503 120.346 417.093 120.242 416.635 120.242C416.356 120.242 415.998 120.294 415.562 120.398V125.017ZM427.639 119.325C429.08 119.325 430.328 119.873 431.382 120.971C432.441 122.063 432.971 123.428 432.971 125.066C432.971 126.754 432.438 128.154 431.374 129.268C430.309 130.382 429.02 130.939 427.508 130.939C425.979 130.939 424.693 130.396 423.65 129.309C422.612 128.222 422.094 126.816 422.094 125.091C422.094 123.327 422.694 121.888 423.896 120.774C424.939 119.808 426.186 119.325 427.639 119.325ZM427.483 119.923C426.489 119.923 425.692 120.291 425.092 121.028C424.343 121.946 423.969 123.289 423.969 125.058C423.969 126.871 424.357 128.266 425.132 129.244C425.728 129.986 426.514 130.357 427.491 130.357C428.534 130.357 429.394 129.951 430.071 129.137C430.754 128.323 431.095 127.04 431.095 125.287C431.095 123.387 430.721 121.97 429.973 121.037C429.372 120.294 428.542 119.923 427.483 119.923ZM443.77 119.325L444.024 123.101H443.77C443.432 121.97 442.949 121.157 442.321 120.66C441.693 120.163 440.939 119.914 440.06 119.914C439.323 119.914 438.657 120.103 438.061 120.48C437.466 120.851 436.997 121.446 436.653 122.265C436.314 123.084 436.145 124.103 436.145 125.32C436.145 126.325 436.306 127.196 436.628 127.933C436.95 128.67 437.434 129.235 438.078 129.628C438.728 130.022 439.468 130.218 440.298 130.218C441.018 130.218 441.654 130.065 442.206 129.76C442.757 129.448 443.364 128.834 444.024 127.917L444.278 128.08C443.721 129.069 443.071 129.792 442.329 130.251C441.586 130.71 440.704 130.939 439.683 130.939C437.843 130.939 436.418 130.256 435.408 128.891C434.654 127.876 434.277 126.68 434.277 125.304C434.277 124.195 434.526 123.177 435.023 122.249C435.52 121.32 436.202 120.602 437.07 120.095C437.944 119.581 438.897 119.325 439.929 119.325C440.732 119.325 441.523 119.521 442.304 119.914C442.534 120.035 442.697 120.095 442.796 120.095C442.943 120.095 443.071 120.043 443.181 119.939C443.323 119.792 443.424 119.587 443.484 119.325H443.77ZM454.791 119.325L455.045 123.101H454.791C454.452 121.97 453.969 121.157 453.341 120.66C452.713 120.163 451.96 119.914 451.081 119.914C450.343 119.914 449.677 120.103 449.082 120.48C448.487 120.851 448.017 121.446 447.673 122.265C447.335 123.084 447.165 124.103 447.165 125.32C447.165 126.325 447.327 127.196 447.649 127.933C447.971 128.67 448.454 129.235 449.098 129.628C449.748 130.022 450.488 130.218 451.318 130.218C452.039 130.218 452.675 130.065 453.227 129.76C453.778 129.448 454.384 128.834 455.045 127.917L455.299 128.08C454.742 129.069 454.092 129.792 453.349 130.251C452.607 130.71 451.725 130.939 450.704 130.939C448.864 130.939 447.439 130.256 446.428 128.891C445.675 127.876 445.298 126.68 445.298 125.304C445.298 124.195 445.546 123.177 446.043 122.249C446.54 121.32 447.223 120.602 448.091 120.095C448.965 119.581 449.918 119.325 450.95 119.325C451.752 119.325 452.544 119.521 453.325 119.914C453.554 120.035 453.718 120.095 453.816 120.095C453.964 120.095 454.092 120.043 454.201 119.939C454.343 119.792 454.444 119.587 454.504 119.325H454.791ZM464.345 121.413C464.345 120.747 464.236 120.327 464.018 120.152C463.805 119.972 463.371 119.882 462.715 119.882V119.579H467.523V119.882C466.835 119.904 466.396 120.013 466.205 120.209C466.014 120.406 465.918 120.87 465.918 121.602V128.662C465.918 129.394 466.014 129.858 466.205 130.054C466.396 130.251 466.835 130.36 467.523 130.382V130.685H462.715V130.382C463.42 130.36 463.868 130.251 464.059 130.054C464.25 129.852 464.345 129.388 464.345 128.662V122.29L459.194 128.891C459.199 129.366 459.229 129.686 459.284 129.85C459.344 130.008 459.477 130.134 459.685 130.226C459.898 130.319 460.272 130.371 460.807 130.382V130.685H456.016V130.382C456.704 130.36 457.143 130.251 457.334 130.054C457.525 129.858 457.621 129.394 457.621 128.662V121.602C457.621 120.87 457.525 120.406 457.334 120.209C457.143 120.013 456.704 119.904 456.016 119.882V119.579H460.807V119.882C460.114 119.904 459.671 120.013 459.48 120.209C459.289 120.406 459.194 120.87 459.194 121.602V127.999L464.345 121.413ZM476.3 121.413C476.3 120.747 476.191 120.327 475.972 120.152C475.759 119.972 475.325 119.882 474.67 119.882V119.579H479.478V119.882C478.79 119.904 478.35 120.013 478.159 120.209C477.968 120.406 477.872 120.87 477.872 121.602V128.662C477.872 129.394 477.968 129.858 478.159 130.054C478.35 130.251 478.79 130.36 479.478 130.382V130.685H474.67V130.382C475.374 130.36 475.822 130.251 476.013 130.054C476.204 129.852 476.3 129.388 476.3 128.662V122.29L471.148 128.891C471.153 129.366 471.183 129.686 471.238 129.85C471.298 130.008 471.432 130.134 471.639 130.226C471.852 130.319 472.226 130.371 472.761 130.382V130.685H467.97V130.382C468.658 130.36 469.097 130.251 469.289 130.054C469.48 129.858 469.575 129.394 469.575 128.662V121.602C469.575 120.87 469.48 120.406 469.289 120.209C469.097 120.013 468.658 119.904 467.97 119.882V119.579H472.761V119.882C472.068 119.904 471.626 120.013 471.435 120.209C471.243 120.406 471.148 120.87 471.148 121.602V127.999L476.3 121.413Z" fill="#DBBEA4"/>
</g>
<defs>
<clipPath id="clip0">
<rect width="483" height="135" fill="white"/>
</clipPath>
</defs>
</svg>
