<svg width="403" height="112" viewBox="0 0 403 112" fill="none" xmlns="http://www.w3.org/2000/svg">
<g clip-path="url(#clip0)">
<path d="M108.027 0.956279H127.364V1.85348C126.293 1.85348 125.577 1.96366 125.215 2.18403C124.869 2.38865 124.593 2.64836 124.389 2.96317C124.184 3.27798 124.082 4.3011 124.082 6.03254V17.5072C124.082 19.1757 124.168 20.1752 124.341 20.5058C124.515 20.8206 124.782 21.1039 125.144 21.3558C125.522 21.5919 126.262 21.7099 127.364 21.7099V22.5835H116.172V21.7099C117.384 21.7099 118.218 21.6469 118.675 21.521C119.147 21.3951 119.517 21.096 119.785 20.6238C120.052 20.1359 120.186 19.097 120.186 17.5072V2.49096H112.985V11.6046C112.985 15.0517 112.827 17.4758 112.513 18.8766C112.213 20.2618 111.607 21.2928 110.695 21.9696C109.797 22.6307 108.766 22.9613 107.602 22.9613C105.587 22.9613 104.579 22.127 104.579 20.4586C104.579 19.8919 104.737 19.4276 105.052 19.0655C105.382 18.7035 105.807 18.5225 106.327 18.5225C106.877 18.5225 107.389 18.7507 107.861 19.2072C108.475 19.8053 108.939 20.1044 109.254 20.1044C109.963 20.1044 110.474 19.5141 110.789 18.3336C111.12 17.1373 111.285 15.0517 111.285 12.0768V7.3075C111.285 4.85201 111.104 3.35668 110.742 2.82151C110.395 2.28634 109.49 1.96366 108.027 1.85348V0.956279ZM137.657 15.9253L147.007 5.11173C146.975 3.89972 146.747 3.05761 146.322 2.5854C145.897 2.11319 145.165 1.86922 144.126 1.85348V0.956279H154.184V1.85348C153.13 1.85348 152.421 1.96366 152.059 2.18403C151.697 2.38865 151.414 2.64836 151.209 2.96317C151.005 3.27798 150.902 4.3011 150.902 6.03254V17.5072C150.902 19.1757 150.989 20.1752 151.162 20.5058C151.335 20.8206 151.603 21.1039 151.965 21.3558C152.343 21.5919 153.082 21.7099 154.184 21.7099V22.5835H143.725V21.7099C145.031 21.7099 145.905 21.4738 146.345 21.0016C146.786 20.5136 147.007 19.3489 147.007 17.5072V7.33111L137.657 18.1683C137.688 19.5063 137.877 20.4271 138.223 20.9308C138.57 21.4345 139.317 21.6942 140.466 21.7099V22.5835H130.479V21.7099C131.88 21.7099 132.777 21.4581 133.171 20.9544C133.564 20.4349 133.761 19.2859 133.761 17.5072V6.03254C133.761 4.34832 133.674 3.35668 133.501 3.05761C133.328 2.74281 133.061 2.46735 132.699 2.23125C132.337 1.9794 131.597 1.85348 130.479 1.85348V0.956279H140.939V1.85348C139.884 1.85348 139.176 1.96366 138.814 2.18403C138.452 2.38865 138.168 2.64836 137.964 2.96317C137.759 3.27798 137.657 4.3011 137.657 6.03254V15.9253ZM164.501 10.613H173.851V6.03254C173.851 4.66313 173.796 3.7738 173.685 3.36455C173.575 2.93956 173.3 2.5854 172.859 2.30208C172.434 2.00301 171.671 1.85348 170.569 1.85348V0.956279H181.028V1.85348C180.052 1.85348 179.336 1.96366 178.88 2.18403C178.439 2.40439 178.14 2.72707 177.983 3.15206C177.825 3.5613 177.746 4.52146 177.746 6.03254V17.5072C177.746 18.8766 177.802 19.7817 177.912 20.2224C178.038 20.6632 178.329 21.0252 178.785 21.3085C179.242 21.5761 179.989 21.7099 181.028 21.7099V22.5835H170.569V21.7099C171.875 21.7099 172.749 21.4738 173.19 21.0016C173.63 20.5136 173.851 19.3489 173.851 17.5072V12.1477H164.501V17.5072C164.501 18.8766 164.556 19.7817 164.666 20.2224C164.792 20.6632 165.083 21.0252 165.54 21.3085C165.996 21.5761 166.744 21.7099 167.783 21.7099V22.5835H157.323V21.7099C158.724 21.7099 159.621 21.4581 160.015 20.9544C160.408 20.4349 160.605 19.2859 160.605 17.5072V6.03254C160.605 4.66313 160.542 3.75806 160.416 3.31733C160.306 2.8766 160.023 2.52244 159.566 2.25486C159.11 1.98727 158.362 1.85348 157.323 1.85348V0.956279H167.783V1.85348C166.807 1.85348 166.091 1.96366 165.634 2.18403C165.194 2.40439 164.894 2.72707 164.737 3.15206C164.58 3.5613 164.501 4.52146 164.501 6.03254V10.613ZM191.345 15.9253L200.695 5.11173C200.663 3.89972 200.435 3.05761 200.01 2.5854C199.585 2.11319 198.853 1.86922 197.814 1.85348V0.956279H207.873V1.85348C206.818 1.85348 206.11 1.96366 205.748 2.18403C205.386 2.38865 205.102 2.64836 204.898 2.96317C204.693 3.27798 204.591 4.3011 204.591 6.03254V17.5072C204.591 19.1757 204.677 20.1752 204.85 20.5058C205.024 20.8206 205.291 21.1039 205.653 21.3558C206.031 21.5919 206.771 21.7099 207.873 21.7099V22.5835H197.413V21.7099C198.72 21.7099 199.593 21.4738 200.034 21.0016C200.475 20.5136 200.695 19.3489 200.695 17.5072V7.33111L191.345 18.1683C191.377 19.5063 191.566 20.4271 191.912 20.9308C192.258 21.4345 193.006 21.6942 194.155 21.7099V22.5835H184.168V21.7099C185.568 21.7099 186.466 21.4581 186.859 20.9544C187.253 20.4349 187.449 19.2859 187.449 17.5072V6.03254C187.449 4.34832 187.363 3.35668 187.19 3.05761C187.017 2.74281 186.749 2.46735 186.387 2.23125C186.025 1.9794 185.285 1.85348 184.168 1.85348V0.956279H194.627V1.85348C193.572 1.85348 192.864 1.96366 192.502 2.18403C192.14 2.38865 191.857 2.64836 191.652 2.96317C191.447 3.27798 191.345 4.3011 191.345 6.03254V15.9253ZM233.135 22.5835H226.76C224.777 19.703 222.982 16.7517 221.377 13.7296C220.999 13.037 220.653 12.5254 220.338 12.1949C220.039 11.8486 219.622 11.6754 219.087 11.6754C218.898 11.6754 218.599 11.6912 218.189 11.7227V17.5072C218.189 19.0655 218.276 20.065 218.449 20.5058C218.638 20.9308 218.968 21.2377 219.441 21.4266C219.913 21.6155 220.708 21.7099 221.825 21.7099V22.5835H211.012V21.7099C212.413 21.7099 213.31 21.4581 213.703 20.9544C214.097 20.4349 214.294 19.2859 214.294 17.5072V6.03254C214.294 4.34832 214.207 3.35668 214.034 3.05761C213.861 2.74281 213.593 2.46735 213.231 2.23125C212.869 1.9794 212.129 1.85348 211.012 1.85348V0.956279H221.825V1.85348C220.519 1.85348 219.708 1.94792 219.393 2.1368C219.094 2.32569 218.819 2.56179 218.567 2.84512C218.315 3.1127 218.189 4.17518 218.189 6.03254V10.2824C218.551 10.3139 218.795 10.3296 218.921 10.3296C219.881 10.3296 220.779 10.0621 221.613 9.52689C222.463 8.97598 223.218 7.81906 223.879 6.05615C224.493 4.38767 224.997 3.26224 225.391 2.67985C225.8 2.09745 226.359 1.62524 227.067 1.26322C227.791 0.885448 228.546 0.696564 229.334 0.696564C230.183 0.696564 230.86 0.901188 231.364 1.31044C231.868 1.71969 232.12 2.25486 232.12 2.91595C232.12 3.46686 231.939 3.93907 231.577 4.33258C231.214 4.71035 230.711 4.89923 230.065 4.89923C229.719 4.89923 229.286 4.80479 228.767 4.61591C228.106 4.3798 227.602 4.26175 227.256 4.26175C226.532 4.26175 225.934 4.88349 225.461 6.12698C224.926 7.55935 224.533 8.48803 224.281 8.91302C224.029 9.32227 223.549 9.87318 222.841 10.5658C223.329 10.7074 223.856 11.0694 224.423 11.6518C225.005 12.2342 226.075 13.8948 227.634 16.6337C228.877 18.8216 229.806 20.2067 230.42 20.7891C231.049 21.3715 231.954 21.6784 233.135 21.7099V22.5835ZM247.418 19.4669C245.199 21.1826 243.806 22.1742 243.239 22.4418C242.389 22.8353 241.484 23.0321 240.524 23.0321C239.029 23.0321 237.793 22.5205 236.817 21.4974C235.857 20.4743 235.377 19.1285 235.377 17.46C235.377 16.4054 235.613 15.4925 236.085 14.7212C236.731 13.6509 237.848 12.6435 239.438 11.6991C241.043 10.7546 243.703 9.60559 247.418 8.25192V7.40195C247.418 5.24552 247.072 3.76593 246.379 2.96317C245.702 2.16041 244.711 1.75904 243.404 1.75904C242.413 1.75904 241.626 2.02662 241.043 2.56179C240.445 3.09696 240.146 3.71084 240.146 4.40341L240.193 5.77282C240.193 6.49688 240.004 7.05566 239.627 7.44917C239.265 7.84267 238.785 8.03943 238.186 8.03943C237.604 8.03943 237.124 7.8348 236.746 7.42556C236.384 7.01631 236.203 6.45753 236.203 5.74921C236.203 4.39554 236.896 3.15206 238.281 2.01875C239.666 0.885448 241.61 0.318796 244.113 0.318796C246.033 0.318796 247.607 0.641473 248.835 1.28683C249.764 1.77478 250.448 2.53818 250.889 3.57704C251.172 4.25388 251.314 5.63903 251.314 7.73249V15.0754C251.314 17.1373 251.353 18.4044 251.432 18.8766C251.511 19.3331 251.637 19.6401 251.81 19.7975C251.999 19.9549 252.211 20.0336 252.447 20.0336C252.699 20.0336 252.919 19.9785 253.108 19.8683C253.439 19.6637 254.076 19.0891 255.021 18.1447V19.4669C253.258 21.828 251.574 23.0085 249.968 23.0085C249.197 23.0085 248.583 22.7409 248.127 22.2057C247.67 21.6706 247.434 20.7576 247.418 19.4669ZM247.418 17.9322V9.69216C245.041 10.6366 243.507 11.3055 242.814 11.6991C241.571 12.3916 240.681 13.1157 240.146 13.8712C239.611 14.6268 239.343 15.4531 239.343 16.3503C239.343 17.4836 239.682 18.428 240.359 19.1836C241.035 19.9234 241.815 20.2933 242.696 20.2933C243.892 20.2933 245.466 19.5063 247.418 17.9322ZM277.425 15.9253L286.775 5.11173C286.744 3.89972 286.515 3.05761 286.09 2.5854C285.665 2.11319 284.933 1.86922 283.895 1.85348V0.956279H293.953V1.85348C292.898 1.85348 292.19 1.96366 291.828 2.18403C291.466 2.38865 291.182 2.64836 290.978 2.96317C290.773 3.27798 290.671 4.3011 290.671 6.03254V17.5072C290.671 19.1757 290.757 20.1752 290.93 20.5058C291.104 20.8206 291.371 21.1039 291.733 21.3558C292.111 21.5919 292.851 21.7099 293.953 21.7099V22.5835H283.493V21.7099C284.8 21.7099 285.673 21.4738 286.114 21.0016C286.555 20.5136 286.775 19.3489 286.775 17.5072V7.33111L277.425 18.1683C277.457 19.5063 277.646 20.4271 277.992 20.9308C278.338 21.4345 279.086 21.6942 280.235 21.7099V22.5835H270.248V21.7099C271.649 21.7099 272.546 21.4581 272.939 20.9544C273.333 20.4349 273.53 19.2859 273.53 17.5072V6.03254C273.53 4.34832 273.443 3.35668 273.27 3.05761C273.097 2.74281 272.829 2.46735 272.467 2.23125C272.105 1.9794 271.365 1.85348 270.248 1.85348V0.956279H280.707V1.85348C279.653 1.85348 278.944 1.96366 278.582 2.18403C278.22 2.38865 277.937 2.64836 277.732 2.96317C277.528 3.27798 277.425 4.3011 277.425 6.03254V15.9253ZM311.494 16.9406L318.247 0.956279H325.543V1.85348C324.472 1.85348 323.756 1.96366 323.394 2.18403C323.048 2.38865 322.772 2.64836 322.568 2.96317C322.363 3.27798 322.261 4.3011 322.261 6.03254V17.5072C322.261 19.0026 322.331 19.9706 322.473 20.4113C322.631 20.8363 322.937 21.159 323.394 21.3794C323.866 21.5997 324.582 21.7099 325.543 21.7099V22.5835H315.083V21.7099C316.374 21.7099 317.239 21.4738 317.68 21.0016C318.121 20.5136 318.341 19.3489 318.341 17.5072V4.49785L310.691 22.5835H309.865L302.074 4.49785V17.5072C302.074 19.0026 302.152 19.9706 302.31 20.4113C302.467 20.8363 302.774 21.159 303.231 21.3794C303.687 21.5997 304.395 21.7099 305.356 21.7099V22.5835H297.092V21.7099C298.493 21.7099 299.39 21.4581 299.783 20.9544C300.177 20.4349 300.374 19.2859 300.374 17.5072V6.03254C300.374 4.34832 300.287 3.35668 300.114 3.05761C299.941 2.74281 299.673 2.46735 299.311 2.23125C298.949 1.9794 298.209 1.85348 297.092 1.85348V0.956279H304.694L311.494 16.9406ZM332.719 9.1019C332.703 12.3129 333.483 14.8314 335.057 16.6573C336.631 18.4831 338.48 19.3961 340.605 19.3961C342.022 19.3961 343.249 19.0104 344.288 18.2392C345.343 17.4521 346.224 16.1142 346.933 14.2254L347.665 14.6976C347.334 16.854 346.374 18.8216 344.784 20.6002C343.194 22.3631 341.203 23.2446 338.811 23.2446C336.214 23.2446 333.986 22.2372 332.129 20.2224C330.287 18.1919 329.366 15.4689 329.366 12.0532C329.366 8.35424 330.311 5.47375 332.2 3.41177C334.104 1.33405 336.489 0.295185 339.354 0.295185C341.778 0.295185 343.769 1.09794 345.327 2.70346C346.885 4.29323 347.665 6.42604 347.665 9.1019H332.719ZM332.719 7.73249H342.73C342.651 6.34734 342.486 5.37144 342.234 4.80479C341.841 3.92333 341.25 3.23076 340.463 2.72707C339.692 2.22338 338.881 1.97153 338.032 1.97153C336.725 1.97153 335.552 2.48309 334.514 3.50621C333.49 4.51359 332.892 5.92235 332.719 7.73249ZM358.288 10.613H367.638V6.03254C367.638 4.66313 367.583 3.7738 367.473 3.36455C367.363 2.93956 367.087 2.5854 366.646 2.30208C366.222 2.00301 365.458 1.85348 364.356 1.85348V0.956279H374.816V1.85348C373.84 1.85348 373.124 1.96366 372.667 2.18403C372.226 2.40439 371.927 2.72707 371.77 3.15206C371.613 3.5613 371.534 4.52146 371.534 6.03254V17.5072C371.534 18.8766 371.589 19.7817 371.699 20.2224C371.825 20.6632 372.116 21.0252 372.573 21.3085C373.029 21.5761 373.777 21.7099 374.816 21.7099V22.5835H364.356V21.7099C365.663 21.7099 366.536 21.4738 366.977 21.0016C367.418 20.5136 367.638 19.3489 367.638 17.5072V12.1477H358.288V17.5072C358.288 18.8766 358.343 19.7817 358.454 20.2224C358.58 20.6632 358.871 21.0252 359.327 21.3085C359.784 21.5761 360.531 21.7099 361.57 21.7099V22.5835H351.111V21.7099C352.512 21.7099 353.409 21.4581 353.802 20.9544C354.196 20.4349 354.393 19.2859 354.393 17.5072V6.03254C354.393 4.66313 354.33 3.75806 354.204 3.31733C354.094 2.8766 353.81 2.52244 353.354 2.25486C352.897 1.98727 352.15 1.85348 351.111 1.85348V0.956279H361.57V1.85348C360.594 1.85348 359.878 1.96366 359.422 2.18403C358.981 2.40439 358.682 2.72707 358.524 3.15206C358.367 3.5613 358.288 4.52146 358.288 6.03254V10.613ZM385.133 15.9253L394.482 5.11173C394.451 3.89972 394.223 3.05761 393.798 2.5854C393.373 2.11319 392.641 1.86922 391.602 1.85348V0.956279H401.66V1.85348C400.605 1.85348 399.897 1.96366 399.535 2.18403C399.173 2.38865 398.89 2.64836 398.685 2.96317C398.48 3.27798 398.378 4.3011 398.378 6.03254V17.5072C398.378 19.1757 398.465 20.1752 398.638 20.5058C398.811 20.8206 399.079 21.1039 399.441 21.3558C399.818 21.5919 400.558 21.7099 401.66 21.7099V22.5835H391.2V21.7099C392.507 21.7099 393.381 21.4738 393.821 21.0016C394.262 20.5136 394.482 19.3489 394.482 17.5072V7.33111L385.133 18.1683C385.164 19.5063 385.353 20.4271 385.699 20.9308C386.046 21.4345 386.793 21.6942 387.942 21.7099V22.5835H377.955V21.7099C379.356 21.7099 380.253 21.4581 380.647 20.9544C381.04 20.4349 381.237 19.2859 381.237 17.5072V6.03254C381.237 4.34832 381.15 3.35668 380.977 3.05761C380.804 2.74281 380.536 2.46735 380.174 2.23125C379.812 1.9794 379.073 1.85348 377.955 1.85348V0.956279H388.414V1.85348C387.36 1.85348 386.652 1.96366 386.289 2.18403C385.927 2.38865 385.644 2.64836 385.44 2.96317C385.235 3.27798 385.133 4.3011 385.133 6.03254V15.9253Z" fill="white"/>
<path d="M105.471 107.215V110.178H77.448C74.4055 105.32 68.0003 96.1664 58.2324 82.7155C48.4645 69.2112 42.513 61.7385 40.378 60.2973C38.2429 58.8028 35.0136 58.0288 30.6901 57.9754V90.4017C30.6901 97.5542 31.5975 102.091 33.4123 104.013C35.2805 105.934 39.604 107.002 46.3828 107.215V110.178H-0.375063V107.215C6.29701 107.002 10.5671 105.961 12.4353 104.093C14.3569 102.171 15.3177 97.6075 15.3177 90.4017V21.3858C15.3177 14.2333 14.3836 9.69631 12.5154 7.77476C10.6472 5.8532 6.35039 4.78567 -0.375063 4.57216V1.60976H46.3828V4.57216C39.604 4.78567 35.2805 5.8532 33.4123 7.77476C31.5975 9.69631 30.6901 14.2333 30.6901 21.3858V51.6503C36.5082 51.5969 40.5381 51.2233 42.7799 50.5294C45.0217 49.7821 47.5304 48.1275 50.306 45.5654C53.135 43.0033 55.3501 40.2544 56.9514 37.3187C58.6061 34.3296 60.7144 29.4456 63.2765 22.6668C65.6785 16.315 67.6267 11.9114 69.1213 9.45612C70.6692 6.94742 73.1245 4.81236 76.4872 3.05093C79.8499 1.23612 83.8532 0.328722 88.497 0.328722C96.7169 0.328722 100.827 3.21106 100.827 8.97573C100.827 11.004 99.9996 12.7655 98.3449 14.26C96.7436 15.7546 94.9021 16.5018 92.8205 16.5018C91.3259 16.5018 88.8172 15.6478 85.2944 13.9398C82.1985 12.3918 80.0368 11.6179 78.8091 11.6179C77.1011 11.6179 75.6332 12.5253 74.4055 14.3401C73.1779 16.1015 71.2296 20.6385 68.5608 27.9511C63.4366 41.6155 56.898 50.2892 48.9449 53.9722C53.8022 54.8262 60.5276 61.4716 69.1213 73.9083C78.2486 87.0924 84.9474 95.8995 89.2175 100.33C93.4877 104.76 98.9054 107.055 105.471 107.215Z" fill="white"/>
<path d="M119.908 60.2659H113.826V69.2481C113.826 71.0068 114.051 72.184 114.501 72.7799C114.952 73.3759 115.918 73.6738 117.401 73.6738H118.077V74.4805H105.41V73.6738H106.304C107.118 73.6738 107.794 73.5285 108.332 73.2378C108.869 72.9471 109.218 72.5692 109.378 72.1041C109.552 71.639 109.64 70.687 109.64 69.2481V50.1499C109.64 48.7401 109.545 47.7808 109.356 47.2721C109.182 46.7634 108.826 46.3783 108.288 46.1166C107.765 45.855 107.031 45.7242 106.086 45.7242H105.41V44.9176H118.077V45.7242H117.401C116.34 45.7242 115.584 45.8696 115.134 46.1602C114.683 46.4364 114.349 46.778 114.131 47.1849C113.927 47.5773 113.826 48.5657 113.826 50.1499V58.6743H119.908C120.112 54.4012 121.652 50.9275 124.53 48.2532C127.422 45.5789 130.802 44.2417 134.668 44.2417C138.389 44.2417 141.681 45.6733 144.544 48.5366C147.407 51.3999 148.839 55.0698 148.839 59.5464C148.839 63.834 147.465 67.5112 144.718 70.578C141.986 73.6302 138.512 75.1563 134.297 75.1563C131.565 75.1563 129.145 74.5168 127.037 73.2378C124.93 71.9588 123.229 70.1856 121.936 67.9182C120.642 65.6363 119.966 63.0855 119.908 60.2659ZM134.254 45.8332C131.434 45.8332 129.167 47.0032 127.452 49.3433C125.736 51.6688 124.879 55.0553 124.879 59.5028C124.879 63.6596 125.678 67.0534 127.277 69.6841C128.89 72.3003 131.223 73.6084 134.275 73.6084C137.24 73.6084 139.573 72.4602 141.274 70.1638C142.989 67.8528 143.846 64.5026 143.846 60.1132C143.846 55.6657 143.04 52.1775 141.426 49.6485C139.828 47.105 137.437 45.8332 134.254 45.8332ZM156.077 70.251C156.76 70.251 157.334 70.4908 157.799 70.9704C158.264 71.4355 158.497 72.0024 158.497 72.6709C158.497 73.3395 158.257 73.9136 157.777 74.3933C157.312 74.8584 156.746 75.0909 156.077 75.0909C155.408 75.0909 154.834 74.8584 154.355 74.3933C153.89 73.9136 153.657 73.3395 153.657 72.6709C153.657 71.9878 153.89 71.4137 154.355 70.9486C154.834 70.4835 155.408 70.251 156.077 70.251ZM170.837 58.6307H184.572V50.1717C184.572 48.6602 184.477 47.6645 184.288 47.1849C184.143 46.8216 183.838 46.5091 183.373 46.2474C182.748 45.8986 182.086 45.7242 181.389 45.7242H180.342V44.9176H192.987V45.7242H191.941C191.243 45.7242 190.582 45.8914 189.957 46.2256C189.491 46.4582 189.172 46.8143 188.997 47.2939C188.837 47.759 188.757 48.7183 188.757 50.1717V69.2481C188.757 70.7451 188.852 71.7335 189.041 72.2131C189.186 72.5765 189.484 72.889 189.935 73.1506C190.574 73.4994 191.243 73.6738 191.941 73.6738H192.987V74.4805H180.342V73.6738H181.389C182.595 73.6738 183.474 73.3177 184.027 72.6055C184.39 72.1404 184.572 71.0213 184.572 69.2481V60.244H170.837V69.2481C170.837 70.7451 170.931 71.7335 171.12 72.2131C171.265 72.5765 171.571 72.889 172.036 73.1506C172.661 73.4994 173.322 73.6738 174.02 73.6738H175.088V74.4805H162.421V73.6738H163.468C164.689 73.6738 165.575 73.3177 166.127 72.6055C166.476 72.1404 166.651 71.0213 166.651 69.2481V50.1717C166.651 48.6602 166.556 47.6645 166.367 47.1849C166.222 46.8216 165.924 46.5091 165.473 46.2474C164.834 45.8986 164.165 45.7242 163.468 45.7242H162.421V44.9176H175.088V45.7242H174.02C173.322 45.7242 172.661 45.8914 172.036 46.2256C171.585 46.4582 171.273 46.8143 171.098 47.2939C170.924 47.759 170.837 48.7183 170.837 50.1717V58.6307ZM199.506 70.251C200.189 70.251 200.763 70.4908 201.228 70.9704C201.693 71.4355 201.926 72.0024 201.926 72.6709C201.926 73.3395 201.686 73.9136 201.206 74.3933C200.741 74.8584 200.174 75.0909 199.506 75.0909C198.837 75.0909 198.263 74.8584 197.783 74.3933C197.318 73.9136 197.086 73.3395 197.086 72.6709C197.086 71.9878 197.318 71.4137 197.783 70.9486C198.263 70.4835 198.837 70.251 199.506 70.251ZM234.715 73.6738V74.4805H227.085C226.256 73.1578 224.512 70.6652 221.852 67.0025C219.192 63.3253 217.572 61.2905 216.991 60.8981C216.409 60.4911 215.53 60.2804 214.353 60.2659V69.0955C214.353 71.0431 214.6 72.2785 215.094 72.8017C215.602 73.325 216.78 73.6157 218.626 73.6738V74.4805H205.894V73.6738C207.71 73.6157 208.873 73.3323 209.382 72.8236C209.905 72.3003 210.167 71.0576 210.167 69.0955V50.3025C210.167 48.3549 209.912 47.1195 209.404 46.5963C208.895 46.073 207.725 45.7823 205.894 45.7242V44.9176H218.626V45.7242C216.78 45.7823 215.602 46.073 215.094 46.5963C214.6 47.1195 214.353 48.3549 214.353 50.3025V58.5435C215.937 58.529 217.034 58.4273 217.645 58.2383C218.255 58.0348 218.938 57.5843 219.694 56.8866C220.464 56.189 221.067 55.4404 221.503 54.641C221.954 53.8271 222.528 52.4972 223.226 50.6514C223.88 48.9218 224.41 47.7227 224.817 47.0541C225.239 46.371 225.907 45.7896 226.823 45.31C227.739 44.8158 228.829 44.5687 230.093 44.5687C232.332 44.5687 233.451 45.3536 233.451 46.9233C233.451 47.4756 233.225 47.9552 232.775 48.3622C232.339 48.7692 231.837 48.9726 231.271 48.9726C230.864 48.9726 230.18 48.7401 229.221 48.275C228.378 47.8535 227.79 47.6427 227.455 47.6427C226.99 47.6427 226.59 47.8898 226.256 48.384C225.922 48.8636 225.391 50.0991 224.665 52.0903C223.269 55.8111 221.489 58.1729 219.323 59.1758C220.646 59.4083 222.477 61.2179 224.817 64.6044C227.303 68.1944 229.127 70.5925 230.289 71.7989C231.452 73.0052 232.927 73.6302 234.715 73.6738ZM246.968 71.6027C244.918 73.1869 243.632 74.1026 243.109 74.3497C242.324 74.713 241.488 74.8947 240.602 74.8947C239.221 74.8947 238.08 74.4223 237.179 73.4776C236.292 72.5329 235.849 71.2902 235.849 69.7495C235.849 68.7757 236.067 67.9327 236.503 67.2205C237.099 66.2322 238.131 65.302 239.599 64.4299C241.081 63.5579 243.538 62.4969 246.968 61.2469V60.4621C246.968 58.4709 246.648 57.1046 246.008 56.3634C245.383 55.6221 244.468 55.2515 243.261 55.2515C242.346 55.2515 241.619 55.4986 241.081 55.9927C240.529 56.4869 240.253 57.0538 240.253 57.6933L240.296 58.9578C240.296 59.6263 240.122 60.1423 239.773 60.5057C239.439 60.869 238.996 61.0507 238.443 61.0507C237.905 61.0507 237.462 60.8618 237.113 60.4839C236.779 60.106 236.612 59.59 236.612 58.936C236.612 57.686 237.251 56.5378 238.53 55.4913C239.809 54.4448 241.604 53.9216 243.915 53.9216C245.689 53.9216 247.142 54.2196 248.276 54.8155C249.133 55.266 249.766 55.9709 250.172 56.9302C250.434 57.5552 250.565 58.8342 250.565 60.7673V67.5476C250.565 69.4516 250.601 70.6216 250.674 71.0576C250.747 71.4791 250.863 71.7625 251.023 71.9079C251.197 72.0532 251.393 72.1259 251.611 72.1259C251.844 72.1259 252.047 72.075 252.222 71.9733C252.527 71.7843 253.116 71.2538 253.988 70.3818V71.6027C252.36 73.7828 250.805 74.8729 249.322 74.8729C248.61 74.8729 248.043 74.6258 247.622 74.1316C247.2 73.6375 246.982 72.7945 246.968 71.6027ZM246.968 70.1856V62.5768C244.773 63.4489 243.356 64.0666 242.716 64.4299C241.568 65.0695 240.747 65.738 240.253 66.4357C239.759 67.1333 239.512 67.8964 239.512 68.7249C239.512 69.7713 239.824 70.6434 240.449 71.341C241.074 72.0242 241.793 72.3657 242.607 72.3657C243.712 72.3657 245.165 71.639 246.968 70.1856ZM272.454 66.8935C271.916 69.5242 270.862 71.5518 269.292 72.9762C267.723 74.386 265.986 75.0909 264.082 75.0909C261.815 75.0909 259.838 74.1389 258.152 72.2349C256.466 70.3309 255.623 67.7583 255.623 64.5172C255.623 61.3777 256.553 58.8269 258.413 56.8648C260.288 54.9027 262.534 53.9216 265.15 53.9216C267.112 53.9216 268.726 54.4448 269.99 55.4913C271.255 56.5232 271.887 57.5988 271.887 58.7179C271.887 59.2702 271.705 59.7208 271.342 60.0696C270.993 60.4039 270.499 60.5711 269.859 60.5711C269.002 60.5711 268.355 60.2949 267.919 59.7426C267.672 59.4374 267.505 58.856 267.418 57.9985C267.345 57.141 267.054 56.4869 266.545 56.0363C266.037 55.6003 265.332 55.3823 264.431 55.3823C262.977 55.3823 261.807 55.9201 260.921 56.9956C259.743 58.42 259.155 60.3022 259.155 62.6422C259.155 65.0259 259.736 67.1333 260.899 68.9647C262.076 70.7815 263.66 71.6899 265.652 71.6899C267.076 71.6899 268.355 71.203 269.489 70.2292C270.288 69.5606 271.066 68.347 271.821 66.5883L272.454 66.8935ZM287.213 71.6027C285.164 73.1869 283.878 74.1026 283.354 74.3497C282.57 74.713 281.734 74.8947 280.847 74.8947C279.467 74.8947 278.326 74.4223 277.424 73.4776C276.538 72.5329 276.095 71.2902 276.095 69.7495C276.095 68.7757 276.313 67.9327 276.749 67.2205C277.345 66.2322 278.376 65.302 279.844 64.4299C281.327 63.5579 283.783 62.4969 287.213 61.2469V60.4621C287.213 58.4709 286.894 57.1046 286.254 56.3634C285.629 55.6221 284.713 55.2515 283.507 55.2515C282.591 55.2515 281.865 55.4986 281.327 55.9927C280.775 56.4869 280.498 57.0538 280.498 57.6933L280.542 58.9578C280.542 59.6263 280.368 60.1423 280.019 60.5057C279.685 60.869 279.241 61.0507 278.689 61.0507C278.151 61.0507 277.708 60.8618 277.359 60.4839C277.025 60.106 276.858 59.59 276.858 58.936C276.858 57.686 277.497 56.5378 278.776 55.4913C280.055 54.4448 281.85 53.9216 284.161 53.9216C285.934 53.9216 287.388 54.2196 288.521 54.8155C289.379 55.266 290.011 55.9709 290.418 56.9302C290.68 57.5552 290.811 58.8342 290.811 60.7673V67.5476C290.811 69.4516 290.847 70.6216 290.92 71.0576C290.992 71.4791 291.109 71.7625 291.268 71.9079C291.443 72.0532 291.639 72.1259 291.857 72.1259C292.09 72.1259 292.293 72.075 292.468 71.9733C292.773 71.7843 293.361 71.2538 294.233 70.3818V71.6027C292.606 73.7828 291.05 74.8729 289.568 74.8729C288.856 74.8729 288.289 74.6258 287.867 74.1316C287.446 73.6375 287.228 72.7945 287.213 71.6027ZM287.213 70.1856V62.5768C285.019 63.4489 283.602 64.0666 282.962 64.4299C281.814 65.0695 280.993 65.738 280.498 66.4357C280.004 67.1333 279.757 67.8964 279.757 68.7249C279.757 69.7713 280.07 70.6434 280.695 71.341C281.32 72.0242 282.039 72.3657 282.853 72.3657C283.958 72.3657 285.411 71.639 287.213 70.1856ZM294.255 54.5102H311.522L312.394 59.917H311.413C311.239 58.8269 310.948 57.984 310.541 57.388C310.134 56.7921 309.669 56.3997 309.146 56.2108C308.622 56.0218 307.729 55.9273 306.464 55.9273H304.72V69.7931C304.72 71.2756 304.807 72.2204 304.982 72.6273C305.171 73.0198 305.469 73.2814 305.875 73.4122C306.282 73.543 307.213 73.6302 308.666 73.6738V74.4805H297.809V73.6738C299.204 73.6447 300.098 73.4195 300.491 72.998C300.897 72.5765 301.101 71.5082 301.101 69.7931V55.9273H299.313C298.063 55.9273 297.213 56.0073 296.762 56.1672C296.312 56.3125 295.876 56.6759 295.454 57.2572C295.047 57.8241 294.699 58.7107 294.408 59.917H293.427L294.255 54.5102ZM334.13 74.4805H328.244C326.413 71.8207 324.756 69.0955 323.273 66.3049C322.924 65.6654 322.605 65.193 322.314 64.8878C322.038 64.568 321.653 64.4081 321.158 64.4081C320.984 64.4081 320.708 64.4227 320.33 64.4518V69.7931C320.33 71.232 320.41 72.155 320.57 72.5619C320.744 72.9544 321.049 73.2378 321.485 73.4122C321.921 73.5866 322.655 73.6738 323.687 73.6738V74.4805H313.702V73.6738C314.996 73.6738 315.824 73.4413 316.188 72.9762C316.551 72.4965 316.733 71.4355 316.733 69.7931V59.1976C316.733 57.6424 316.653 56.7267 316.493 56.4506C316.333 56.1599 316.086 55.9055 315.752 55.6875C315.417 55.455 314.734 55.3387 313.702 55.3387V54.5102H323.687V55.3387C322.481 55.3387 321.732 55.4259 321.442 55.6003C321.166 55.7747 320.911 55.9927 320.679 56.2544C320.446 56.5014 320.33 57.4825 320.33 59.1976V63.1219C320.664 63.1509 320.889 63.1655 321.006 63.1655C321.892 63.1655 322.721 62.9184 323.491 62.4242C324.276 61.9155 324.974 60.8472 325.584 59.2194C326.151 57.6787 326.616 56.6395 326.979 56.1018C327.357 55.564 327.873 55.1279 328.527 54.7937C329.196 54.4448 329.894 54.2704 330.62 54.2704C331.405 54.2704 332.03 54.4594 332.495 54.8373C332.96 55.2152 333.193 55.7093 333.193 56.3198C333.193 56.8285 333.026 57.2645 332.691 57.6279C332.357 57.9767 331.892 58.1511 331.296 58.1511C330.976 58.1511 330.577 58.0639 330.097 57.8895C329.487 57.6715 329.021 57.5625 328.702 57.5625C328.033 57.5625 327.481 58.1366 327.045 59.2848C326.551 60.6074 326.187 61.4649 325.955 61.8574C325.722 62.2353 325.279 62.744 324.625 63.3835C325.075 63.5143 325.562 63.8486 326.086 64.3863C326.623 64.9241 327.612 66.4575 329.051 68.9865C330.199 71.0068 331.056 72.2858 331.623 72.8236C332.205 73.3613 333.04 73.6447 334.13 73.6738V74.4805ZM342.044 68.3324L350.678 58.3473C350.649 57.2282 350.438 56.4506 350.045 56.0145C349.653 55.5785 348.977 55.3532 348.018 55.3387V54.5102H357.305V55.3387C356.332 55.3387 355.678 55.4404 355.343 55.6439C355.009 55.8329 354.747 56.0727 354.558 56.3634C354.369 56.6541 354.275 57.5988 354.275 59.1976V69.7931C354.275 71.3338 354.355 72.2567 354.515 72.5619C354.675 72.8526 354.922 73.1142 355.256 73.3468C355.605 73.5648 356.288 73.6738 357.305 73.6738V74.4805H347.647V73.6738C348.854 73.6738 349.66 73.4558 350.067 73.0198C350.474 72.5692 350.678 71.4937 350.678 69.7931V60.3967L342.044 70.4036C342.073 71.639 342.248 72.4893 342.568 72.9544C342.887 73.4195 343.578 73.6593 344.639 73.6738V74.4805H335.417V73.6738C336.71 73.6738 337.539 73.4413 337.902 72.9762C338.265 72.4965 338.447 71.4355 338.447 69.7931V59.1976C338.447 57.6424 338.367 56.7267 338.207 56.4506C338.047 56.1599 337.8 55.9055 337.466 55.6875C337.132 55.455 336.449 55.3387 335.417 55.3387V54.5102H345.075V55.3387C344.101 55.3387 343.447 55.4404 343.113 55.6439C342.778 55.8329 342.517 56.0727 342.328 56.3634C342.139 56.6541 342.044 57.5988 342.044 59.1976V68.3324ZM365.939 63.4271H374.572V59.1976C374.572 57.9331 374.521 57.1119 374.42 56.734C374.318 56.3416 374.063 56.0145 373.657 55.7529C373.264 55.4768 372.559 55.3387 371.542 55.3387V54.5102H381.2V55.3387C380.299 55.3387 379.637 55.4404 379.216 55.6439C378.809 55.8474 378.533 56.1454 378.387 56.5378C378.242 56.9157 378.169 57.8023 378.169 59.1976V69.7931C378.169 71.0576 378.22 71.8934 378.322 72.3003C378.438 72.7073 378.707 73.0416 379.129 73.3032C379.55 73.5503 380.241 73.6738 381.2 73.6738V74.4805H371.542V73.6738C372.748 73.6738 373.555 73.4558 373.962 73.0198C374.369 72.5692 374.572 71.4937 374.572 69.7931V64.8442H365.939V69.7931C365.939 71.0576 365.99 71.8934 366.091 72.3003C366.208 72.7073 366.477 73.0416 366.898 73.3032C367.32 73.5503 368.01 73.6738 368.969 73.6738V74.4805H359.311V73.6738C360.605 73.6738 361.433 73.4413 361.796 72.9762C362.16 72.4965 362.342 71.4355 362.342 69.7931V59.1976C362.342 57.9331 362.283 57.0974 362.167 56.6904C362.065 56.2834 361.804 55.9564 361.382 55.7093C360.961 55.4622 360.27 55.3387 359.311 55.3387V54.5102H368.969V55.3387C368.068 55.3387 367.407 55.4404 366.985 55.6439C366.578 55.8474 366.302 56.1454 366.157 56.5378C366.011 56.9157 365.939 57.8023 365.939 59.1976V63.4271ZM394.913 71.6027C392.864 73.1869 391.577 74.1026 391.054 74.3497C390.269 74.713 389.434 74.8947 388.547 74.8947C387.166 74.8947 386.025 74.4223 385.124 73.4776C384.238 72.5329 383.794 71.2902 383.794 69.7495C383.794 68.7757 384.012 67.9327 384.448 67.2205C385.044 66.2322 386.076 65.302 387.544 64.4299C389.027 63.5579 391.483 62.4969 394.913 61.2469V60.4621C394.913 58.4709 394.593 57.1046 393.954 56.3634C393.329 55.6221 392.413 55.2515 391.207 55.2515C390.291 55.2515 389.564 55.4986 389.027 55.9927C388.474 56.4869 388.198 57.0538 388.198 57.6933L388.242 58.9578C388.242 59.6263 388.067 60.1423 387.719 60.5057C387.384 60.869 386.941 61.0507 386.389 61.0507C385.851 61.0507 385.408 60.8618 385.059 60.4839C384.724 60.106 384.557 59.59 384.557 58.936C384.557 57.686 385.197 56.5378 386.476 55.4913C387.755 54.4448 389.55 53.9216 391.861 53.9216C393.634 53.9216 395.087 54.2196 396.221 54.8155C397.079 55.266 397.711 55.9709 398.118 56.9302C398.38 57.5552 398.51 58.8342 398.51 60.7673V67.5476C398.51 69.4516 398.547 70.6216 398.619 71.0576C398.692 71.4791 398.808 71.7625 398.968 71.9079C399.143 72.0532 399.339 72.1259 399.557 72.1259C399.789 72.1259 399.993 72.075 400.167 71.9733C400.472 71.7843 401.061 71.2538 401.933 70.3818V71.6027C400.305 73.7828 398.75 74.8729 397.268 74.8729C396.555 74.8729 395.989 74.6258 395.567 74.1316C395.146 73.6375 394.928 72.7945 394.913 71.6027ZM394.913 70.1856V62.5768C392.718 63.4489 391.301 64.0666 390.662 64.4299C389.514 65.0695 388.692 65.738 388.198 66.4357C387.704 67.1333 387.457 67.8964 387.457 68.7249C387.457 69.7713 387.769 70.6434 388.394 71.341C389.019 72.0242 389.739 72.3657 390.553 72.3657C391.657 72.3657 393.111 71.639 394.913 70.1856Z" fill="white"/>
<path d="M121.313 108.976H117.315V108.723C117.839 108.714 118.19 108.643 118.367 108.511C118.55 108.379 118.645 108.105 118.654 107.691C117.114 107.691 116.003 107.367 115.319 106.72C114.641 106.073 114.301 105.265 114.301 104.294C114.301 103.565 114.502 102.943 114.902 102.429C115.308 101.914 115.807 101.558 116.399 101.363C116.991 101.162 117.743 101.062 118.654 101.062C118.645 100.679 118.586 100.426 118.477 100.303C118.367 100.18 118.244 100.096 118.108 100.05C117.975 100 117.711 99.9707 117.315 99.9616V99.7087H121.313V99.9616C120.775 99.9798 120.422 100.062 120.253 100.208C120.085 100.349 119.989 100.634 119.966 101.062C120.951 101.062 121.725 101.169 122.29 101.383C122.855 101.597 123.336 101.953 123.732 102.449C124.128 102.946 124.327 103.561 124.327 104.294C124.327 105.237 123.996 106.039 123.336 106.7C122.675 107.36 121.552 107.691 119.966 107.691C119.98 108.101 120.074 108.374 120.247 108.511C120.424 108.643 120.78 108.714 121.313 108.723V108.976ZM119.966 107.185C120.636 107.185 121.169 107.099 121.566 106.925C121.967 106.748 122.297 106.431 122.557 105.975C122.821 105.52 122.953 104.957 122.953 104.287C122.953 103.659 122.821 103.128 122.557 102.695C122.292 102.258 121.96 101.962 121.559 101.807C121.162 101.647 120.632 101.568 119.966 101.568V107.185ZM118.654 107.185V101.568C117.948 101.568 117.404 101.654 117.021 101.827C116.638 101.996 116.317 102.285 116.057 102.695C115.802 103.105 115.675 103.636 115.675 104.287C115.675 105.003 115.825 105.597 116.126 106.071C116.431 106.545 116.789 106.85 117.199 106.987C117.609 107.119 118.094 107.185 118.654 107.185ZM132.387 99.7087L132.421 101.875H132.155C132.137 101.438 132.043 101.087 131.875 100.823C131.706 100.558 131.499 100.392 131.253 100.324C131.011 100.251 130.661 100.214 130.2 100.214H127.604V107.288C127.604 107.898 127.681 108.285 127.836 108.449C127.995 108.613 128.36 108.705 128.929 108.723V108.976H124.952V108.723C125.526 108.705 125.893 108.613 126.052 108.449C126.212 108.285 126.291 107.898 126.291 107.288V101.397C126.291 100.786 126.212 100.399 126.052 100.235C125.893 100.071 125.526 99.9798 124.952 99.9616V99.7087H132.387ZM139.546 99.7087L139.642 101.732H139.396C139.25 101.076 139.024 100.659 138.719 100.481C138.418 100.303 137.881 100.214 137.106 100.214H135.548V103.884H135.917C137.052 103.884 137.885 103.957 138.418 104.103C138.951 104.244 139.384 104.518 139.717 104.923C140.054 105.329 140.223 105.816 140.223 106.386C140.223 107.073 139.967 107.677 139.457 108.197C138.947 108.716 138.068 108.976 136.819 108.976H132.897V108.723C133.471 108.705 133.837 108.613 133.997 108.449C134.156 108.285 134.236 107.898 134.236 107.288V101.397C134.236 100.927 134.202 100.611 134.134 100.447C134.07 100.283 133.963 100.167 133.812 100.098C133.662 100.03 133.384 99.9844 132.979 99.9616V99.7087H139.546ZM135.548 108.422C135.949 108.486 136.261 108.518 136.484 108.518C137.045 108.518 137.551 108.331 138.002 107.957C138.457 107.584 138.685 107.067 138.685 106.406C138.685 105.723 138.448 105.217 137.974 104.889C137.5 104.556 136.899 104.39 136.17 104.39C135.965 104.39 135.758 104.408 135.548 104.445V108.422ZM145.57 99.4969C146.773 99.4969 147.814 99.9547 148.693 100.87C149.577 101.782 150.019 102.921 150.019 104.287C150.019 105.695 149.575 106.864 148.687 107.793C147.798 108.723 146.723 109.187 145.461 109.187C144.185 109.187 143.112 108.734 142.242 107.827C141.377 106.921 140.944 105.748 140.944 104.308C140.944 102.836 141.445 101.636 142.447 100.706C143.317 99.9001 144.358 99.4969 145.57 99.4969ZM145.44 99.9957C144.611 99.9957 143.946 100.303 143.445 100.918C142.821 101.684 142.509 102.805 142.509 104.281C142.509 105.793 142.832 106.957 143.479 107.773C143.976 108.392 144.632 108.702 145.447 108.702C146.318 108.702 147.035 108.363 147.6 107.684C148.17 107.005 148.454 105.934 148.454 104.472C148.454 102.887 148.142 101.704 147.518 100.925C147.017 100.306 146.324 99.9957 145.44 99.9957ZM149.811 99.7087H153.57V99.9616C152.909 99.9889 152.579 100.167 152.579 100.495C152.579 100.727 152.822 101.269 153.31 102.121L155.333 105.675L156.809 102.121C157.119 101.374 157.274 100.873 157.274 100.618C157.274 100.262 156.987 100.044 156.413 99.9616V99.7087H159.317V99.9616C158.634 100.044 158.114 100.508 157.759 101.356L155.989 105.565C155.529 106.645 155.155 107.413 154.868 107.868C154.581 108.324 154.267 108.659 153.925 108.873C153.588 109.083 153.237 109.187 152.873 109.187C152.558 109.187 152.292 109.119 152.073 108.982C151.859 108.85 151.752 108.668 151.752 108.436C151.752 108.267 151.809 108.128 151.923 108.019C152.037 107.905 152.191 107.848 152.387 107.848C152.579 107.848 152.806 107.925 153.071 108.08C153.248 108.176 153.383 108.224 153.474 108.224C153.834 108.224 154.237 107.85 154.684 107.103L151.321 101.192C151.084 100.777 150.859 100.483 150.645 100.31C150.435 100.137 150.157 100.021 149.811 99.9616V99.7087ZM164.409 99.7087H172.056V99.9616C171.482 99.9798 171.115 100.071 170.956 100.235C170.796 100.399 170.716 100.786 170.716 101.397V106.529C170.716 107.522 170.773 108.137 170.887 108.374C171.001 108.607 171.37 108.723 171.994 108.723V111.641H171.762C171.625 110.967 171.404 110.422 171.099 110.008C170.798 109.597 170.454 109.322 170.067 109.181C169.684 109.044 169.224 108.976 168.687 108.976H166.322C165.288 108.976 164.527 109.256 164.04 109.816C163.557 110.377 163.267 110.985 163.172 111.641H162.939V108.723C163.673 108.659 164.27 108.219 164.73 107.404C165.19 106.588 165.509 105.588 165.687 104.404C165.864 103.215 165.953 102.24 165.953 101.479C165.953 101.023 165.896 100.688 165.782 100.474C165.668 100.26 165.532 100.126 165.372 100.071C165.217 100.016 164.896 99.9798 164.409 99.9616V99.7087ZM166.636 100.214C166.523 102.916 166.306 104.811 165.987 105.9C165.668 106.989 165.24 107.846 164.702 108.47H168.133C168.744 108.47 169.108 108.417 169.227 108.313C169.35 108.203 169.411 107.855 169.411 107.267V100.214H166.636ZM179.379 100.214H175.08V107.288C175.08 107.898 175.157 108.285 175.312 108.449C175.472 108.613 175.841 108.705 176.419 108.723V108.976H172.428V108.723C173.002 108.705 173.369 108.613 173.529 108.449C173.688 108.285 173.768 107.898 173.768 107.288V101.397C173.768 100.786 173.688 100.399 173.529 100.235C173.369 100.071 173.002 99.9798 172.428 99.9616V99.7087H182.03V99.9616C181.456 99.9798 181.089 100.071 180.93 100.235C180.77 100.399 180.691 100.786 180.691 101.397V107.288C180.691 107.898 180.77 108.285 180.93 108.449C181.089 108.613 181.456 108.705 182.03 108.723V108.976H178.046V108.723C178.615 108.705 178.98 108.616 179.139 108.456C179.299 108.292 179.379 107.903 179.379 107.288V100.214ZM187.268 99.4969C188.471 99.4969 189.512 99.9547 190.392 100.87C191.275 101.782 191.717 102.921 191.717 104.287C191.717 105.695 191.273 106.864 190.385 107.793C189.496 108.723 188.421 109.187 187.159 109.187C185.883 109.187 184.811 108.734 183.94 107.827C183.075 106.921 182.642 105.748 182.642 104.308C182.642 102.836 183.143 101.636 184.145 100.706C185.016 99.9001 186.057 99.4969 187.268 99.4969ZM187.139 99.9957C186.309 99.9957 185.644 100.303 185.143 100.918C184.519 101.684 184.207 102.805 184.207 104.281C184.207 105.793 184.53 106.957 185.177 107.773C185.674 108.392 186.33 108.702 187.145 108.702C188.016 108.702 188.733 108.363 189.298 107.684C189.868 107.005 190.152 105.934 190.152 104.472C190.152 102.887 189.84 101.704 189.216 100.925C188.715 100.306 188.022 99.9957 187.139 99.9957ZM198.353 104.636V107.335C198.353 107.919 198.417 108.281 198.545 108.422C198.718 108.622 198.98 108.723 199.331 108.723H199.686V108.976H195.716V108.723H196.064C196.456 108.723 196.736 108.595 196.905 108.34C196.996 108.199 197.041 107.864 197.041 107.335V101.349C197.041 100.766 196.98 100.404 196.857 100.262C196.679 100.062 196.415 99.9616 196.064 99.9616H195.716V99.7087H199.112C199.941 99.7087 200.595 99.7953 201.073 99.9684C201.552 100.137 201.955 100.424 202.283 100.829C202.611 101.235 202.775 101.716 202.775 102.271C202.775 103.028 202.524 103.643 202.023 104.117C201.527 104.59 200.823 104.827 199.912 104.827C199.688 104.827 199.447 104.811 199.187 104.78C198.927 104.748 198.65 104.7 198.353 104.636ZM198.353 104.246C198.595 104.292 198.809 104.326 198.996 104.349C199.183 104.372 199.342 104.383 199.474 104.383C199.948 104.383 200.356 104.201 200.697 103.836C201.044 103.467 201.217 102.991 201.217 102.408C201.217 102.007 201.135 101.636 200.971 101.294C200.807 100.948 200.574 100.691 200.274 100.522C199.973 100.349 199.631 100.262 199.249 100.262C199.016 100.262 198.718 100.306 198.353 100.392V104.246ZM208.861 108.976L205.28 101.178V107.37C205.28 107.939 205.341 108.294 205.464 108.436C205.633 108.627 205.899 108.723 206.264 108.723H206.592V108.976H203.366V108.723H203.694C204.086 108.723 204.364 108.604 204.528 108.367C204.628 108.222 204.678 107.889 204.678 107.37V101.315C204.678 100.905 204.633 100.609 204.542 100.426C204.478 100.294 204.36 100.185 204.186 100.098C204.018 100.007 203.744 99.9616 203.366 99.9616V99.7087H205.991L209.353 106.96L212.661 99.7087H215.285V99.9616H214.964C214.567 99.9616 214.287 100.08 214.123 100.317C214.023 100.463 213.973 100.795 213.973 101.315V107.37C213.973 107.939 214.036 108.294 214.164 108.436C214.333 108.627 214.599 108.723 214.964 108.723H215.285V108.976H211.348V108.723H211.676C212.073 108.723 212.351 108.604 212.51 108.367C212.61 108.222 212.661 107.889 212.661 107.37V101.178L209.086 108.976H208.861ZM221.849 105.873H218.261L217.632 107.335C217.477 107.695 217.4 107.964 217.4 108.142C217.4 108.283 217.466 108.408 217.598 108.518C217.735 108.622 218.026 108.691 218.473 108.723V108.976H215.555V108.723C215.942 108.654 216.193 108.566 216.307 108.456C216.539 108.238 216.796 107.793 217.079 107.124L220.339 99.4969H220.578L223.803 107.206C224.063 107.825 224.298 108.228 224.507 108.415C224.721 108.597 225.018 108.7 225.396 108.723V108.976H221.74V108.723C222.109 108.705 222.357 108.643 222.484 108.538C222.617 108.433 222.683 108.306 222.683 108.156C222.683 107.955 222.592 107.638 222.409 107.206L221.849 105.873ZM221.658 105.367L220.086 101.622L218.473 105.367H221.658ZM228.297 104.007H232.602V101.356C232.602 100.882 232.573 100.57 232.513 100.419C232.468 100.306 232.372 100.208 232.226 100.126C232.031 100.016 231.823 99.9616 231.605 99.9616H231.277V99.7087H235.24V99.9616H234.912C234.693 99.9616 234.486 100.014 234.29 100.119C234.144 100.192 234.044 100.303 233.99 100.454C233.939 100.599 233.914 100.9 233.914 101.356V107.335C233.914 107.805 233.944 108.115 234.003 108.265C234.049 108.379 234.142 108.477 234.283 108.559C234.484 108.668 234.693 108.723 234.912 108.723H235.24V108.976H231.277V108.723H231.605C231.983 108.723 232.258 108.611 232.431 108.388C232.545 108.242 232.602 107.891 232.602 107.335V104.513H228.297V107.335C228.297 107.805 228.327 108.115 228.386 108.265C228.431 108.379 228.527 108.477 228.673 108.559C228.869 108.668 229.076 108.723 229.295 108.723H229.63V108.976H225.659V108.723H225.987C226.37 108.723 226.648 108.611 226.821 108.388C226.93 108.242 226.985 107.891 226.985 107.335V101.356C226.985 100.882 226.955 100.57 226.896 100.419C226.85 100.306 226.757 100.208 226.616 100.126C226.415 100.016 226.206 99.9616 225.987 99.9616H225.659V99.7087H229.63V99.9616H229.295C229.076 99.9616 228.869 100.014 228.673 100.119C228.532 100.192 228.434 100.303 228.379 100.454C228.324 100.599 228.297 100.9 228.297 101.356V104.007ZM242.597 100.214H238.299V107.288C238.299 107.898 238.376 108.285 238.531 108.449C238.69 108.613 239.059 108.705 239.638 108.723V108.976H235.647V108.723C236.221 108.705 236.588 108.613 236.747 108.449C236.907 108.285 236.986 107.898 236.986 107.288V101.397C236.986 100.786 236.907 100.399 236.747 100.235C236.588 100.071 236.221 99.9798 235.647 99.9616V99.7087H245.249V99.9616C244.675 99.9798 244.308 100.071 244.148 100.235C243.989 100.399 243.909 100.786 243.909 101.397V107.288C243.909 107.898 243.989 108.285 244.148 108.449C244.308 108.613 244.675 108.705 245.249 108.723V108.976H241.264V108.723C241.834 108.705 242.198 108.616 242.358 108.456C242.517 108.292 242.597 107.903 242.597 107.288V100.214ZM250.487 99.4969C251.69 99.4969 252.731 99.9547 253.61 100.87C254.494 101.782 254.936 102.921 254.936 104.287C254.936 105.695 254.492 106.864 253.603 107.793C252.715 108.723 251.64 109.187 250.378 109.187C249.102 109.187 248.029 108.734 247.159 107.827C246.293 106.921 245.86 105.748 245.86 104.308C245.86 102.836 246.362 101.636 247.364 100.706C248.234 99.9001 249.275 99.4969 250.487 99.4969ZM250.357 99.9957C249.528 99.9957 248.863 100.303 248.362 100.918C247.738 101.684 247.425 102.805 247.425 104.281C247.425 105.793 247.749 106.957 248.396 107.773C248.892 108.392 249.549 108.702 250.364 108.702C251.234 108.702 251.952 108.363 252.517 107.684C253.086 107.005 253.371 105.934 253.371 104.472C253.371 102.887 253.059 101.704 252.435 100.925C251.934 100.306 251.241 99.9957 250.357 99.9957ZM264.429 108.976L260.848 101.178V107.37C260.848 107.939 260.909 108.294 261.032 108.436C261.201 108.627 261.467 108.723 261.832 108.723H262.16V108.976H258.934V108.723H259.262C259.654 108.723 259.932 108.604 260.096 108.367C260.196 108.222 260.246 107.889 260.246 107.37V101.315C260.246 100.905 260.201 100.609 260.11 100.426C260.046 100.294 259.927 100.185 259.754 100.098C259.586 100.007 259.312 99.9616 258.934 99.9616V99.7087H261.558L264.921 106.96L268.228 99.7087H270.853V99.9616H270.531C270.135 99.9616 269.855 100.08 269.691 100.317C269.591 100.463 269.54 100.795 269.54 101.315V107.37C269.54 107.939 269.604 108.294 269.732 108.436C269.9 108.627 270.167 108.723 270.531 108.723H270.853V108.976H266.916V108.723H267.244C267.641 108.723 267.919 108.604 268.078 108.367C268.178 108.222 268.228 107.889 268.228 107.37V101.178L264.654 108.976H264.429ZM278.216 101.24C278.216 100.684 278.125 100.333 277.943 100.187C277.765 100.037 277.403 99.9616 276.856 99.9616V99.7087H280.868V99.9616C280.294 99.9798 279.927 100.071 279.768 100.235C279.608 100.399 279.528 100.786 279.528 101.397V107.288C279.528 107.898 279.608 108.285 279.768 108.449C279.927 108.613 280.294 108.705 280.868 108.723V108.976H276.856V108.723C277.444 108.705 277.818 108.613 277.977 108.449C278.137 108.281 278.216 107.894 278.216 107.288V101.971L273.918 107.479C273.922 107.875 273.947 108.142 273.993 108.279C274.043 108.411 274.155 108.515 274.328 108.593C274.505 108.67 274.818 108.714 275.264 108.723V108.976H271.266V108.723C271.84 108.705 272.207 108.613 272.366 108.449C272.526 108.285 272.606 107.898 272.606 107.288V101.397C272.606 100.786 272.526 100.399 272.366 100.235C272.207 100.071 271.84 99.9798 271.266 99.9616V99.7087H275.264V99.9616C274.685 99.9798 274.316 100.071 274.157 100.235C273.997 100.399 273.918 100.786 273.918 101.397V106.734L278.216 101.24ZM283.865 104.007H288.17V101.356C288.17 100.882 288.141 100.57 288.081 100.419C288.036 100.306 287.94 100.208 287.794 100.126C287.598 100.016 287.391 99.9616 287.172 99.9616H286.844V99.7087H290.808V99.9616H290.48C290.261 99.9616 290.054 100.014 289.858 100.119C289.712 100.192 289.612 100.303 289.557 100.454C289.507 100.599 289.482 100.9 289.482 101.356V107.335C289.482 107.805 289.512 108.115 289.571 108.265C289.617 108.379 289.71 108.477 289.851 108.559C290.052 108.668 290.261 108.723 290.48 108.723H290.808V108.976H286.844V108.723H287.172C287.551 108.723 287.826 108.611 287.999 108.388C288.113 108.242 288.17 107.891 288.17 107.335V104.513H283.865V107.335C283.865 107.805 283.894 108.115 283.954 108.265C283.999 108.379 284.095 108.477 284.241 108.559C284.437 108.668 284.644 108.723 284.862 108.723H285.197V108.976H281.227V108.723H281.555C281.938 108.723 282.215 108.611 282.389 108.388C282.498 108.242 282.553 107.891 282.553 107.335V101.356C282.553 100.882 282.523 100.57 282.464 100.419C282.418 100.306 282.325 100.208 282.184 100.126C281.983 100.016 281.774 99.9616 281.555 99.9616H281.227V99.7087H285.197V99.9616H284.862C284.644 99.9616 284.437 100.014 284.241 100.119C284.099 100.192 284.001 100.303 283.947 100.454C283.892 100.599 283.865 100.9 283.865 101.356V104.007ZM291.659 102.203V99.5105H291.898C291.971 99.8112 292.14 99.9616 292.404 99.9616C292.504 99.9616 292.718 99.9001 293.046 99.7771C293.561 99.5903 294.101 99.4969 294.666 99.4969C295.431 99.4969 296.046 99.7269 296.511 100.187C296.976 100.647 297.208 101.185 297.208 101.8C297.208 102.36 297.033 102.841 296.682 103.242C296.331 103.638 295.866 103.93 295.288 104.117C295.917 104.231 296.425 104.518 296.812 104.978C297.199 105.433 297.393 105.971 297.393 106.591C297.393 107.356 297.097 107.98 296.504 108.463C295.912 108.946 295.176 109.187 294.297 109.187C292.989 109.187 291.976 108.568 291.256 107.329L291.488 107.178C291.72 107.556 292.058 107.882 292.5 108.156C292.942 108.429 293.418 108.566 293.928 108.566C294.534 108.566 295.003 108.365 295.336 107.964C295.673 107.559 295.841 107.064 295.841 106.481C295.841 105.88 295.63 105.372 295.206 104.957C294.782 104.543 294.08 104.335 293.101 104.335V103.884C293.793 103.884 294.315 103.811 294.666 103.666C295.017 103.52 295.302 103.283 295.52 102.955C295.739 102.627 295.848 102.246 295.848 101.814C295.848 101.312 295.696 100.902 295.39 100.583C295.085 100.265 294.67 100.105 294.147 100.105C293.495 100.105 292.985 100.299 292.616 100.686C292.251 101.069 292.012 101.574 291.898 102.203H291.659ZM298.62 99.7087H306.267V99.9616C305.693 99.9798 305.326 100.071 305.166 100.235C305.007 100.399 304.927 100.786 304.927 101.397V106.529C304.927 107.522 304.984 108.137 305.098 108.374C305.212 108.607 305.581 108.723 306.205 108.723V111.641H305.973C305.836 110.967 305.615 110.422 305.31 110.008C305.009 109.597 304.665 109.322 304.278 109.181C303.895 109.044 303.435 108.976 302.898 108.976H300.533C299.499 108.976 298.738 109.256 298.251 109.816C297.768 110.377 297.478 110.985 297.383 111.641H297.15V108.723C297.884 108.659 298.481 108.219 298.941 107.404C299.401 106.588 299.72 105.588 299.897 104.404C300.075 103.215 300.164 102.24 300.164 101.479C300.164 101.023 300.107 100.688 299.993 100.474C299.879 100.26 299.743 100.126 299.583 100.071C299.428 100.016 299.107 99.9798 298.62 99.9616V99.7087ZM300.847 100.214C300.734 102.916 300.517 104.811 300.198 105.9C299.879 106.989 299.451 107.846 298.913 108.47H302.344C302.955 108.47 303.319 108.417 303.437 108.313C303.56 108.203 303.622 107.855 303.622 107.267V100.214H300.847ZM309.257 104.636V107.335C309.257 107.919 309.321 108.281 309.448 108.422C309.621 108.622 309.883 108.723 310.234 108.723H310.589V108.976H306.619V108.723H306.967C307.359 108.723 307.639 108.595 307.808 108.34C307.899 108.199 307.945 107.864 307.945 107.335V101.349C307.945 100.766 307.883 100.404 307.76 100.262C307.582 100.062 307.318 99.9616 306.967 99.9616H306.619V99.7087H310.015C310.845 99.7087 311.498 99.7953 311.977 99.9684C312.455 100.137 312.858 100.424 313.186 100.829C313.514 101.235 313.678 101.716 313.678 102.271C313.678 103.028 313.428 103.643 312.927 104.117C312.43 104.59 311.726 104.827 310.815 104.827C310.592 104.827 310.35 104.811 310.09 104.78C309.831 104.748 309.553 104.7 309.257 104.636ZM309.257 104.246C309.498 104.292 309.712 104.326 309.899 104.349C310.086 104.372 310.245 104.383 310.378 104.383C310.851 104.383 311.259 104.201 311.601 103.836C311.947 103.467 312.12 102.991 312.12 102.408C312.12 102.007 312.038 101.636 311.874 101.294C311.71 100.948 311.478 100.691 311.177 100.522C310.876 100.349 310.535 100.262 310.152 100.262C309.92 100.262 309.621 100.306 309.257 100.392V104.246ZM318.65 105.873H315.062L314.434 107.335C314.279 107.695 314.201 107.964 314.201 108.142C314.201 108.283 314.267 108.408 314.399 108.518C314.536 108.622 314.828 108.691 315.274 108.723V108.976H312.356V108.723C312.743 108.654 312.994 108.566 313.108 108.456C313.34 108.238 313.598 107.793 313.88 107.124L317.14 99.4969H317.379L320.605 107.206C320.864 107.825 321.099 108.228 321.309 108.415C321.523 108.597 321.819 108.7 322.197 108.723V108.976H318.541V108.723C318.91 108.705 319.158 108.643 319.286 108.538C319.418 108.433 319.484 108.306 319.484 108.156C319.484 107.955 319.393 107.638 319.211 107.206L318.65 105.873ZM318.459 105.367L316.887 101.622L315.274 105.367H318.459ZM328.686 104.246C329.328 104.383 329.809 104.602 330.128 104.903C330.57 105.322 330.791 105.834 330.791 106.44C330.791 106.9 330.645 107.342 330.353 107.766C330.062 108.185 329.661 108.493 329.151 108.689C328.645 108.88 327.87 108.976 326.827 108.976H322.453V108.723H322.802C323.189 108.723 323.467 108.6 323.636 108.354C323.74 108.194 323.793 107.855 323.793 107.335V101.349C323.793 100.775 323.727 100.413 323.595 100.262C323.417 100.062 323.153 99.9616 322.802 99.9616H322.453V99.7087H326.458C327.205 99.7087 327.804 99.7634 328.255 99.8727C328.939 100.037 329.461 100.328 329.82 100.747C330.18 101.162 330.36 101.64 330.36 102.183C330.36 102.647 330.219 103.064 329.937 103.433C329.654 103.798 329.237 104.069 328.686 104.246ZM325.105 103.877C325.274 103.909 325.465 103.934 325.679 103.953C325.898 103.966 326.137 103.973 326.397 103.973C327.062 103.973 327.561 103.903 327.893 103.761C328.23 103.615 328.488 103.395 328.665 103.098C328.843 102.802 328.932 102.479 328.932 102.128C328.932 101.586 328.711 101.123 328.269 100.741C327.827 100.358 327.183 100.167 326.335 100.167C325.88 100.167 325.469 100.217 325.105 100.317V103.877ZM325.105 108.306C325.633 108.429 326.155 108.49 326.67 108.49C327.495 108.49 328.123 108.306 328.556 107.937C328.989 107.563 329.205 107.103 329.205 106.556C329.205 106.196 329.107 105.85 328.912 105.518C328.716 105.185 328.397 104.923 327.955 104.732C327.513 104.54 326.966 104.445 326.315 104.445C326.032 104.445 325.791 104.449 325.59 104.458C325.39 104.467 325.228 104.483 325.105 104.506V108.306ZM336.931 105.873H333.343L332.715 107.335C332.56 107.695 332.482 107.964 332.482 108.142C332.482 108.283 332.548 108.408 332.681 108.518C332.817 108.622 333.109 108.691 333.555 108.723V108.976H330.637V108.723C331.024 108.654 331.275 108.566 331.389 108.456C331.621 108.238 331.879 107.793 332.161 107.124L335.421 99.4969H335.66L338.886 107.206C339.146 107.825 339.38 108.228 339.59 108.415C339.804 108.597 340.1 108.7 340.478 108.723V108.976H336.822V108.723C337.191 108.705 337.439 108.643 337.567 108.538C337.699 108.433 337.765 108.306 337.765 108.156C337.765 107.955 337.674 107.638 337.492 107.206L336.931 105.873ZM336.74 105.367L335.168 101.622L333.555 105.367H336.74ZM346.732 104.636V107.335C346.732 107.919 346.795 108.281 346.923 108.422C347.096 108.622 347.358 108.723 347.709 108.723H348.064V108.976H344.094V108.723H344.442C344.834 108.723 345.114 108.595 345.283 108.34C345.374 108.199 345.419 107.864 345.419 107.335V101.349C345.419 100.766 345.358 100.404 345.235 100.262C345.057 100.062 344.793 99.9616 344.442 99.9616H344.094V99.7087H347.49C348.319 99.7087 348.973 99.7953 349.451 99.9684C349.93 100.137 350.333 100.424 350.661 100.829C350.989 101.235 351.153 101.716 351.153 102.271C351.153 103.028 350.903 103.643 350.401 104.117C349.905 104.59 349.201 104.827 348.29 104.827C348.066 104.827 347.825 104.811 347.565 104.78C347.306 104.748 347.028 104.7 346.732 104.636ZM346.732 104.246C346.973 104.292 347.187 104.326 347.374 104.349C347.561 104.372 347.72 104.383 347.852 104.383C348.326 104.383 348.734 104.201 349.076 103.836C349.422 103.467 349.595 102.991 349.595 102.408C349.595 102.007 349.513 101.636 349.349 101.294C349.185 100.948 348.953 100.691 348.652 100.522C348.351 100.349 348.009 100.262 347.627 100.262C347.394 100.262 347.096 100.306 346.732 100.392V104.246ZM356.808 99.4969C358.011 99.4969 359.052 99.9547 359.931 100.87C360.815 101.782 361.257 102.921 361.257 104.287C361.257 105.695 360.813 106.864 359.925 107.793C359.036 108.723 357.961 109.187 356.699 109.187C355.423 109.187 354.35 108.734 353.48 107.827C352.615 106.921 352.182 105.748 352.182 104.308C352.182 102.836 352.683 101.636 353.685 100.706C354.555 99.9001 355.596 99.4969 356.808 99.4969ZM356.678 99.9957C355.849 99.9957 355.184 100.303 354.683 100.918C354.059 101.684 353.747 102.805 353.747 104.281C353.747 105.793 354.07 106.957 354.717 107.773C355.214 108.392 355.87 108.702 356.685 108.702C357.556 108.702 358.273 108.363 358.838 107.684C359.408 107.005 359.692 105.934 359.692 104.472C359.692 102.887 359.38 101.704 358.756 100.925C358.255 100.306 357.562 99.9957 356.678 99.9957ZM370.268 99.4969L370.48 102.647H370.268C369.985 101.704 369.582 101.025 369.058 100.611C368.534 100.196 367.906 99.9889 367.172 99.9889C366.557 99.9889 366.001 100.146 365.505 100.46C365.008 100.77 364.616 101.267 364.329 101.95C364.047 102.634 363.906 103.483 363.906 104.499C363.906 105.338 364.04 106.064 364.309 106.679C364.578 107.294 364.981 107.766 365.518 108.094C366.061 108.422 366.678 108.586 367.37 108.586C367.972 108.586 368.503 108.458 368.963 108.203C369.423 107.944 369.929 107.431 370.48 106.666L370.692 106.802C370.227 107.627 369.685 108.231 369.065 108.613C368.446 108.996 367.71 109.187 366.858 109.187C365.322 109.187 364.133 108.618 363.29 107.479C362.662 106.632 362.347 105.634 362.347 104.486C362.347 103.561 362.555 102.711 362.969 101.937C363.384 101.162 363.953 100.563 364.678 100.139C365.407 99.711 366.202 99.4969 367.063 99.4969C367.733 99.4969 368.393 99.6609 369.045 99.9889C369.236 100.089 369.373 100.139 369.455 100.139C369.578 100.139 369.685 100.096 369.776 100.009C369.894 99.8864 369.979 99.7156 370.029 99.4969H370.268ZM379.463 99.4969L379.675 102.647H379.463C379.181 101.704 378.778 101.025 378.254 100.611C377.73 100.196 377.101 99.9889 376.367 99.9889C375.752 99.9889 375.197 100.146 374.7 100.46C374.203 100.77 373.812 101.267 373.524 101.95C373.242 102.634 373.101 103.483 373.101 104.499C373.101 105.338 373.235 106.064 373.504 106.679C373.773 107.294 374.176 107.766 374.714 108.094C375.256 108.422 375.873 108.586 376.566 108.586C377.167 108.586 377.698 108.458 378.158 108.203C378.618 107.944 379.124 107.431 379.675 106.666L379.887 106.802C379.422 107.627 378.88 108.231 378.26 108.613C377.641 108.996 376.905 109.187 376.053 109.187C374.518 109.187 373.329 108.618 372.486 107.479C371.857 106.632 371.543 105.634 371.543 104.486C371.543 103.561 371.75 102.711 372.165 101.937C372.579 101.162 373.149 100.563 373.873 100.139C374.602 99.711 375.397 99.4969 376.258 99.4969C376.928 99.4969 377.588 99.6609 378.24 99.9889C378.431 100.089 378.568 100.139 378.65 100.139C378.773 100.139 378.88 100.096 378.971 100.009C379.09 99.8864 379.174 99.7156 379.224 99.4969H379.463ZM387.435 101.24C387.435 100.684 387.344 100.333 387.162 100.187C386.984 100.037 386.622 99.9616 386.075 99.9616V99.7087H390.087V99.9616C389.513 99.9798 389.146 100.071 388.986 100.235C388.827 100.399 388.747 100.786 388.747 101.397V107.288C388.747 107.898 388.827 108.285 388.986 108.449C389.146 108.613 389.513 108.705 390.087 108.723V108.976H386.075V108.723C386.663 108.705 387.037 108.613 387.196 108.449C387.355 108.281 387.435 107.894 387.435 107.288V101.971L383.137 107.479C383.141 107.875 383.166 108.142 383.212 108.279C383.262 108.411 383.374 108.515 383.547 108.593C383.724 108.67 384.036 108.714 384.483 108.723V108.976H380.485V108.723C381.059 108.705 381.426 108.613 381.585 108.449C381.745 108.285 381.824 107.898 381.824 107.288V101.397C381.824 100.786 381.745 100.399 381.585 100.235C381.426 100.071 381.059 99.9798 380.485 99.9616V99.7087H384.483V99.9616C383.904 99.9798 383.535 100.071 383.376 100.235C383.216 100.399 383.137 100.786 383.137 101.397V106.734L387.435 101.24ZM397.409 101.24C397.409 100.684 397.318 100.333 397.136 100.187C396.958 100.037 396.596 99.9616 396.05 99.9616V99.7087H400.061V99.9616C399.487 99.9798 399.12 100.071 398.961 100.235C398.801 100.399 398.722 100.786 398.722 101.397V107.288C398.722 107.898 398.801 108.285 398.961 108.449C399.12 108.613 399.487 108.705 400.061 108.723V108.976H396.05V108.723C396.637 108.705 397.011 108.613 397.17 108.449C397.33 108.281 397.409 107.894 397.409 107.288V101.971L393.111 107.479C393.115 107.875 393.141 108.142 393.186 108.279C393.236 108.411 393.348 108.515 393.521 108.593C393.699 108.67 394.011 108.714 394.457 108.723V108.976H390.459V108.723C391.033 108.705 391.4 108.613 391.56 108.449C391.719 108.285 391.799 107.898 391.799 107.288V101.397C391.799 100.786 391.719 100.399 391.56 100.235C391.4 100.071 391.033 99.9798 390.459 99.9616V99.7087H394.457V99.9616C393.879 99.9798 393.51 100.071 393.35 100.235C393.191 100.399 393.111 100.786 393.111 101.397V106.734L397.409 101.24Z" fill="#DBBEA4"/>
</g>
<defs>
<clipPath id="clip0">
<rect width="403" height="112" fill="white"/>
</clipPath>
</defs>
</svg>
