<svg width="503" height="202" viewBox="0 0 503 202" fill="none" xmlns="http://www.w3.org/2000/svg">
<path d="M133.471 29.017H156.647V30.0923C155.364 30.0923 154.505 30.2244 154.072 30.4885C153.657 30.7338 153.326 31.045 153.081 31.4223C152.836 31.7996 152.713 33.0258 152.713 35.101V48.8535C152.713 50.8532 152.817 52.0512 153.025 52.4473C153.232 52.8246 153.553 53.1642 153.987 53.466C154.439 53.749 155.326 53.8905 156.647 53.8905V54.9375H143.234V53.8905C144.686 53.8905 145.686 53.815 146.233 53.6641C146.799 53.5132 147.242 53.1548 147.563 52.5888C147.884 52.004 148.044 50.7589 148.044 48.8535V30.8564H139.413V41.7792C139.413 45.9106 139.225 48.8158 138.848 50.4948C138.489 52.1549 137.763 53.3906 136.669 54.2018C135.593 54.9941 134.358 55.3903 132.962 55.3903C130.547 55.3903 129.34 54.3904 129.34 52.3907C129.34 51.7116 129.528 51.1551 129.906 50.7212C130.302 50.2873 130.811 50.0703 131.434 50.0703C132.094 50.0703 132.707 50.3439 133.273 50.891C134.009 51.6078 134.565 51.9663 134.942 51.9663C135.791 51.9663 136.404 51.2588 136.782 49.844C137.178 48.4102 137.376 45.9106 137.376 42.3451V36.6291C137.376 33.6861 137.159 31.8939 136.725 31.2525C136.31 30.6111 135.225 30.2244 133.471 30.0923V29.017ZM168.983 46.9576L180.189 33.9974C180.151 32.5448 179.878 31.5355 179.368 30.9696C178.859 30.4036 177.982 30.1112 176.737 30.0923V29.017H188.791V30.0923C187.527 30.0923 186.678 30.2244 186.245 30.4885C185.811 30.7338 185.471 31.045 185.226 31.4223C184.981 31.7996 184.858 33.0258 184.858 35.101V48.8535C184.858 50.8532 184.962 52.0512 185.169 52.4473C185.377 52.8246 185.698 53.1642 186.131 53.466C186.584 53.749 187.471 53.8905 188.791 53.8905V54.9375H176.256V53.8905C177.821 53.8905 178.868 53.6075 179.397 53.0416C179.925 52.4568 180.189 51.0607 180.189 48.8535V36.6573L168.983 49.6459C169.021 51.2494 169.247 52.353 169.662 52.9567C170.077 53.5604 170.973 53.8716 172.351 53.8905V54.9375H160.381V53.8905C162.06 53.8905 163.135 53.5887 163.607 52.985C164.078 52.3624 164.314 50.9853 164.314 48.8535V35.101C164.314 33.0824 164.21 31.8939 164.003 31.5355C163.795 31.1582 163.475 30.8281 163.041 30.5451C162.607 30.2433 161.72 30.0923 160.381 30.0923V29.017H172.917V30.0923C171.653 30.0923 170.804 30.2244 170.37 30.4885C169.936 30.7338 169.596 31.045 169.351 31.4223C169.106 31.7996 168.983 33.0258 168.983 35.101V46.9576ZM201.156 40.5907H212.362V35.101C212.362 33.4597 212.296 32.3939 212.164 31.9034C212.032 31.394 211.702 30.9696 211.174 30.63C210.664 30.2716 209.749 30.0923 208.429 30.0923V29.017H220.964V30.0923C219.795 30.0923 218.936 30.2244 218.389 30.4885C217.861 30.7526 217.503 31.1393 217.314 31.6487C217.125 32.1392 217.031 33.29 217.031 35.101V48.8535C217.031 50.4948 217.097 51.5795 217.229 52.1078C217.38 52.636 217.729 53.0699 218.276 53.4094C218.823 53.7301 219.719 53.8905 220.964 53.8905V54.9375H208.429V53.8905C209.994 53.8905 211.041 53.6075 211.57 53.0416C212.098 52.4568 212.362 51.0607 212.362 48.8535V42.43H201.156V48.8535C201.156 50.4948 201.222 51.5795 201.354 52.1078C201.505 52.636 201.854 53.0699 202.401 53.4094C202.948 53.7301 203.844 53.8905 205.09 53.8905V54.9375H192.554V53.8905C194.233 53.8905 195.308 53.5887 195.78 52.985C196.251 52.3624 196.487 50.9853 196.487 48.8535V35.101C196.487 33.4597 196.412 32.375 196.261 31.8468C196.129 31.3186 195.789 30.8941 195.242 30.5734C194.695 30.2527 193.799 30.0923 192.554 30.0923V29.017H205.09V30.0923C203.92 30.0923 203.062 30.2244 202.515 30.4885C201.986 30.7526 201.628 31.1393 201.439 31.6487C201.251 32.1392 201.156 33.29 201.156 35.101V40.5907ZM233.329 46.9576L244.535 33.9974C244.497 32.5448 244.224 31.5355 243.714 30.9696C243.205 30.4036 242.328 30.1112 241.083 30.0923V29.017H253.138V30.0923C251.874 30.0923 251.025 30.2244 250.591 30.4885C250.157 30.7338 249.817 31.045 249.572 31.4223C249.327 31.7996 249.204 33.0258 249.204 35.101V48.8535C249.204 50.8532 249.308 52.0512 249.515 52.4473C249.723 52.8246 250.044 53.1642 250.478 53.466C250.93 53.749 251.817 53.8905 253.138 53.8905V54.9375H240.602V53.8905C242.168 53.8905 243.215 53.6075 243.743 53.0416C244.271 52.4568 244.535 51.0607 244.535 48.8535V36.6573L233.329 49.6459C233.367 51.2494 233.593 52.353 234.008 52.9567C234.423 53.5604 235.32 53.8716 236.697 53.8905V54.9375H224.727V53.8905C226.406 53.8905 227.481 53.5887 227.953 52.985C228.424 52.3624 228.66 50.9853 228.66 48.8535V35.101C228.66 33.0824 228.556 31.8939 228.349 31.5355C228.141 31.1582 227.821 30.8281 227.387 30.5451C226.953 30.2433 226.066 30.0923 224.727 30.0923V29.017H237.263V30.0923C235.999 30.0923 235.15 30.2244 234.716 30.4885C234.282 30.7338 233.942 31.045 233.697 31.4223C233.452 31.7996 233.329 33.0258 233.329 35.101V46.9576ZM283.415 54.9375H275.774C273.397 51.4852 271.247 47.948 269.323 44.326C268.87 43.4959 268.455 42.8828 268.077 42.4866C267.719 42.0716 267.219 41.8641 266.578 41.8641C266.351 41.8641 265.993 41.8829 265.502 41.9207V48.8535C265.502 50.7212 265.606 51.9191 265.814 52.4473C266.04 52.9567 266.436 53.3245 267.002 53.5509C267.568 53.7773 268.521 53.8905 269.86 53.8905V54.9375H256.9V53.8905C258.579 53.8905 259.654 53.5887 260.126 52.985C260.597 52.3624 260.833 50.9853 260.833 48.8535V35.101C260.833 33.0824 260.73 31.8939 260.522 31.5355C260.314 31.1582 259.994 30.8281 259.56 30.5451C259.126 30.2433 258.239 30.0923 256.9 30.0923V29.017H269.86V30.0923C268.294 30.0923 267.323 30.2055 266.946 30.4319C266.587 30.6583 266.257 30.9413 265.955 31.2808C265.653 31.6015 265.502 32.8749 265.502 35.101V40.1945C265.936 40.2323 266.229 40.2511 266.38 40.2511C267.53 40.2511 268.606 39.9304 269.605 39.289C270.624 38.6287 271.53 37.2422 272.322 35.1293C273.058 33.1296 273.661 31.7808 274.133 31.0828C274.624 30.3847 275.293 29.8188 276.142 29.3849C277.01 28.9321 277.916 28.7058 278.859 28.7058C279.877 28.7058 280.689 28.951 281.292 29.4415C281.896 29.932 282.198 30.5734 282.198 31.3657C282.198 32.026 281.981 32.5919 281.547 33.0636C281.113 33.5163 280.509 33.7427 279.736 33.7427C279.321 33.7427 278.802 33.6295 278.18 33.4031C277.387 33.1202 276.784 32.9787 276.369 32.9787C275.501 32.9787 274.784 33.7238 274.218 35.2142C273.577 36.9309 273.105 38.0439 272.803 38.5533C272.501 39.0438 271.926 39.704 271.077 40.5341C271.662 40.7039 272.294 41.1378 272.973 41.8358C273.671 42.5338 274.954 44.524 276.821 47.8065C278.312 50.4288 279.425 52.0889 280.16 52.7869C280.915 53.4849 282 53.8528 283.415 53.8905V54.9375ZM300.533 51.2022C297.874 53.2585 296.204 54.447 295.525 54.7677C294.506 55.2393 293.421 55.4752 292.271 55.4752C290.478 55.4752 288.998 54.862 287.828 53.6358C286.677 52.4096 286.102 50.7966 286.102 48.797C286.102 47.533 286.385 46.4388 286.951 45.5145C287.724 44.2316 289.064 43.0243 290.969 41.8924C292.893 40.7605 296.081 39.3833 300.533 37.7609V36.7422C300.533 34.1577 300.118 32.3844 299.288 31.4223C298.477 30.4602 297.289 29.9792 295.723 29.9792C294.534 29.9792 293.591 30.2999 292.893 30.9413C292.176 31.5827 291.818 32.3184 291.818 33.1485L291.874 34.7897C291.874 35.6575 291.648 36.3272 291.195 36.7988C290.761 37.2705 290.186 37.5063 289.469 37.5063C288.771 37.5063 288.196 37.261 287.743 36.7705C287.309 36.2801 287.092 35.6103 287.092 34.7614C287.092 33.139 287.922 31.6487 289.582 30.2904C291.242 28.9321 293.572 28.253 296.572 28.253C298.873 28.253 300.76 28.6397 302.231 29.4132C303.344 29.998 304.165 30.913 304.693 32.1581C305.033 32.9692 305.203 34.6294 305.203 37.1384V45.9389C305.203 48.4102 305.25 49.9289 305.344 50.4948C305.438 51.0419 305.589 51.4098 305.797 51.5984C306.023 51.7871 306.278 51.8814 306.561 51.8814C306.863 51.8814 307.127 51.8153 307.353 51.6833C307.749 51.438 308.513 50.7495 309.645 49.6176V51.2022C307.532 54.032 305.514 55.4469 303.59 55.4469C302.665 55.4469 301.929 55.1261 301.382 54.4847C300.835 53.8433 300.552 52.7492 300.533 51.2022ZM300.533 49.3629V39.4871C297.685 40.619 295.846 41.4208 295.015 41.8924C293.525 42.7224 292.459 43.5902 291.818 44.4957C291.176 45.4013 290.856 46.3917 290.856 47.467C290.856 48.8253 291.261 49.9571 292.073 50.8627C292.884 51.7493 293.818 52.1926 294.874 52.1926C296.308 52.1926 298.194 51.2494 300.533 49.3629ZM336.497 46.9576L347.703 33.9974C347.665 32.5448 347.392 31.5355 346.882 30.9696C346.373 30.4036 345.496 30.1112 344.251 30.0923V29.017H356.305V30.0923C355.042 30.0923 354.193 30.2244 353.759 30.4885C353.325 30.7338 352.985 31.045 352.74 31.4223C352.495 31.7996 352.372 33.0258 352.372 35.101V48.8535C352.372 50.8532 352.476 52.0512 352.683 52.4473C352.891 52.8246 353.212 53.1642 353.646 53.466C354.098 53.749 354.985 53.8905 356.305 53.8905V54.9375H343.77V53.8905C345.335 53.8905 346.383 53.6075 346.911 53.0416C347.439 52.4568 347.703 51.0607 347.703 48.8535V36.6573L336.497 49.6459C336.535 51.2494 336.761 52.353 337.176 52.9567C337.591 53.5604 338.488 53.8716 339.865 53.8905V54.9375H327.895V53.8905C329.574 53.8905 330.649 53.5887 331.121 52.985C331.592 52.3624 331.828 50.9853 331.828 48.8535V35.101C331.828 33.0824 331.724 31.8939 331.517 31.5355C331.309 31.1582 330.989 30.8281 330.555 30.5451C330.121 30.2433 329.234 30.0923 327.895 30.0923V29.017H340.431V30.0923C339.167 30.0923 338.318 30.2244 337.884 30.4885C337.45 30.7338 337.11 31.045 336.865 31.4223C336.62 31.7996 336.497 33.0258 336.497 35.101V46.9576ZM377.329 48.1744L385.422 29.017H394.166V30.0923C392.884 30.0923 392.025 30.2244 391.591 30.4885C391.176 30.7338 390.846 31.045 390.601 31.4223C390.356 31.7996 390.233 33.0258 390.233 35.101V48.8535C390.233 50.6457 390.318 51.8059 390.488 52.3341C390.676 52.8435 391.044 53.2302 391.591 53.4943C392.157 53.7584 393.016 53.8905 394.166 53.8905V54.9375H381.631V53.8905C383.177 53.8905 384.215 53.6075 384.743 53.0416C385.271 52.4568 385.536 51.0607 385.536 48.8535V33.2617L376.367 54.9375H375.377L366.039 33.2617V48.8535C366.039 50.6457 366.133 51.8059 366.322 52.3341C366.51 52.8435 366.878 53.2302 367.425 53.4943C367.972 53.7584 368.821 53.8905 369.972 53.8905V54.9375H360.068V53.8905C361.747 53.8905 362.822 53.5887 363.294 52.985C363.765 52.3624 364.001 50.9853 364.001 48.8535V35.101C364.001 33.0824 363.897 31.8939 363.69 31.5355C363.482 31.1582 363.162 30.8281 362.728 30.5451C362.294 30.2433 361.407 30.0923 360.068 30.0923V29.017H369.18L377.329 48.1744ZM402.768 38.7797C402.749 42.6281 403.683 45.6465 405.569 47.8348C407.456 50.0232 409.672 51.1173 412.219 51.1173C413.917 51.1173 415.388 50.6552 416.633 49.7308C417.897 48.7875 418.954 47.184 419.803 44.9202L420.68 45.4862C420.284 48.0707 419.133 50.4288 417.228 52.5605C415.322 54.6734 412.936 55.7298 410.068 55.7298C406.956 55.7298 404.286 54.5225 402.06 52.1078C399.853 49.6742 398.749 46.4105 398.749 42.3168C398.749 37.8836 399.881 34.4313 402.145 31.96C404.428 29.4698 407.286 28.2247 410.719 28.2247C413.624 28.2247 416.011 29.1868 417.878 31.111C419.746 33.0164 420.68 35.5726 420.68 38.7797H402.768ZM402.768 37.1384H414.766C414.671 35.4783 414.473 34.3087 414.171 33.6295C413.7 32.5731 412.992 31.743 412.049 31.1393C411.125 30.5357 410.153 30.2338 409.135 30.2338C407.569 30.2338 406.163 30.8469 404.918 32.0732C403.692 33.2805 402.975 34.9689 402.768 37.1384ZM433.413 40.5907H444.618V35.101C444.618 33.4597 444.552 32.3939 444.42 31.9034C444.288 31.394 443.958 30.9696 443.43 30.63C442.921 30.2716 442.006 30.0923 440.685 30.0923V29.017H453.221V30.0923C452.051 30.0923 451.193 30.2244 450.646 30.4885C450.118 30.7526 449.759 31.1393 449.57 31.6487C449.382 32.1392 449.287 33.29 449.287 35.101V48.8535C449.287 50.4948 449.354 51.5795 449.486 52.1078C449.636 52.636 449.985 53.0699 450.533 53.4094C451.08 53.7301 451.976 53.8905 453.221 53.8905V54.9375H440.685V53.8905C442.251 53.8905 443.298 53.6075 443.826 53.0416C444.354 52.4568 444.618 51.0607 444.618 48.8535V42.43H433.413V48.8535C433.413 50.4948 433.479 51.5795 433.611 52.1078C433.762 52.636 434.111 53.0699 434.658 53.4094C435.205 53.7301 436.101 53.8905 437.346 53.8905V54.9375H424.81V53.8905C426.489 53.8905 427.564 53.5887 428.036 52.985C428.508 52.3624 428.744 50.9853 428.744 48.8535V35.101C428.744 33.4597 428.668 32.375 428.517 31.8468C428.385 31.3186 428.046 30.8941 427.498 30.5734C426.951 30.2527 426.055 30.0923 424.81 30.0923V29.017H437.346V30.0923C436.176 30.0923 435.318 30.2244 434.771 30.4885C434.243 30.7526 433.884 31.1393 433.696 31.6487C433.507 32.1392 433.413 33.29 433.413 35.101V40.5907ZM465.586 46.9576L476.791 33.9974C476.754 32.5448 476.48 31.5355 475.971 30.9696C475.461 30.4036 474.584 30.1112 473.339 30.0923V29.017H485.394V30.0923C484.13 30.0923 483.281 30.2244 482.847 30.4885C482.413 30.7338 482.074 31.045 481.828 31.4223C481.583 31.7996 481.461 33.0258 481.461 35.101V48.8535C481.461 50.8532 481.564 52.0512 481.772 52.4473C481.979 52.8246 482.3 53.1642 482.734 53.466C483.187 53.749 484.073 53.8905 485.394 53.8905V54.9375H472.858V53.8905C474.424 53.8905 475.471 53.6075 475.999 53.0416C476.527 52.4568 476.791 51.0607 476.791 48.8535V36.6573L465.586 49.6459C465.623 51.2494 465.85 52.353 466.265 52.9567C466.68 53.5604 467.576 53.8716 468.953 53.8905V54.9375H456.983V53.8905C458.662 53.8905 459.738 53.5887 460.209 52.985C460.681 52.3624 460.917 50.9853 460.917 48.8535V35.101C460.917 33.0824 460.813 31.8939 460.605 31.5355C460.398 31.1582 460.077 30.8281 459.643 30.5451C459.209 30.2433 458.323 30.0923 456.983 30.0923V29.017H469.519V30.0923C468.255 30.0923 467.406 30.2244 466.972 30.4885C466.538 30.7338 466.199 31.045 465.954 31.4223C465.708 31.7996 465.586 33.0258 465.586 35.101V46.9576Z" fill="white"/>
<path d="M130.408 152.199V155.75H96.8223C93.1758 149.928 85.4992 138.957 73.7922 122.836C62.0852 106.651 54.9523 97.6945 52.3934 95.9673C49.8345 94.176 45.9642 93.2484 40.7824 93.1845V132.048C40.7824 140.62 41.87 146.058 44.045 148.361C46.2841 150.664 51.4658 151.943 59.5903 152.199V155.75H3.55047V152.199C11.547 151.943 16.6648 150.696 18.9039 148.457C21.2069 146.154 22.3584 140.684 22.3584 132.048V49.3314C22.3584 40.7591 21.2388 35.3214 18.9998 33.0184C16.7608 30.7154 11.611 29.4359 3.55047 29.1801V25.6296H59.5903V29.1801C51.4658 29.4359 46.2841 30.7154 44.045 33.0184C41.87 35.3214 40.7824 40.7591 40.7824 49.3314V85.6037C47.7554 85.5398 52.5853 85.092 55.2722 84.2603C57.959 83.3647 60.9657 81.3816 64.2923 78.3109C67.6828 75.2402 70.3377 71.9456 72.2569 68.4271C74.24 64.8447 76.7669 58.9912 79.8376 50.8667C82.7164 43.254 85.0514 37.9763 86.8426 35.0335C88.6978 32.0268 91.6405 29.4679 95.6708 27.3568C99.701 25.1818 104.499 24.0942 110.065 24.0942C119.916 24.0942 124.842 27.5488 124.842 34.4578C124.842 36.8887 123.851 38.9998 121.867 40.791C119.948 42.5823 117.741 43.4779 115.246 43.4779C113.455 43.4779 110.448 42.4543 106.226 40.4072C102.516 38.552 99.9249 37.6244 98.4536 37.6244C96.4065 37.6244 94.6472 38.7119 93.1758 40.887C91.7045 42.9981 89.3695 48.4358 86.1709 57.2C80.0295 73.5769 72.1929 83.9724 62.661 88.3865C68.4825 89.4101 76.543 97.3747 86.8426 112.28C97.7819 128.081 105.81 138.637 110.928 143.947C116.046 149.256 122.539 152.007 130.408 152.199Z" fill="white"/>
<path d="M147.711 100.078H140.421V110.843C140.421 112.951 140.691 114.362 141.231 115.076C141.771 115.79 142.93 116.147 144.706 116.147H145.516V117.114H130.335V116.147H131.407C132.382 116.147 133.192 115.973 133.837 115.625C134.481 115.276 134.899 114.824 135.091 114.266C135.3 113.709 135.404 112.568 135.404 110.843V87.9538C135.404 86.2641 135.291 85.1144 135.065 84.5047C134.856 83.8951 134.429 83.4334 133.784 83.1199C133.157 82.8063 132.277 82.6496 131.145 82.6496H130.335V81.6828H145.516V82.6496H144.706C143.435 82.6496 142.529 82.8238 141.989 83.1721C141.449 83.5031 141.048 83.9125 140.787 84.4002C140.543 84.8706 140.421 86.0551 140.421 87.9538V98.1704H147.711C147.955 93.0491 149.802 88.8858 153.251 85.6806C156.717 82.4754 160.767 80.8728 165.401 80.8728C169.86 80.8728 173.806 82.5886 177.238 86.0203C180.669 89.4519 182.385 93.8504 182.385 99.2156C182.385 104.354 180.739 108.762 177.447 112.437C174.172 116.095 170.008 117.924 164.957 117.924C161.682 117.924 158.781 117.158 156.256 115.625C153.73 114.092 151.692 111.967 150.141 109.249C148.591 106.514 147.781 103.457 147.711 100.078ZM164.904 82.7802C161.525 82.7802 158.808 84.1825 156.752 86.987C154.697 89.7742 153.669 93.8329 153.669 99.1633C153.669 104.145 154.627 108.213 156.543 111.366C158.477 114.501 161.272 116.069 164.931 116.069C168.484 116.069 171.28 114.693 173.318 111.941C175.374 109.171 176.401 105.156 176.401 99.895C176.401 94.5646 175.435 90.3839 173.501 87.3529C171.585 84.3044 168.719 82.7802 164.904 82.7802ZM191.06 112.045C191.879 112.045 192.567 112.333 193.124 112.907C193.682 113.465 193.96 114.144 193.96 114.946C193.96 115.747 193.673 116.435 193.098 117.01C192.541 117.567 191.861 117.846 191.06 117.846C190.259 117.846 189.571 117.567 188.996 117.01C188.438 116.435 188.16 115.747 188.16 114.946C188.16 114.127 188.438 113.439 188.996 112.881C189.571 112.324 190.259 112.045 191.06 112.045ZM208.75 98.1182H225.211V87.98C225.211 86.1683 225.098 84.9751 224.871 84.4002C224.697 83.9647 224.331 83.5902 223.774 83.2767C223.025 82.8586 222.232 82.6496 221.396 82.6496H220.142V81.6828H235.297V82.6496H234.043C233.207 82.6496 232.414 82.8499 231.665 83.2505C231.108 83.5292 230.724 83.956 230.515 84.5309C230.324 85.0883 230.228 86.238 230.228 87.98V110.843C230.228 112.637 230.341 113.822 230.568 114.397C230.742 114.832 231.099 115.207 231.639 115.52C232.405 115.938 233.207 116.147 234.043 116.147H235.297V117.114H220.142V116.147H221.396C222.842 116.147 223.896 115.721 224.558 114.867C224.993 114.31 225.211 112.968 225.211 110.843V100.052H208.75V110.843C208.75 112.637 208.863 113.822 209.089 114.397C209.263 114.832 209.629 115.207 210.187 115.52C210.936 115.938 211.728 116.147 212.564 116.147H213.845V117.114H198.664V116.147H199.918C201.381 116.147 202.444 115.721 203.106 114.867C203.524 114.31 203.733 112.968 203.733 110.843V87.98C203.733 86.1683 203.62 84.9751 203.393 84.4002C203.219 83.9647 202.862 83.5902 202.322 83.2767C201.555 82.8586 200.754 82.6496 199.918 82.6496H198.664V81.6828H213.845V82.6496H212.564C211.728 82.6496 210.936 82.8499 210.187 83.2505C209.647 83.5292 209.272 83.956 209.063 84.5309C208.854 85.0883 208.75 86.238 208.75 87.98V98.1182ZM243.11 112.045C243.928 112.045 244.617 112.333 245.174 112.907C245.731 113.465 246.01 114.144 246.01 114.946C246.01 115.747 245.723 116.435 245.148 117.01C244.59 117.567 243.911 117.846 243.11 117.846C242.308 117.846 241.62 117.567 241.046 117.01C240.488 116.435 240.209 115.747 240.209 114.946C240.209 114.127 240.488 113.439 241.046 112.881C241.62 112.324 242.308 112.045 243.11 112.045ZM285.309 116.147V117.114H276.163C275.171 115.529 273.08 112.542 269.892 108.152C266.705 103.745 264.762 101.306 264.066 100.836C263.369 100.348 262.315 100.095 260.904 100.078V110.66C260.904 112.995 261.2 114.475 261.792 115.102C262.402 115.729 263.813 116.078 266.025 116.147V117.114H250.766V116.147C252.943 116.078 254.337 115.738 254.946 115.128C255.573 114.501 255.887 113.012 255.887 110.66V88.1367C255.887 85.8025 255.582 84.3218 254.973 83.6947C254.363 83.0676 252.961 82.7192 250.766 82.6496V81.6828H266.025V82.6496C263.813 82.7192 262.402 83.0676 261.792 83.6947C261.2 84.3218 260.904 85.8025 260.904 88.1367V98.0137C262.803 97.9962 264.118 97.8743 264.849 97.6478C265.581 97.404 266.4 96.864 267.306 96.0278C268.229 95.1917 268.952 94.2946 269.474 93.3365C270.014 92.361 270.702 90.7671 271.539 88.5548C272.322 86.4819 272.958 85.0448 273.446 84.2435C273.951 83.4247 274.752 82.7279 275.85 82.1531C276.947 81.5608 278.254 81.2647 279.769 81.2647C282.452 81.2647 283.793 82.2054 283.793 84.0867C283.793 84.7486 283.523 85.3235 282.983 85.8112C282.461 86.299 281.86 86.5428 281.18 86.5428C280.693 86.5428 279.874 86.2641 278.724 85.7067C277.714 85.2015 277.008 84.9489 276.608 84.9489C276.05 84.9489 275.571 85.2451 275.171 85.8373C274.77 86.4122 274.134 87.8929 273.263 90.2793C271.591 94.7388 269.457 97.5695 266.861 98.7714C268.447 99.0501 270.641 101.219 273.446 105.278C276.425 109.58 278.611 112.455 280.004 113.9C281.398 115.346 283.166 116.095 285.309 116.147ZM299.994 113.665C297.537 115.564 295.996 116.661 295.369 116.957C294.428 117.393 293.426 117.611 292.364 117.611C290.709 117.611 289.341 117.045 288.261 115.912C287.199 114.78 286.668 113.291 286.668 111.444C286.668 110.277 286.929 109.267 287.451 108.413C288.166 107.229 289.402 106.114 291.162 105.069C292.939 104.023 295.882 102.752 299.994 101.254V100.313C299.994 97.9266 299.61 96.2891 298.844 95.4007C298.095 94.5123 296.997 94.0681 295.552 94.0681C294.454 94.0681 293.583 94.3642 292.939 94.9565C292.277 95.5488 291.946 96.2281 291.946 96.9946L291.998 98.5101C291.998 99.3114 291.789 99.9298 291.371 100.365C290.97 100.801 290.439 101.019 289.777 101.019C289.132 101.019 288.601 100.792 288.183 100.339C287.782 99.8863 287.582 99.2679 287.582 98.484C287.582 96.9859 288.348 95.6097 289.881 94.3555C291.414 93.1013 293.566 92.4742 296.335 92.4742C298.461 92.4742 300.203 92.8313 301.561 93.5455C302.589 94.0855 303.347 94.9304 303.835 96.0801C304.148 96.8291 304.305 98.362 304.305 100.679V108.805C304.305 111.087 304.348 112.489 304.436 113.012C304.523 113.517 304.662 113.857 304.854 114.031C305.063 114.205 305.298 114.292 305.559 114.292C305.838 114.292 306.082 114.231 306.291 114.109C306.657 113.883 307.362 113.247 308.407 112.202V113.665C306.456 116.278 304.592 117.585 302.815 117.585C301.962 117.585 301.283 117.288 300.777 116.696C300.272 116.104 300.011 115.094 299.994 113.665ZM299.994 111.967V102.848C297.363 103.893 295.665 104.633 294.898 105.069C293.522 105.835 292.538 106.636 291.946 107.473C291.353 108.309 291.057 109.223 291.057 110.216C291.057 111.47 291.432 112.515 292.181 113.352C292.93 114.17 293.792 114.58 294.768 114.58C296.092 114.58 297.833 113.709 299.994 111.967ZM330.539 108.021C329.894 111.174 328.631 113.604 326.75 115.311C324.869 117.001 322.787 117.846 320.505 117.846C317.788 117.846 315.419 116.705 313.398 114.423C311.377 112.141 310.367 109.058 310.367 105.173C310.367 101.41 311.482 98.3533 313.711 96.0017C315.959 93.65 318.65 92.4742 321.785 92.4742C324.137 92.4742 326.071 93.1013 327.586 94.3555C329.102 95.5923 329.859 96.8814 329.859 98.2227C329.859 98.8846 329.642 99.4246 329.206 99.8427C328.788 100.243 328.196 100.444 327.429 100.444C326.402 100.444 325.626 100.113 325.104 99.4508C324.808 99.085 324.607 98.3882 324.503 97.3604C324.416 96.3327 324.067 95.5488 323.458 95.0088C322.848 94.4862 322.003 94.2249 320.923 94.2249C319.181 94.2249 317.779 94.8694 316.716 96.1585C315.305 97.8656 314.6 100.121 314.6 102.926C314.6 105.783 315.297 108.309 316.69 110.504C318.101 112.681 320 113.77 322.386 113.77C324.094 113.77 325.626 113.186 326.985 112.019C327.943 111.218 328.875 109.763 329.781 107.655L330.539 108.021ZM348.228 113.665C345.772 115.564 344.231 116.661 343.603 116.957C342.663 117.393 341.661 117.611 340.599 117.611C338.944 117.611 337.576 117.045 336.496 115.912C335.434 114.78 334.902 113.291 334.902 111.444C334.902 110.277 335.164 109.267 335.686 108.413C336.4 107.229 337.637 106.114 339.397 105.069C341.173 104.023 344.117 102.752 348.228 101.254V100.313C348.228 97.9266 347.845 96.2891 347.079 95.4007C346.33 94.5123 345.232 94.0681 343.786 94.0681C342.689 94.0681 341.818 94.3642 341.173 94.9565C340.512 95.5488 340.181 96.2281 340.181 96.9946L340.233 98.5101C340.233 99.3114 340.024 99.9298 339.606 100.365C339.205 100.801 338.674 101.019 338.012 101.019C337.367 101.019 336.836 100.792 336.418 100.339C336.017 99.8863 335.817 99.2679 335.817 98.484C335.817 96.9859 336.583 95.6097 338.116 94.3555C339.649 93.1013 341.801 92.4742 344.57 92.4742C346.695 92.4742 348.437 92.8313 349.796 93.5455C350.824 94.0855 351.582 94.9304 352.069 96.0801C352.383 96.8291 352.54 98.362 352.54 100.679V108.805C352.54 111.087 352.583 112.489 352.67 113.012C352.757 113.517 352.897 113.857 353.088 114.031C353.298 114.205 353.533 114.292 353.794 114.292C354.073 114.292 354.317 114.231 354.526 114.109C354.891 113.883 355.597 113.247 356.642 112.202V113.665C354.691 116.278 352.827 117.585 351.05 117.585C350.197 117.585 349.517 117.288 349.012 116.696C348.507 116.104 348.246 115.094 348.228 113.665ZM348.228 111.967V102.848C345.598 103.893 343.9 104.633 343.133 105.069C341.757 105.835 340.773 106.636 340.181 107.473C339.588 108.309 339.292 109.223 339.292 110.216C339.292 111.47 339.667 112.515 340.416 113.352C341.165 114.17 342.027 114.58 343.003 114.58C344.326 114.58 346.068 113.709 348.228 111.967ZM356.668 93.1797H377.363L378.408 99.6598H377.232C377.023 98.3533 376.675 97.343 376.187 96.6288C375.699 95.9146 375.142 95.4443 374.515 95.2178C373.887 94.9914 372.816 94.8781 371.301 94.8781H369.21V111.496C369.21 113.273 369.315 114.406 369.524 114.893C369.75 115.364 370.107 115.677 370.595 115.834C371.083 115.991 372.198 116.095 373.94 116.147V117.114H360.927V116.147C362.6 116.113 363.671 115.843 364.141 115.337C364.629 114.832 364.873 113.552 364.873 111.496V94.8781H362.73C361.232 94.8781 360.213 94.9739 359.673 95.1655C359.133 95.3397 358.61 95.7752 358.105 96.472C357.618 97.1514 357.199 98.214 356.851 99.6598H355.675L356.668 93.1797ZM404.459 117.114H397.404C395.209 113.926 393.223 110.66 391.446 107.316C391.028 106.549 390.645 105.983 390.297 105.617C389.966 105.234 389.504 105.042 388.912 105.042C388.703 105.042 388.372 105.06 387.919 105.095V111.496C387.919 113.221 388.015 114.327 388.206 114.815C388.415 115.285 388.781 115.625 389.304 115.834C389.826 116.043 390.706 116.147 391.943 116.147V117.114H379.976V116.147C381.526 116.147 382.519 115.869 382.954 115.311C383.39 114.736 383.608 113.465 383.608 111.496V98.7975C383.608 96.9336 383.512 95.8362 383.32 95.5052C383.129 95.1568 382.832 94.852 382.432 94.5907C382.031 94.312 381.212 94.1726 379.976 94.1726V93.1797H391.943V94.1726C390.497 94.1726 389.6 94.2771 389.252 94.4862C388.921 94.6952 388.616 94.9565 388.337 95.2701C388.058 95.5662 387.919 96.742 387.919 98.7975V103.501C388.32 103.536 388.59 103.553 388.729 103.553C389.792 103.553 390.785 103.257 391.708 102.665C392.648 102.055 393.485 100.775 394.216 98.8237C394.896 96.9772 395.453 95.7317 395.888 95.0872C396.341 94.4426 396.96 93.92 397.744 93.5194C398.545 93.1013 399.381 92.8923 400.252 92.8923C401.193 92.8923 401.942 93.1187 402.499 93.5717C403.057 94.0246 403.335 94.6168 403.335 95.3485C403.335 95.9581 403.135 96.4807 402.734 96.9162C402.334 97.3343 401.776 97.5433 401.062 97.5433C400.679 97.5433 400.2 97.4388 399.625 97.2298C398.893 96.9685 398.336 96.8378 397.953 96.8378C397.151 96.8378 396.489 97.5259 395.967 98.9021C395.375 100.487 394.939 101.515 394.66 101.985C394.382 102.438 393.85 103.048 393.066 103.814C393.606 103.971 394.19 104.372 394.817 105.016C395.462 105.661 396.646 107.499 398.371 110.53C399.747 112.951 400.775 114.484 401.454 115.128C402.151 115.773 403.152 116.113 404.459 116.147V117.114ZM413.944 109.746L424.291 97.7785C424.256 96.4372 424.004 95.5052 423.533 94.9826C423.063 94.4601 422.253 94.1901 421.103 94.1726V93.1797H432.234V94.1726C431.067 94.1726 430.283 94.2946 429.883 94.5384C429.482 94.7649 429.169 95.0523 428.942 95.4007C428.716 95.7491 428.602 96.8814 428.602 98.7975V111.496C428.602 113.343 428.698 114.449 428.89 114.815C429.082 115.163 429.378 115.477 429.778 115.756C430.196 116.017 431.015 116.147 432.234 116.147V117.114H420.659V116.147C422.105 116.147 423.072 115.886 423.56 115.364C424.047 114.824 424.291 113.535 424.291 111.496V100.235L413.944 112.228C413.979 113.709 414.188 114.728 414.571 115.285C414.954 115.843 415.782 116.13 417.053 116.147V117.114H406.001V116.147C407.551 116.147 408.544 115.869 408.979 115.311C409.415 114.736 409.633 113.465 409.633 111.496V98.7975C409.633 96.9336 409.537 95.8362 409.345 95.5052C409.153 95.1568 408.857 94.852 408.457 94.5907C408.056 94.312 407.237 94.1726 406.001 94.1726V93.1797H417.576V94.1726C416.409 94.1726 415.625 94.2946 415.224 94.5384C414.824 94.7649 414.51 95.0523 414.284 95.4007C414.057 95.7491 413.944 96.8814 413.944 98.7975V109.746ZM442.582 103.867H452.929V98.7975C452.929 97.282 452.868 96.2978 452.746 95.8449C452.624 95.3746 452.319 94.9826 451.832 94.6691C451.361 94.3381 450.516 94.1726 449.297 94.1726V93.1797H460.872V94.1726C459.792 94.1726 459 94.2946 458.495 94.5384C458.007 94.7823 457.676 95.1394 457.502 95.6097C457.327 96.0627 457.24 97.1253 457.24 98.7975V111.496C457.24 113.012 457.301 114.014 457.423 114.501C457.563 114.989 457.885 115.39 458.39 115.703C458.895 115.999 459.723 116.147 460.872 116.147V117.114H449.297V116.147C450.743 116.147 451.71 115.886 452.197 115.364C452.685 114.824 452.929 113.535 452.929 111.496V105.565H442.582V111.496C442.582 113.012 442.643 114.014 442.765 114.501C442.904 114.989 443.226 115.39 443.731 115.703C444.237 115.999 445.064 116.147 446.214 116.147V117.114H434.638V116.147C436.189 116.147 437.182 115.869 437.617 115.311C438.053 114.736 438.27 113.465 438.27 111.496V98.7975C438.27 97.282 438.201 96.2804 438.061 95.7927C437.939 95.3049 437.626 94.913 437.121 94.6168C436.616 94.3207 435.788 94.1726 434.638 94.1726V93.1797H446.214V94.1726C445.134 94.1726 444.341 94.2946 443.836 94.5384C443.348 94.7823 443.017 95.1394 442.843 95.6097C442.669 96.0627 442.582 97.1253 442.582 98.7975V103.867ZM477.308 113.665C474.852 115.564 473.31 116.661 472.683 116.957C471.742 117.393 470.741 117.611 469.678 117.611C468.023 117.611 466.656 117.045 465.576 115.912C464.513 114.78 463.982 113.291 463.982 111.444C463.982 110.277 464.243 109.267 464.766 108.413C465.48 107.229 466.717 106.114 468.476 105.069C470.253 104.023 473.197 102.752 477.308 101.254V100.313C477.308 97.9266 476.924 96.2891 476.158 95.4007C475.409 94.5123 474.312 94.0681 472.866 94.0681C471.768 94.0681 470.897 94.3642 470.253 94.9565C469.591 95.5488 469.26 96.2281 469.26 96.9946L469.312 98.5101C469.312 99.3114 469.103 99.9298 468.685 100.365C468.284 100.801 467.753 101.019 467.091 101.019C466.447 101.019 465.915 100.792 465.497 100.339C465.097 99.8863 464.896 99.2679 464.896 98.484C464.896 96.9859 465.663 95.6097 467.196 94.3555C468.729 93.1013 470.88 92.4742 473.65 92.4742C475.775 92.4742 477.517 92.8313 478.875 93.5455C479.903 94.0855 480.661 94.9304 481.149 96.0801C481.462 96.8291 481.619 98.362 481.619 100.679V108.805C481.619 111.087 481.663 112.489 481.75 113.012C481.837 113.517 481.976 113.857 482.168 114.031C482.377 114.205 482.612 114.292 482.873 114.292C483.152 114.292 483.396 114.231 483.605 114.109C483.971 113.883 484.676 113.247 485.721 112.202V113.665C483.77 116.278 481.906 117.585 480.13 117.585C479.276 117.585 478.597 117.288 478.092 116.696C477.586 116.104 477.325 115.094 477.308 113.665ZM477.308 111.967V102.848C474.677 103.893 472.979 104.633 472.212 105.069C470.836 105.835 469.852 106.636 469.26 107.473C468.668 108.309 468.371 109.223 468.371 110.216C468.371 111.47 468.746 112.515 469.495 113.352C470.244 114.17 471.106 114.58 472.082 114.58C473.406 114.58 475.148 113.709 477.308 111.967Z" fill="white"/>
<path d="M150.395 156.451H145.603V156.148C146.231 156.137 146.652 156.052 146.865 155.894C147.083 155.735 147.198 155.408 147.209 154.911C145.363 154.911 144.031 154.523 143.212 153.748C142.398 152.972 141.991 152.003 141.991 150.84C141.991 149.966 142.231 149.221 142.712 148.604C143.198 147.987 143.796 147.561 144.506 147.326C145.215 147.086 146.116 146.966 147.209 146.966C147.198 146.507 147.127 146.204 146.996 146.057C146.865 145.909 146.717 145.808 146.553 145.754C146.395 145.694 146.078 145.658 145.603 145.647V145.344H150.395V145.647C149.75 145.669 149.327 145.767 149.125 145.942C148.923 146.111 148.808 146.453 148.781 146.966C149.961 146.966 150.889 147.094 151.566 147.351C152.243 147.608 152.819 148.033 153.294 148.629C153.769 149.224 154.007 149.961 154.007 150.84C154.007 151.97 153.611 152.931 152.819 153.723C152.027 154.515 150.681 154.911 148.781 154.911C148.798 155.402 148.909 155.73 149.117 155.894C149.33 156.052 149.756 156.137 150.395 156.148V156.451ZM148.781 154.305C149.584 154.305 150.223 154.201 150.698 153.994C151.178 153.781 151.574 153.401 151.885 152.855C152.202 152.309 152.36 151.635 152.36 150.832C152.36 150.078 152.202 149.442 151.885 148.924C151.569 148.399 151.17 148.044 150.69 147.859C150.214 147.668 149.578 147.572 148.781 147.572V154.305ZM147.209 154.305V147.572C146.362 147.572 145.71 147.676 145.251 147.883C144.792 148.085 144.407 148.432 144.096 148.924C143.79 149.415 143.637 150.051 143.637 150.832C143.637 151.689 143.818 152.402 144.178 152.97C144.544 153.538 144.973 153.903 145.464 154.067C145.955 154.226 146.537 154.305 147.209 154.305ZM163.668 145.344L163.709 147.941H163.389C163.367 147.416 163.255 146.996 163.053 146.679C162.851 146.363 162.603 146.163 162.308 146.081C162.019 145.994 161.598 145.95 161.047 145.95H157.934V154.428C157.934 155.159 158.027 155.623 158.213 155.82C158.404 156.017 158.841 156.126 159.523 156.148V156.451H154.756V156.148C155.444 156.126 155.884 156.017 156.075 155.82C156.266 155.623 156.362 155.159 156.362 154.428V147.367C156.362 146.636 156.266 146.171 156.075 145.975C155.884 145.778 155.444 145.669 154.756 145.647V145.344H163.668ZM172.248 145.344L172.362 147.769H172.067C171.893 146.982 171.622 146.483 171.256 146.27C170.896 146.057 170.252 145.95 169.323 145.95H167.456V150.349H167.898C169.258 150.349 170.257 150.436 170.896 150.611C171.535 150.78 172.054 151.108 172.452 151.594C172.856 152.08 173.058 152.664 173.058 153.346C173.058 154.171 172.753 154.894 172.141 155.517C171.529 156.139 170.476 156.451 168.979 156.451H164.278V156.148C164.966 156.126 165.406 156.017 165.597 155.82C165.788 155.623 165.883 155.159 165.883 154.428V147.367C165.883 146.805 165.842 146.425 165.761 146.229C165.684 146.032 165.556 145.893 165.376 145.811C165.195 145.729 164.862 145.675 164.376 145.647V145.344H172.248ZM167.456 155.787C167.937 155.864 168.311 155.902 168.578 155.902C169.25 155.902 169.856 155.678 170.396 155.23C170.942 154.783 171.215 154.163 171.215 153.371C171.215 152.552 170.932 151.946 170.364 151.553C169.796 151.154 169.075 150.955 168.201 150.955C167.956 150.955 167.707 150.977 167.456 151.02V155.787ZM179.468 145.09C180.909 145.09 182.157 145.639 183.211 146.737C184.27 147.829 184.8 149.194 184.8 150.832C184.8 152.519 184.267 153.92 183.203 155.034C182.138 156.148 180.849 156.705 179.337 156.705C177.808 156.705 176.522 156.161 175.479 155.075C174.441 153.988 173.923 152.582 173.923 150.857C173.923 149.093 174.523 147.654 175.725 146.54C176.768 145.574 178.015 145.09 179.468 145.09ZM179.312 145.688C178.318 145.688 177.521 146.057 176.92 146.794C176.172 147.711 175.798 149.055 175.798 150.824C175.798 152.637 176.186 154.032 176.961 155.009C177.557 155.752 178.343 156.123 179.32 156.123C180.363 156.123 181.223 155.716 181.9 154.903C182.583 154.089 182.924 152.806 182.924 151.053C182.924 149.153 182.55 147.736 181.802 146.802C181.201 146.06 180.371 145.688 179.312 145.688ZM184.55 145.344H189.055V145.647C188.263 145.68 187.867 145.893 187.867 146.286C187.867 146.565 188.159 147.214 188.744 148.236L191.168 152.495L192.937 148.236C193.309 147.34 193.494 146.739 193.494 146.434C193.494 146.008 193.15 145.746 192.462 145.647V145.344H195.943V145.647C195.124 145.746 194.502 146.303 194.076 147.318L191.954 152.364C191.403 153.658 190.955 154.578 190.611 155.124C190.267 155.67 189.89 156.071 189.481 156.328C189.077 156.579 188.656 156.705 188.219 156.705C187.843 156.705 187.523 156.623 187.261 156.459C187.005 156.301 186.876 156.082 186.876 155.804C186.876 155.602 186.944 155.435 187.081 155.304C187.217 155.167 187.403 155.099 187.638 155.099C187.867 155.099 188.14 155.192 188.457 155.378C188.67 155.492 188.831 155.55 188.94 155.55C189.372 155.55 189.855 155.102 190.39 154.206L186.36 147.122C186.076 146.625 185.806 146.273 185.549 146.065C185.298 145.858 184.965 145.718 184.55 145.647V145.344ZM202.046 145.344H211.211V145.647C210.523 145.669 210.083 145.778 209.892 145.975C209.701 146.171 209.605 146.636 209.605 147.367V153.518C209.605 154.709 209.674 155.446 209.81 155.73C209.947 156.008 210.389 156.148 211.137 156.148V159.645H210.859C210.695 158.837 210.43 158.184 210.064 157.687C209.704 157.196 209.291 156.866 208.827 156.696C208.369 156.533 207.817 156.451 207.173 156.451H204.339C203.099 156.451 202.187 156.786 201.603 157.458C201.024 158.13 200.678 158.859 200.563 159.645H200.285V156.148C201.164 156.071 201.879 155.544 202.43 154.567C202.982 153.589 203.364 152.391 203.577 150.971C203.79 149.546 203.897 148.377 203.897 147.466C203.897 146.92 203.828 146.518 203.692 146.262C203.555 146.005 203.392 145.844 203.2 145.778C203.015 145.713 202.63 145.669 202.046 145.647V145.344ZM204.716 145.95C204.579 149.188 204.32 151.46 203.938 152.765C203.555 154.07 203.042 155.097 202.398 155.845H206.509C207.241 155.845 207.678 155.782 207.82 155.656C207.967 155.525 208.041 155.107 208.041 154.403V145.95H204.716ZM219.987 145.95H214.835V154.428C214.835 155.159 214.928 155.623 215.114 155.82C215.305 156.017 215.747 156.126 216.441 156.148V156.451H211.657V156.148C212.345 156.126 212.785 156.017 212.976 155.82C213.167 155.623 213.263 155.159 213.263 154.428V147.367C213.263 146.636 213.167 146.171 212.976 145.975C212.785 145.778 212.345 145.669 211.657 145.647V145.344H223.165V145.647C222.477 145.669 222.038 145.778 221.846 145.975C221.655 146.171 221.56 146.636 221.56 147.367V154.428C221.56 155.159 221.655 155.623 221.846 155.82C222.038 156.017 222.477 156.126 223.165 156.148V156.451H218.39V156.148C219.073 156.126 219.509 156.019 219.7 155.828C219.892 155.632 219.987 155.165 219.987 154.428V145.95ZM229.443 145.09C230.885 145.09 232.133 145.639 233.186 146.737C234.246 147.829 234.775 149.194 234.775 150.832C234.775 152.519 234.243 153.92 233.178 155.034C232.113 156.148 230.825 156.705 229.312 156.705C227.783 156.705 226.497 156.161 225.455 155.075C224.417 153.988 223.898 152.582 223.898 150.857C223.898 149.093 224.499 147.654 225.7 146.54C226.743 145.574 227.991 145.09 229.443 145.09ZM229.288 145.688C228.294 145.688 227.497 146.057 226.896 146.794C226.148 147.711 225.774 149.055 225.774 150.824C225.774 152.637 226.162 154.032 226.937 155.009C227.532 155.752 228.319 156.123 229.296 156.123C230.339 156.123 231.199 155.716 231.876 154.903C232.559 154.089 232.9 152.806 232.9 151.053C232.9 149.153 232.526 147.736 231.778 146.802C231.177 146.06 230.347 145.688 229.288 145.688ZM242.729 151.25V154.485C242.729 155.184 242.805 155.618 242.958 155.787C243.166 156.028 243.48 156.148 243.9 156.148H244.326V156.451H239.567V156.148H239.985C240.455 156.148 240.79 155.995 240.992 155.689C241.102 155.52 241.156 155.118 241.156 154.485V147.31C241.156 146.611 241.083 146.177 240.935 146.008C240.722 145.767 240.405 145.647 239.985 145.647H239.567V145.344H243.638C244.632 145.344 245.415 145.448 245.989 145.655C246.562 145.858 247.045 146.202 247.438 146.688C247.832 147.173 248.028 147.75 248.028 148.416C248.028 149.322 247.728 150.059 247.127 150.627C246.532 151.195 245.688 151.479 244.596 151.479C244.329 151.479 244.039 151.46 243.728 151.422C243.417 151.383 243.084 151.326 242.729 151.25ZM242.729 150.783C243.018 150.837 243.275 150.878 243.499 150.906C243.723 150.933 243.914 150.947 244.072 150.947C244.64 150.947 245.129 150.728 245.538 150.291C245.953 149.849 246.161 149.278 246.161 148.58C246.161 148.099 246.062 147.654 245.866 147.244C245.669 146.829 245.391 146.521 245.03 146.319C244.67 146.111 244.26 146.008 243.802 146.008C243.523 146.008 243.166 146.06 242.729 146.163V150.783ZM255.322 156.451L251.03 147.105V154.526C251.03 155.208 251.104 155.634 251.251 155.804C251.453 156.033 251.773 156.148 252.21 156.148H252.603V156.451H248.737V156.148H249.13C249.6 156.148 249.933 156.006 250.129 155.722C250.249 155.547 250.309 155.148 250.309 154.526V147.269C250.309 146.778 250.255 146.423 250.146 146.204C250.069 146.046 249.927 145.915 249.72 145.811C249.518 145.702 249.19 145.647 248.737 145.647V145.344H251.882L255.912 154.034L259.876 145.344H263.021V145.647H262.636C262.161 145.647 261.825 145.789 261.629 146.073C261.509 146.248 261.449 146.647 261.449 147.269V154.526C261.449 155.208 261.525 155.634 261.678 155.804C261.88 156.033 262.199 156.148 262.636 156.148H263.021V156.451H258.303V156.148H258.697C259.172 156.148 259.505 156.006 259.696 155.722C259.816 155.547 259.876 155.148 259.876 154.526V147.105L255.592 156.451H255.322ZM270.888 152.732H266.588L265.835 154.485C265.649 154.916 265.556 155.238 265.556 155.451C265.556 155.621 265.636 155.771 265.794 155.902C265.958 156.028 266.307 156.109 266.842 156.148V156.451H263.345V156.148C263.809 156.066 264.109 155.959 264.246 155.828C264.524 155.566 264.833 155.034 265.171 154.231L269.078 145.09H269.365L273.231 154.329C273.542 155.072 273.823 155.555 274.075 155.779C274.331 155.997 274.686 156.12 275.139 156.148V156.451H270.757V156.148C271.2 156.126 271.497 156.052 271.65 155.926C271.808 155.801 271.888 155.648 271.888 155.468C271.888 155.228 271.778 154.848 271.56 154.329L270.888 152.732ZM270.659 152.126L268.775 147.638L266.842 152.126H270.659ZM278.616 150.496H283.776V147.318C283.776 146.75 283.741 146.376 283.67 146.196C283.615 146.06 283.501 145.942 283.326 145.844C283.091 145.713 282.843 145.647 282.581 145.647H282.187V145.344H286.938V145.647H286.545C286.283 145.647 286.034 145.71 285.8 145.836C285.625 145.923 285.505 146.057 285.439 146.237C285.379 146.412 285.349 146.772 285.349 147.318V154.485C285.349 155.047 285.385 155.419 285.456 155.599C285.51 155.735 285.622 155.853 285.791 155.951C286.032 156.082 286.283 156.148 286.545 156.148H286.938V156.451H282.187V156.148H282.581C283.034 156.148 283.364 156.014 283.572 155.746C283.708 155.572 283.776 155.151 283.776 154.485V151.102H278.616V154.485C278.616 155.047 278.652 155.419 278.723 155.599C278.777 155.735 278.892 155.853 279.067 155.951C279.302 156.082 279.55 156.148 279.812 156.148H280.214V156.451H275.455V156.148H275.848C276.307 156.148 276.64 156.014 276.847 155.746C276.978 155.572 277.044 155.151 277.044 154.485V147.318C277.044 146.75 277.008 146.376 276.937 146.196C276.883 146.06 276.771 145.942 276.602 145.844C276.361 145.713 276.11 145.647 275.848 145.647H275.455V145.344H280.214V145.647H279.812C279.55 145.647 279.302 145.71 279.067 145.836C278.898 145.923 278.78 146.057 278.715 146.237C278.649 146.412 278.616 146.772 278.616 147.318V150.496ZM295.755 145.95H290.603V154.428C290.603 155.159 290.696 155.623 290.882 155.82C291.073 156.017 291.515 156.126 292.209 156.148V156.451H287.426V156.148C288.114 156.126 288.553 156.017 288.744 155.82C288.935 155.623 289.031 155.159 289.031 154.428V147.367C289.031 146.636 288.935 146.171 288.744 145.975C288.553 145.778 288.114 145.669 287.426 145.647V145.344H298.933V145.647C298.245 145.669 297.806 145.778 297.615 145.975C297.424 146.171 297.328 146.636 297.328 147.367V154.428C297.328 155.159 297.424 155.623 297.615 155.82C297.806 156.017 298.245 156.126 298.933 156.148V156.451H294.158V156.148C294.841 156.126 295.278 156.019 295.469 155.828C295.66 155.632 295.755 155.165 295.755 154.428V145.95ZM305.212 145.09C306.653 145.09 307.901 145.639 308.955 146.737C310.014 147.829 310.544 149.194 310.544 150.832C310.544 152.519 310.011 153.92 308.946 155.034C307.882 156.148 306.593 156.705 305.081 156.705C303.552 156.705 302.266 156.161 301.223 155.075C300.185 153.988 299.667 152.582 299.667 150.857C299.667 149.093 300.267 147.654 301.468 146.54C302.511 145.574 303.759 145.09 305.212 145.09ZM305.056 145.688C304.062 145.688 303.265 146.057 302.664 146.794C301.916 147.711 301.542 149.055 301.542 150.824C301.542 152.637 301.93 154.032 302.705 155.009C303.3 155.752 304.087 156.123 305.064 156.123C306.107 156.123 306.967 155.716 307.644 154.903C308.327 154.089 308.668 152.806 308.668 151.053C308.668 149.153 308.294 147.736 307.546 146.802C306.945 146.06 306.115 145.688 305.056 145.688ZM321.921 156.451L317.629 147.105V154.526C317.629 155.208 317.703 155.634 317.85 155.804C318.052 156.033 318.371 156.148 318.808 156.148H319.201V156.451H315.335V156.148H315.729C316.198 156.148 316.531 156.006 316.728 155.722C316.848 155.547 316.908 155.148 316.908 154.526V147.269C316.908 146.778 316.853 146.423 316.744 146.204C316.668 146.046 316.526 145.915 316.318 145.811C316.116 145.702 315.789 145.647 315.335 145.647V145.344H318.481L322.51 154.034L326.475 145.344H329.62V145.647H329.235C328.76 145.647 328.424 145.789 328.227 146.073C328.107 146.248 328.047 146.647 328.047 147.269V154.526C328.047 155.208 328.124 155.634 328.277 155.804C328.479 156.033 328.798 156.148 329.235 156.148H329.62V156.451H324.902V156.148H325.295C325.77 156.148 326.103 156.006 326.294 155.722C326.415 155.547 326.475 155.148 326.475 154.526V147.105L322.191 156.451H321.921ZM338.445 147.179C338.445 146.513 338.336 146.092 338.118 145.918C337.905 145.737 337.471 145.647 336.815 145.647V145.344H341.623V145.647C340.935 145.669 340.496 145.778 340.305 145.975C340.114 146.171 340.018 146.636 340.018 147.367V154.428C340.018 155.159 340.114 155.623 340.305 155.82C340.496 156.017 340.935 156.126 341.623 156.148V156.451H336.815V156.148C337.52 156.126 337.968 156.017 338.159 155.82C338.35 155.618 338.445 155.154 338.445 154.428V148.055L333.293 154.657C333.299 155.132 333.329 155.451 333.384 155.615C333.444 155.774 333.577 155.899 333.785 155.992C333.998 156.085 334.372 156.137 334.907 156.148V156.451H330.116V156.148C330.804 156.126 331.243 156.017 331.434 155.82C331.625 155.623 331.721 155.159 331.721 154.428V147.367C331.721 146.636 331.625 146.171 331.434 145.975C331.243 145.778 330.804 145.669 330.116 145.647V145.344H334.907V145.647C334.214 145.669 333.771 145.778 333.58 145.975C333.389 146.171 333.293 146.636 333.293 147.367V153.764L338.445 147.179ZM345.215 150.496H350.375V147.318C350.375 146.75 350.34 146.376 350.269 146.196C350.214 146.06 350.099 145.942 349.925 145.844C349.69 145.713 349.441 145.647 349.179 145.647H348.786V145.344H353.537V145.647H353.144C352.881 145.647 352.633 145.71 352.398 145.836C352.223 145.923 352.103 146.057 352.038 146.237C351.978 146.412 351.948 146.772 351.948 147.318V154.485C351.948 155.047 351.983 155.419 352.054 155.599C352.109 155.735 352.221 155.853 352.39 155.951C352.63 156.082 352.881 156.148 353.144 156.148H353.537V156.451H348.786V156.148H349.179C349.633 156.148 349.963 156.014 350.17 155.746C350.307 155.572 350.375 155.151 350.375 154.485V151.102H345.215V154.485C345.215 155.047 345.251 155.419 345.322 155.599C345.376 155.735 345.491 155.853 345.666 155.951C345.9 156.082 346.149 156.148 346.411 156.148H346.812V156.451H342.053V156.148H342.447C342.905 156.148 343.238 156.014 343.446 155.746C343.577 155.572 343.642 155.151 343.642 154.485V147.318C343.642 146.75 343.607 146.376 343.536 146.196C343.481 146.06 343.369 145.942 343.2 145.844C342.96 145.713 342.709 145.647 342.447 145.647H342.053V145.344H346.812V145.647H346.411C346.149 145.647 345.9 145.71 345.666 145.836C345.496 145.923 345.379 146.057 345.313 146.237C345.248 146.412 345.215 146.772 345.215 147.318V150.496ZM354.557 148.334V145.107H354.843C354.931 145.467 355.133 145.647 355.449 145.647C355.569 145.647 355.826 145.574 356.219 145.426C356.836 145.202 357.483 145.09 358.16 145.09C359.078 145.09 359.815 145.366 360.372 145.918C360.929 146.469 361.207 147.113 361.207 147.851C361.207 148.522 360.997 149.098 360.577 149.579C360.156 150.054 359.599 150.403 358.906 150.627C359.659 150.764 360.268 151.108 360.732 151.659C361.196 152.205 361.428 152.85 361.428 153.592C361.428 154.51 361.074 155.258 360.364 155.836C359.654 156.415 358.772 156.705 357.718 156.705C356.151 156.705 354.936 155.962 354.073 154.477L354.352 154.297C354.63 154.75 355.034 155.14 355.564 155.468C356.094 155.795 356.664 155.959 357.276 155.959C358.002 155.959 358.565 155.719 358.963 155.238C359.367 154.753 359.569 154.16 359.569 153.461C359.569 152.74 359.315 152.132 358.808 151.635C358.3 151.138 357.459 150.889 356.285 150.889V150.349C357.115 150.349 357.74 150.261 358.16 150.087C358.581 149.912 358.922 149.628 359.184 149.235C359.446 148.842 359.577 148.386 359.577 147.867C359.577 147.266 359.394 146.775 359.029 146.393C358.663 146.01 358.166 145.819 357.538 145.819C356.757 145.819 356.146 146.051 355.703 146.515C355.266 146.974 354.98 147.58 354.843 148.334H354.557ZM362.899 145.344H372.064V145.647C371.376 145.669 370.937 145.778 370.745 145.975C370.554 146.171 370.459 146.636 370.459 147.367V153.518C370.459 154.709 370.527 155.446 370.664 155.73C370.8 156.008 371.242 156.148 371.99 156.148V159.645H371.712C371.548 158.837 371.283 158.184 370.917 157.687C370.557 157.196 370.145 156.866 369.681 156.696C369.222 156.533 368.67 156.451 368.026 156.451H365.192C363.953 156.451 363.041 156.786 362.457 157.458C361.878 158.13 361.531 158.859 361.416 159.645H361.138V156.148C362.017 156.071 362.732 155.544 363.284 154.567C363.835 153.589 364.218 152.391 364.43 150.971C364.643 149.546 364.75 148.377 364.75 147.466C364.75 146.92 364.682 146.518 364.545 146.262C364.409 146.005 364.245 145.844 364.054 145.778C363.868 145.713 363.483 145.669 362.899 145.647V145.344ZM365.569 145.95C365.432 149.188 365.173 151.46 364.791 152.765C364.409 154.07 363.895 155.097 363.251 155.845H367.363C368.094 155.845 368.531 155.782 368.673 155.656C368.821 155.525 368.894 155.107 368.894 154.403V145.95H365.569ZM375.648 151.25V154.485C375.648 155.184 375.724 155.618 375.877 155.787C376.085 156.028 376.398 156.148 376.819 156.148H377.245V156.451H372.486V156.148H372.904C373.373 156.148 373.709 155.995 373.911 155.689C374.02 155.52 374.075 155.118 374.075 154.485V147.31C374.075 146.611 374.001 146.177 373.854 146.008C373.641 145.767 373.324 145.647 372.904 145.647H372.486V145.344H376.557C377.551 145.344 378.334 145.448 378.908 145.655C379.481 145.858 379.964 146.202 380.357 146.688C380.75 147.173 380.947 147.75 380.947 148.416C380.947 149.322 380.647 150.059 380.046 150.627C379.451 151.195 378.607 151.479 377.515 151.479C377.248 151.479 376.958 151.46 376.647 151.422C376.336 151.383 376.003 151.326 375.648 151.25ZM375.648 150.783C375.937 150.837 376.194 150.878 376.418 150.906C376.641 150.933 376.833 150.947 376.991 150.947C377.559 150.947 378.048 150.728 378.457 150.291C378.872 149.849 379.08 149.278 379.08 148.58C379.08 148.099 378.981 147.654 378.785 147.244C378.588 146.829 378.31 146.521 377.949 146.319C377.589 146.111 377.179 146.008 376.721 146.008C376.442 146.008 376.085 146.06 375.648 146.163V150.783ZM386.906 152.732H382.606L381.852 154.485C381.667 154.916 381.574 155.238 381.574 155.451C381.574 155.621 381.653 155.771 381.811 155.902C381.975 156.028 382.325 156.109 382.86 156.148V156.451H379.362V156.148C379.826 156.066 380.127 155.959 380.263 155.828C380.542 155.566 380.85 155.034 381.189 154.231L385.096 145.09H385.382L389.248 154.329C389.56 155.072 389.841 155.555 390.092 155.779C390.349 155.997 390.704 156.12 391.157 156.148V156.451H386.775V156.148C387.217 156.126 387.515 156.052 387.668 155.926C387.826 155.801 387.905 155.648 387.905 155.468C387.905 155.228 387.796 154.848 387.577 154.329L386.906 152.732ZM386.676 152.126L384.793 147.638L382.86 152.126H386.676ZM398.934 150.783C399.704 150.947 400.28 151.209 400.662 151.569C401.192 152.071 401.457 152.686 401.457 153.412C401.457 153.963 401.282 154.493 400.932 155.001C400.583 155.503 400.102 155.872 399.491 156.107C398.885 156.336 397.956 156.451 396.706 156.451H391.464V156.148H391.882C392.346 156.148 392.679 156 392.881 155.705C393.007 155.514 393.069 155.107 393.069 154.485V147.31C393.069 146.622 392.99 146.188 392.832 146.008C392.619 145.767 392.302 145.647 391.882 145.647H391.464V145.344H396.264C397.159 145.344 397.877 145.41 398.418 145.541C399.237 145.737 399.862 146.087 400.293 146.589C400.725 147.086 400.941 147.659 400.941 148.309C400.941 148.866 400.771 149.366 400.433 149.808C400.094 150.245 399.595 150.57 398.934 150.783ZM394.642 150.341C394.844 150.379 395.073 150.409 395.33 150.431C395.592 150.447 395.879 150.455 396.19 150.455C396.987 150.455 397.585 150.371 397.984 150.201C398.388 150.027 398.696 149.762 398.909 149.407C399.122 149.052 399.229 148.664 399.229 148.244C399.229 147.594 398.964 147.04 398.434 146.581C397.905 146.122 397.132 145.893 396.116 145.893C395.57 145.893 395.079 145.953 394.642 146.073V150.341ZM394.642 155.648C395.275 155.795 395.901 155.869 396.518 155.869C397.506 155.869 398.259 155.648 398.778 155.206C399.297 154.758 399.556 154.206 399.556 153.551C399.556 153.12 399.439 152.705 399.204 152.306C398.969 151.908 398.587 151.594 398.057 151.364C397.528 151.135 396.873 151.02 396.092 151.02C395.753 151.02 395.464 151.026 395.224 151.037C394.983 151.048 394.789 151.067 394.642 151.094V155.648ZM408.816 152.732H404.516L403.762 154.485C403.577 154.916 403.484 155.238 403.484 155.451C403.484 155.621 403.563 155.771 403.721 155.902C403.885 156.028 404.235 156.109 404.77 156.148V156.451H401.272V156.148C401.737 156.066 402.037 155.959 402.173 155.828C402.452 155.566 402.76 155.034 403.099 154.231L407.006 145.09H407.293L411.158 154.329C411.47 155.072 411.751 155.555 412.002 155.779C412.259 155.997 412.614 156.12 413.067 156.148V156.451H408.685V156.148C409.127 156.126 409.425 156.052 409.578 155.926C409.736 155.801 409.815 155.648 409.815 155.468C409.815 155.228 409.706 154.848 409.488 154.329L408.816 152.732ZM408.587 152.126L406.703 147.638L404.77 152.126H408.587ZM420.562 151.25V154.485C420.562 155.184 420.638 155.618 420.791 155.787C420.998 156.028 421.312 156.148 421.733 156.148H422.159V156.451H417.4V156.148H417.818C418.287 156.148 418.623 155.995 418.825 155.689C418.934 155.52 418.989 155.118 418.989 154.485V147.31C418.989 146.611 418.915 146.177 418.768 146.008C418.555 145.767 418.238 145.647 417.818 145.647H417.4V145.344H421.471C422.465 145.344 423.248 145.448 423.821 145.655C424.395 145.858 424.878 146.202 425.271 146.688C425.664 147.173 425.861 147.75 425.861 148.416C425.861 149.322 425.561 150.059 424.96 150.627C424.365 151.195 423.521 151.479 422.429 151.479C422.161 151.479 421.872 151.46 421.561 151.422C421.25 151.383 420.917 151.326 420.562 151.25ZM420.562 150.783C420.851 150.837 421.108 150.878 421.332 150.906C421.555 150.933 421.747 150.947 421.905 150.947C422.473 150.947 422.961 150.728 423.371 150.291C423.786 149.849 423.993 149.278 423.993 148.58C423.993 148.099 423.895 147.654 423.699 147.244C423.502 146.829 423.224 146.521 422.863 146.319C422.503 146.111 422.093 146.008 421.635 146.008C421.356 146.008 420.998 146.06 420.562 146.163V150.783ZM432.639 145.09C434.08 145.09 435.328 145.639 436.382 146.737C437.441 147.829 437.971 149.194 437.971 150.832C437.971 152.519 437.438 153.92 436.374 155.034C435.309 156.148 434.02 156.705 432.508 156.705C430.979 156.705 429.693 156.161 428.65 155.075C427.612 153.988 427.094 152.582 427.094 150.857C427.094 149.093 427.694 147.654 428.896 146.54C429.939 145.574 431.186 145.09 432.639 145.09ZM432.483 145.688C431.489 145.688 430.692 146.057 430.092 146.794C429.343 147.711 428.969 149.055 428.969 150.824C428.969 152.637 429.357 154.032 430.132 155.009C430.728 155.752 431.514 156.123 432.491 156.123C433.534 156.123 434.394 155.716 435.071 154.903C435.754 154.089 436.095 152.806 436.095 151.053C436.095 149.153 435.721 147.736 434.973 146.802C434.372 146.06 433.542 145.688 432.483 145.688ZM448.77 145.09L449.024 148.866H448.77C448.432 147.736 447.949 146.922 447.321 146.425C446.693 145.929 445.939 145.68 445.06 145.68C444.323 145.68 443.657 145.868 443.061 146.245C442.466 146.617 441.997 147.212 441.653 148.031C441.314 148.85 441.145 149.868 441.145 151.086C441.145 152.091 441.306 152.961 441.628 153.699C441.95 154.436 442.434 155.001 443.078 155.394C443.728 155.787 444.468 155.984 445.298 155.984C446.018 155.984 446.654 155.831 447.206 155.525C447.757 155.214 448.364 154.6 449.024 153.682L449.278 153.846C448.721 154.834 448.071 155.558 447.329 156.017C446.586 156.475 445.704 156.705 444.683 156.705C442.843 156.705 441.418 156.022 440.408 154.657C439.654 153.641 439.277 152.445 439.277 151.069C439.277 149.961 439.526 148.943 440.023 148.014C440.52 147.086 441.202 146.368 442.07 145.86C442.944 145.347 443.897 145.09 444.929 145.09C445.732 145.09 446.523 145.287 447.304 145.68C447.534 145.8 447.697 145.86 447.796 145.86C447.943 145.86 448.071 145.808 448.181 145.705C448.323 145.557 448.424 145.352 448.484 145.09H448.77ZM459.791 145.09L460.045 148.866H459.791C459.452 147.736 458.969 146.922 458.341 146.425C457.713 145.929 456.96 145.68 456.081 145.68C455.343 145.68 454.677 145.868 454.082 146.245C453.487 146.617 453.017 147.212 452.673 148.031C452.335 148.85 452.165 149.868 452.165 151.086C452.165 152.091 452.327 152.961 452.649 153.699C452.971 154.436 453.454 155.001 454.098 155.394C454.748 155.787 455.488 155.984 456.318 155.984C457.039 155.984 457.675 155.831 458.227 155.525C458.778 155.214 459.384 154.6 460.045 153.682L460.299 153.846C459.742 154.834 459.092 155.558 458.349 156.017C457.607 156.475 456.725 156.705 455.704 156.705C453.864 156.705 452.439 156.022 451.428 154.657C450.675 153.641 450.298 152.445 450.298 151.069C450.298 149.961 450.546 148.943 451.043 148.014C451.54 147.086 452.223 146.368 453.091 145.86C453.965 145.347 454.918 145.09 455.95 145.09C456.752 145.09 457.544 145.287 458.325 145.68C458.554 145.8 458.718 145.86 458.816 145.86C458.964 145.86 459.092 145.808 459.201 145.705C459.343 145.557 459.444 145.352 459.504 145.09H459.791ZM469.345 147.179C469.345 146.513 469.236 146.092 469.018 145.918C468.805 145.737 468.371 145.647 467.715 145.647V145.344H472.523V145.647C471.835 145.669 471.396 145.778 471.205 145.975C471.014 146.171 470.918 146.636 470.918 147.367V154.428C470.918 155.159 471.014 155.623 471.205 155.82C471.396 156.017 471.835 156.126 472.523 156.148V156.451H467.715V156.148C468.42 156.126 468.868 156.017 469.059 155.82C469.25 155.618 469.345 155.154 469.345 154.428V148.055L464.194 154.657C464.199 155.132 464.229 155.451 464.284 155.615C464.344 155.774 464.477 155.899 464.685 155.992C464.898 156.085 465.272 156.137 465.807 156.148V156.451H461.016V156.148C461.704 156.126 462.143 156.017 462.334 155.82C462.525 155.623 462.621 155.159 462.621 154.428V147.367C462.621 146.636 462.525 146.171 462.334 145.975C462.143 145.778 461.704 145.669 461.016 145.647V145.344H465.807V145.647C465.114 145.669 464.671 145.778 464.48 145.975C464.289 146.171 464.194 146.636 464.194 147.367V153.764L469.345 147.179ZM481.3 147.179C481.3 146.513 481.191 146.092 480.972 145.918C480.759 145.737 480.325 145.647 479.67 145.647V145.344H484.478V145.647C483.79 145.669 483.35 145.778 483.159 145.975C482.968 146.171 482.872 146.636 482.872 147.367V154.428C482.872 155.159 482.968 155.623 483.159 155.82C483.35 156.017 483.79 156.126 484.478 156.148V156.451H479.67V156.148C480.374 156.126 480.822 156.017 481.013 155.82C481.204 155.618 481.3 155.154 481.3 154.428V148.055L476.148 154.657C476.153 155.132 476.183 155.451 476.238 155.615C476.298 155.774 476.432 155.899 476.639 155.992C476.852 156.085 477.226 156.137 477.761 156.148V156.451H472.97V156.148C473.658 156.126 474.097 156.017 474.289 155.82C474.48 155.623 474.575 155.159 474.575 154.428V147.367C474.575 146.636 474.48 146.171 474.289 145.975C474.097 145.778 473.658 145.669 472.97 145.647V145.344H477.761V145.647C477.068 145.669 476.626 145.778 476.435 145.975C476.243 146.171 476.148 146.636 476.148 147.367V153.764L481.3 147.179Z" fill="#DBBEA4"/>
</svg>
